<svg xmlns="http://www.w3.org/2000/svg" viewBox="0 0 411.9 688.1"><defs><style>.cls-1{fill:url(#linear-gradient);}.cls-2{opacity:0.2;}.cls-3{fill:none;stroke:#fff;stroke-miterlimit:10;stroke-width:1.04px;}</style><linearGradient id="linear-gradient" x1="205.95" y1="648.47" x2="205.95" y2="39.58" gradientTransform="matrix(1 0 0 1.13 .02 -44.73)" gradientUnits="userSpaceOnUse"><stop offset="0" stop-color="#999"/><stop offset="1" stop-color="#e6e6e6"/></linearGradient></defs><title>background</title><g id="Layer_2" data-name="Layer 2"><g id="Layer_1-2" data-name="Layer 1"><path class="cls-1" d="M.02.01h411.86v688.07H.02z"/><path class="cls-2 cls-3" d="M0 55.94c6.64 0 6.64 5.53 13.28 5.53S20 55.94 26.6 55.94s6.64 5.53 13.28 5.53 6.64-5.53 13.29-5.53 6.64 5.53 13.28 5.53 6.64-5.53 13.28-5.53 6.65 5.53 13.27 5.53 6.64-5.53 13.28-5.53 6.64 5.53 13.28 5.53 6.64-5.53 13.29-5.53 6.64 5.53 13.28 5.53 6.64-5.53 13.28-5.53 6.64 5.53 13.28 5.53 6.64-5.53 13.29-5.53 6.64 5.53 13.28 5.53 6.64-5.53 13.28-5.53 6.64 5.53 13.28 5.53 6.64-5.53 13.29-5.53 6.64 5.53 13.28 5.53S259.08 56 265.72 56s6.64 5.53 13.29 5.53S285.65 56 292.29 56s6.64 5.53 13.29 5.53S312.22 56 318.87 56s6.64 5.53 13.29 5.53S338.8 56 345.44 56s6.64 5.53 13.29 5.53S365.37 56 372 56s6.64 5.53 13.29 5.53S392 56 398.6 56s6.65 5.53 13.3 5.53M0 77c6.64 0 6.64 5.53 13.28 5.53S20 77 26.6 77s6.64 5.53 13.28 5.53S46.53 77 53.17 77s6.64 5.53 13.28 5.53S73.1 77 79.74 77s6.64 5.55 13.26 5.55S99.66 77 106.31 77s6.64 5.53 13.28 5.53S126.23 77 132.88 77s6.64 5.53 13.28 5.53S152.8 77 159.45 77s6.64 5.53 13.28 5.53S179.37 77 186 77s6.64 5.53 13.28 5.53 6.66-5.53 13.3-5.53 6.64 5.53 13.28 5.53S232.51 77 239.15 77s6.64 5.53 13.28 5.53S259.08 77 265.72 77s6.64 5.53 13.29 5.53S285.65 77 292.29 77s6.64 5.53 13.29 5.53S312.22 77 318.87 77s6.64 5.53 13.29 5.53S338.8 77 345.44 77s6.64 5.53 13.29 5.53S365.37 77 372 77s6.64 5.53 13.29 5.53S392 77 398.6 77s6.65 5.53 13.3 5.53M0 98.09c6.64 0 6.64 5.53 13.28 5.53S20 98.09 26.6 98.09s6.64 5.53 13.28 5.53 6.64-5.53 13.29-5.53 6.64 5.53 13.28 5.53 6.64-5.53 13.28-5.53 6.64 5.53 13.28 5.53 6.64-5.53 13.28-5.53 6.64 5.53 13.28 5.53 6.64-5.53 13.29-5.53 6.64 5.53 13.28 5.53 6.64-5.53 13.28-5.53 6.64 5.53 13.28 5.53 6.67-5.52 13.3-5.52 6.64 5.53 13.28 5.53 6.64-5.53 13.28-5.53 6.64 5.53 13.28 5.53 6.64-5.53 13.29-5.53 6.64 5.53 13.28 5.53 6.64-5.53 13.28-5.53 6.64 5.53 13.29 5.53 6.64-5.53 13.29-5.53 6.64 5.53 13.29 5.53 6.64-5.53 13.29-5.53 6.64 5.53 13.29 5.53 6.64-5.53 13.28-5.53 6.64 5.53 13.29 5.53 6.65-5.53 13.29-5.53 6.64 5.53 13.29 5.53 6.65-5.53 13.3-5.53 6.65 5.53 13.3 5.53M0 119.16c6.64 0 6.64 5.53 13.28 5.53s6.64-5.53 13.29-5.53 6.64 5.53 13.28 5.53 6.64-5.53 13.29-5.53 6.64 5.53 13.28 5.53 6.64-5.53 13.28-5.53 6.68 5.54 13.3 5.54 6.64-5.53 13.28-5.53 6.64 5.53 13.28 5.53 6.64-5.53 13.29-5.53 6.64 5.53 13.28 5.53 6.64-5.53 13.28-5.53 6.64 5.53 13.28 5.53 6.64-5.53 13.29-5.53 6.64 5.53 13.28 5.53 6.64-5.53 13.28-5.53 6.64 5.53 13.28 5.53 6.64-5.53 13.29-5.53 6.64 5.53 13.28 5.53 6.64-5.53 13.28-5.53 6.64 5.53 13.29 5.53 6.64-5.53 13.29-5.53 6.64 5.53 13.29 5.53 6.64-5.53 13.29-5.53 6.64 5.53 13.29 5.53 6.64-5.53 13.28-5.53 6.64 5.53 13.29 5.53 6.65-5.53 13.29-5.53 6.64 5.53 13.29 5.53 6.65-5.53 13.3-5.53 6.65 5.53 13.3 5.53M0 140.24c6.64 0 6.64 5.53 13.28 5.53s6.64-5.53 13.29-5.53 6.64 5.53 13.28 5.53 6.64-5.53 13.29-5.53 6.64 5.53 13.28 5.53 6.64-5.53 13.28-5.53 6.64 5.53 13.28 5.53 6.64-5.53 13.28-5.53 6.64 5.53 13.28 5.53 6.64-5.53 13.29-5.53 6.64 5.53 13.28 5.53 6.64-5.53 13.28-5.53 6.64 5.53 13.28 5.53 6.64-5.53 13.29-5.53 6.64 5.53 13.28 5.53 6.64-5.53 13.28-5.53 6.64 5.53 13.28 5.53 6.64-5.53 13.29-5.53 6.64 5.53 13.28 5.53 6.64-5.53 13.28-5.53 6.64 5.53 13.29 5.53 6.64-5.53 13.29-5.53 6.64 5.53 13.29 5.53 6.64-5.53 13.29-5.53 6.64 5.53 13.29 5.53 6.64-5.53 13.28-5.53 6.64 5.53 13.29 5.53 6.65-5.53 13.29-5.53 6.64 5.53 13.29 5.53 6.65-5.53 13.3-5.53 6.65 5.53 13.3 5.53M0 161.32c6.64 0 6.64 5.53 13.28 5.53s6.64-5.53 13.29-5.53 6.64 5.53 13.28 5.53 6.64-5.53 13.29-5.53 6.64 5.53 13.28 5.53 6.64-5.53 13.28-5.53 6.64 5.53 13.28 5.53 6.64-5.53 13.28-5.53 6.64 5.53 13.28 5.53 6.64-5.53 13.29-5.53 6.64 5.53 13.28 5.53 6.64-5.53 13.28-5.53 6.64 5.53 13.28 5.53 6.64-5.53 13.29-5.53 6.64 5.53 13.28 5.53 6.64-5.53 13.28-5.53 6.64 5.53 13.28 5.53 6.64-5.53 13.29-5.53 6.64 5.53 13.28 5.53 6.64-5.53 13.28-5.53 6.64 5.53 13.29 5.53 6.64-5.53 13.29-5.53 6.64 5.53 13.29 5.53 6.64-5.53 13.29-5.53 6.64 5.53 13.29 5.53 6.64-5.53 13.28-5.53 6.64 5.53 13.29 5.53 6.65-5.53 13.29-5.53 6.64 5.53 13.29 5.53 6.65-5.53 13.3-5.53 6.65 5.53 13.3 5.53M0 182.39c6.64 0 6.64 5.53 13.28 5.53S20 182.4 26.6 182.4s6.64 5.53 13.28 5.53 6.64-5.53 13.29-5.53 6.64 5.53 13.28 5.53 6.64-5.53 13.28-5.53 6.64 5.53 13.28 5.53 6.64-5.53 13.28-5.53 6.64 5.53 13.28 5.53 6.64-5.53 13.29-5.53 6.64 5.53 13.28 5.53 6.64-5.53 13.28-5.53 6.64 5.53 13.28 5.53 6.64-5.53 13.29-5.53 6.64 5.53 13.28 5.53 6.64-5.53 13.28-5.53 6.64 5.53 13.28 5.53 6.64-5.53 13.29-5.53 6.64 5.53 13.28 5.53 6.64-5.53 13.28-5.53 6.64 5.53 13.29 5.53 6.64-5.53 13.29-5.53 6.64 5.53 13.29 5.53 6.64-5.53 13.29-5.53 6.64 5.53 13.29 5.53 6.64-5.53 13.28-5.53 6.64 5.53 13.29 5.53 6.65-5.53 13.29-5.53 6.66 5.6 13.31 5.6 6.65-5.53 13.3-5.53 6.65 5.53 13.3 5.53M0 203.47c6.64 0 6.64 5.53 13.28 5.53s6.64-5.53 13.29-5.53S33.24 209 39.88 209s6.64-5.53 13.29-5.53S59.81 209 66.45 209s6.64-5.53 13.28-5.53S86.37 209 93 209s6.64-5.53 13.28-5.53 6.64 5.53 13.28 5.53 6.64-5.53 13.29-5.53 6.64 5.53 13.28 5.53 6.64-5.53 13.28-5.53 6.64 5.53 13.28 5.53 6.64-5.53 13.29-5.53 6.64 5.53 13.28 5.53 6.64-5.53 13.28-5.53 6.64 5.53 13.28 5.53 6.64-5.53 13.29-5.53 6.64 5.53 13.28 5.53 6.64-5.53 13.28-5.53S272.35 209 279 209s6.64-5.53 13.29-5.53 6.64 5.53 13.29 5.53 6.64-5.53 13.29-5.53 6.63 5.53 13.28 5.53 6.64-5.53 13.28-5.53 6.64 5.53 13.29 5.53 6.65-5.53 13.29-5.53 6.64 5.53 13.29 5.53 6.65-5.53 13.3-5.53 6.65 5.53 13.3 5.53M0 224.55c6.64 0 6.64 5.53 13.28 5.53s6.64-5.53 13.29-5.53 6.64 5.53 13.28 5.53 6.64-5.53 13.29-5.53 6.64 5.53 13.28 5.53 6.64-5.53 13.28-5.53 6.64 5.53 13.28 5.53 6.64-5.53 13.28-5.53 6.64 5.53 13.28 5.53 6.64-5.53 13.29-5.53 6.64 5.53 13.28 5.53 6.64-5.53 13.28-5.53 6.64 5.53 13.28 5.53 6.64-5.53 13.29-5.53 6.64 5.53 13.28 5.53 6.64-5.53 13.28-5.53 6.64 5.53 13.28 5.53 6.64-5.53 13.29-5.53 6.64 5.53 13.28 5.53 6.64-5.53 13.28-5.53 6.64 5.53 13.29 5.53 6.64-5.53 13.29-5.53 6.64 5.53 13.29 5.53 6.64-5.53 13.29-5.53 6.64 5.53 13.29 5.53 6.64-5.53 13.28-5.53 6.64 5.53 13.29 5.53 6.65-5.53 13.29-5.53 6.64 5.53 13.29 5.53 6.65-5.53 13.3-5.53 6.65 5.53 13.3 5.53M0 245.62c6.64 0 6.64 5.53 13.28 5.53s6.64-5.53 13.29-5.53 6.64 5.53 13.28 5.53 6.64-5.53 13.29-5.53 6.64 5.53 13.28 5.53 6.64-5.53 13.28-5.53 6.64 5.53 13.28 5.53 6.64-5.53 13.28-5.53 6.64 5.53 13.28 5.53 6.64-5.53 13.29-5.53 6.64 5.53 13.28 5.53 6.64-5.53 13.28-5.53 6.64 5.53 13.28 5.53 6.64-5.53 13.29-5.53 6.64 5.53 13.28 5.53 6.64-5.53 13.28-5.53 6.64 5.53 13.28 5.53 6.64-5.53 13.29-5.53 6.64 5.53 13.28 5.53 6.64-5.53 13.28-5.53 6.64 5.53 13.29 5.53 6.64-5.53 13.29-5.53 6.64 5.53 13.29 5.53 6.64-5.53 13.29-5.53 6.64 5.53 13.29 5.53 6.64-5.53 13.28-5.53 6.64 5.53 13.29 5.53 6.65-5.53 13.29-5.53 6.64 5.53 13.29 5.53 6.65-5.53 13.3-5.53 6.65 5.53 13.3 5.53M0 266.7c6.64 0 6.64 5.53 13.28 5.53s6.64-5.53 13.29-5.53 6.64 5.53 13.28 5.53 6.64-5.53 13.29-5.53 6.64 5.53 13.28 5.53 6.64-5.53 13.28-5.53 6.64 5.53 13.28 5.53 6.64-5.53 13.28-5.53 6.64 5.53 13.28 5.53 6.64-5.53 13.29-5.53 6.64 5.53 13.28 5.53 6.64-5.53 13.28-5.53 6.64 5.53 13.28 5.53 6.64-5.53 13.29-5.53 6.64 5.53 13.28 5.53 6.64-5.53 13.28-5.53 6.64 5.53 13.28 5.53 6.64-5.53 13.29-5.53 6.64 5.53 13.28 5.53 6.64-5.53 13.28-5.53 6.64 5.53 13.29 5.53 6.64-5.53 13.29-5.53 6.64 5.53 13.29 5.53 6.64-5.53 13.29-5.53 6.64 5.53 13.29 5.53 6.64-5.53 13.28-5.53 6.64 5.53 13.29 5.53 6.65-5.53 13.29-5.53 6.64 5.53 13.29 5.53 6.65-5.53 13.3-5.53 6.65 5.53 13.3 5.53M0 287.78c6.64 0 6.64 5.53 13.28 5.53s6.64-5.53 13.29-5.53 6.64 5.53 13.28 5.53 6.64-5.53 13.29-5.53 6.64 5.53 13.28 5.53 6.64-5.53 13.28-5.53 6.64 5.53 13.28 5.53 6.64-5.53 13.28-5.53 6.64 5.53 13.28 5.53 6.64-5.53 13.29-5.53 6.64 5.53 13.28 5.53 6.64-5.53 13.28-5.53 6.64 5.53 13.28 5.53 6.64-5.53 13.29-5.53 6.64 5.53 13.28 5.53 6.64-5.53 13.28-5.53 6.64 5.53 13.28 5.53 6.64-5.53 13.29-5.53 6.64 5.53 13.28 5.53 6.64-5.53 13.28-5.53 6.64 5.53 13.29 5.53 6.64-5.53 13.29-5.53 6.64 5.53 13.29 5.53 6.64-5.53 13.29-5.53 6.64 5.53 13.29 5.53 6.64-5.53 13.28-5.53 6.64 5.53 13.29 5.53 6.65-5.53 13.29-5.53 6.64 5.53 13.29 5.53 6.65-5.53 13.3-5.53 6.65 5.53 13.3 5.53M0 308.85c6.64 0 6.64 5.53 13.28 5.53s6.64-5.53 13.29-5.53 6.64 5.53 13.28 5.53 6.64-5.53 13.29-5.53 6.64 5.53 13.28 5.53 6.64-5.53 13.28-5.53 6.64 5.53 13.28 5.53 6.64-5.53 13.28-5.53 6.64 5.53 13.28 5.53 6.64-5.53 13.29-5.53 6.64 5.53 13.28 5.53 6.64-5.53 13.28-5.53 6.64 5.53 13.28 5.53 6.64-5.53 13.29-5.53 6.64 5.53 13.28 5.53 6.64-5.53 13.28-5.53 6.64 5.53 13.28 5.53 6.64-5.53 13.29-5.53 6.64 5.53 13.28 5.53 6.64-5.53 13.28-5.53 6.64 5.53 13.29 5.53 6.64-5.53 13.29-5.53 6.64 5.53 13.29 5.53 6.64-5.53 13.29-5.53 6.64 5.53 13.29 5.53 6.64-5.53 13.28-5.53 6.64 5.53 13.29 5.53 6.65-5.53 13.29-5.53 6.64 5.53 13.29 5.53 6.65-5.53 13.3-5.53 6.65 5.53 13.3 5.53M0 329.93c6.64 0 6.64 5.53 13.28 5.53s6.64-5.53 13.29-5.53 6.64 5.53 13.28 5.53 6.64-5.53 13.29-5.53 6.64 5.53 13.28 5.53 6.64-5.53 13.28-5.53 6.64 5.53 13.28 5.53 6.64-5.53 13.28-5.53 6.64 5.53 13.28 5.53 6.64-5.53 13.29-5.53 6.64 5.53 13.28 5.53 6.64-5.53 13.28-5.53 6.64 5.53 13.28 5.53 6.64-5.53 13.29-5.53 6.64 5.53 13.28 5.53 6.64-5.53 13.28-5.53 6.64 5.53 13.28 5.53 6.64-5.53 13.29-5.53 6.64 5.53 13.28 5.53 6.64-5.53 13.28-5.53 6.64 5.53 13.29 5.53 6.64-5.53 13.29-5.53 6.64 5.53 13.29 5.53 6.64-5.53 13.29-5.53 6.64 5.53 13.29 5.53 6.64-5.53 13.28-5.53 6.64 5.53 13.29 5.53S365.35 330 372 330s6.64 5.53 13.29 5.53 6.65-5.53 13.3-5.53 6.65 5.53 13.3 5.53M0 351c6.64 0 6.64 5.53 13.28 5.53S19.94 351 26.59 351s6.64 5.53 13.28 5.53S46.51 351 53.16 351s6.64 5.53 13.28 5.53S73.08 351 79.72 351s6.64 5.53 13.28 5.53 6.65-5.53 13.29-5.53 6.64 5.53 13.28 5.53 6.64-5.53 13.29-5.53 6.64 5.53 13.28 5.53 6.64-5.53 13.28-5.53 6.64 5.53 13.28 5.53S179.36 351 186 351s6.64 5.53 13.28 5.53 6.64-5.53 13.28-5.53 6.64 5.53 13.28 5.53 6.64-5.53 13.29-5.53 6.64 5.53 13.28 5.53 6.65-5.53 13.29-5.53 6.64 5.53 13.29 5.53 6.64-5.53 13.29-5.53 6.64 5.53 13.29 5.53 6.64-5.53 13.29-5.53 6.64 5.53 13.29 5.53 6.64-5.53 13.28-5.53 6.64 5.53 13.29 5.53S365.35 351 372 351s6.64 5.53 13.29 5.53 6.65-5.53 13.3-5.53 6.65 5.53 13.3 5.53M0 372.08c6.64 0 6.64 5.53 13.28 5.53s6.64-5.53 13.29-5.53 6.64 5.53 13.28 5.53 6.64-5.53 13.29-5.53 6.64 5.53 13.28 5.53 6.64-5.53 13.28-5.53 6.64 5.53 13.28 5.53 6.64-5.53 13.28-5.53 6.64 5.53 13.28 5.53 6.64-5.53 13.29-5.53 6.64 5.53 13.28 5.53 6.64-5.53 13.28-5.53 6.64 5.53 13.28 5.53 6.64-5.53 13.29-5.53 6.64 5.53 13.28 5.53 6.64-5.53 13.28-5.53 6.64 5.53 13.28 5.53 6.64-5.53 13.29-5.53 6.64 5.53 13.28 5.53 6.64-5.53 13.28-5.53 6.64 5.53 13.29 5.53 6.64-5.53 13.29-5.53 6.64 5.53 13.29 5.53 6.64-5.53 13.29-5.53 6.64 5.53 13.29 5.53 6.64-5.53 13.28-5.53 6.64 5.53 13.29 5.53 6.65-5.53 13.29-5.53 6.64 5.53 13.29 5.53 6.65-5.53 13.3-5.53 6.65 5.53 13.3 5.53M0 393.16c6.64 0 6.64 5.53 13.28 5.53s6.64-5.53 13.29-5.53 6.64 5.53 13.28 5.53 6.64-5.53 13.29-5.53 6.64 5.53 13.28 5.53 6.64-5.53 13.28-5.53 6.66 5.54 13.3 5.54 6.64-5.53 13.28-5.53 6.64 5.53 13.28 5.53 6.64-5.53 13.29-5.53 6.64 5.53 13.28 5.53 6.64-5.53 13.28-5.53 6.64 5.53 13.28 5.53 6.64-5.53 13.29-5.53 6.64 5.53 13.28 5.53 6.64-5.53 13.28-5.53 6.64 5.53 13.28 5.53 6.64-5.53 13.29-5.53 6.64 5.53 13.28 5.53 6.64-5.53 13.28-5.53 6.64 5.53 13.29 5.53 6.64-5.53 13.29-5.53 6.64 5.53 13.29 5.53 6.64-5.53 13.29-5.53 6.64 5.53 13.29 5.53 6.64-5.53 13.28-5.53 6.64 5.53 13.29 5.53 6.65-5.53 13.29-5.53 6.64 5.53 13.29 5.53 6.65-5.53 13.3-5.53 6.65 5.53 13.3 5.53M0 414.23c6.64 0 6.64 5.53 13.28 5.53s6.64-5.53 13.29-5.53 6.64 5.53 13.28 5.53 6.64-5.53 13.29-5.53 6.64 5.53 13.28 5.53 6.64-5.53 13.28-5.53 6.64 5.53 13.28 5.53 6.64-5.53 13.28-5.53 6.64 5.53 13.28 5.53 6.64-5.53 13.29-5.53 6.64 5.53 13.28 5.53 6.64-5.53 13.28-5.53 6.64 5.53 13.28 5.53 6.64-5.53 13.29-5.53 6.64 5.53 13.28 5.53 6.64-5.53 13.28-5.53 6.64 5.53 13.28 5.53 6.64-5.53 13.29-5.53 6.64 5.53 13.28 5.53 6.64-5.53 13.28-5.53 6.64 5.53 13.29 5.53 6.64-5.53 13.29-5.53 6.64 5.53 13.29 5.53 6.64-5.53 13.29-5.53 6.64 5.53 13.29 5.53 6.64-5.53 13.28-5.53 6.64 5.53 13.29 5.53 6.65-5.53 13.29-5.53 6.64 5.53 13.29 5.53 6.65-5.53 13.3-5.53 6.65 5.53 13.3 5.53M0 435.31c6.64 0 6.64 5.53 13.28 5.53s6.64-5.53 13.29-5.53 6.64 5.53 13.28 5.53 6.64-5.53 13.29-5.53 6.64 5.53 13.28 5.53 6.64-5.53 13.28-5.53 6.64 5.53 13.28 5.53 6.64-5.53 13.28-5.53 6.64 5.53 13.28 5.53 6.64-5.53 13.29-5.53 6.64 5.53 13.28 5.53 6.64-5.53 13.28-5.53 6.64 5.53 13.28 5.53 6.64-5.53 13.29-5.53 6.64 5.53 13.28 5.53 6.64-5.53 13.28-5.53 6.64 5.53 13.28 5.53 6.64-5.53 13.29-5.53 6.64 5.53 13.28 5.53 6.64-5.53 13.28-5.53 6.64 5.53 13.29 5.53 6.64-5.53 13.29-5.53 6.64 5.53 13.29 5.53 6.64-5.53 13.29-5.53 6.64 5.53 13.29 5.53 6.64-5.53 13.28-5.53 6.64 5.53 13.29 5.53 6.65-5.53 13.29-5.53 6.64 5.53 13.29 5.53 6.65-5.53 13.3-5.53 6.65 5.53 13.3 5.53M0 456.39c6.64 0 6.64 5.53 13.28 5.53s6.64-5.53 13.29-5.53 6.64 5.53 13.28 5.53 6.64-5.53 13.29-5.53 6.64 5.53 13.28 5.53 6.64-5.53 13.28-5.53 6.64 5.53 13.28 5.53 6.64-5.53 13.28-5.53 6.64 5.53 13.28 5.53 6.64-5.53 13.29-5.53 6.64 5.53 13.28 5.53 6.64-5.53 13.28-5.53 6.64 5.53 13.28 5.53 6.64-5.53 13.29-5.53 6.64 5.53 13.28 5.53 6.64-5.53 13.28-5.53 6.64 5.53 13.28 5.53 6.64-5.53 13.29-5.53 6.64 5.53 13.28 5.53 6.64-5.53 13.28-5.53 6.64 5.53 13.29 5.53 6.64-5.53 13.29-5.53 6.64 5.53 13.29 5.53 6.64-5.53 13.29-5.53 6.64 5.53 13.29 5.53 6.64-5.53 13.28-5.53 6.64 5.53 13.29 5.53 6.65-5.53 13.29-5.53 6.64 5.53 13.29 5.53 6.65-5.53 13.3-5.53 6.65 5.53 13.3 5.53M0 477.46c6.64 0 6.64 5.53 13.28 5.53s6.64-5.53 13.29-5.53S33.22 483 39.86 483s6.64-5.53 13.29-5.53S59.79 483 66.43 483s6.64-5.53 13.28-5.53S86.36 483 93 483s6.64-5.53 13.28-5.53 6.64 5.53 13.28 5.53 6.64-5.53 13.29-5.53 6.65 5.53 13.29 5.53 6.64-5.53 13.28-5.53 6.64 5.53 13.28 5.53 6.64-5.53 13.29-5.53 6.64 5.53 13.28 5.53 6.64-5.53 13.28-5.53 6.65 5.53 13.29 5.53 6.64-5.53 13.29-5.53 6.64 5.53 13.28 5.53 6.64-5.53 13.28-5.53S272.34 483 279 483s6.64-5.53 13.29-5.53 6.64 5.53 13.29 5.53 6.64-5.53 13.29-5.53 6.64 5.53 13.29 5.53 6.64-5.53 13.28-5.53 6.62 5.53 13.26 5.53 6.65-5.53 13.29-5.53 6.64 5.53 13.29 5.53 6.65-5.53 13.3-5.53 6.65 5.53 13.3 5.53M0 498.54c6.64 0 6.64 5.53 13.28 5.53s6.64-5.53 13.29-5.53 6.64 5.53 13.28 5.53 6.64-5.53 13.29-5.53 6.64 5.53 13.28 5.53 6.64-5.53 13.28-5.53 6.64 5.53 13.28 5.53 6.64-5.53 13.28-5.53 6.64 5.53 13.28 5.53 6.64-5.53 13.29-5.53 6.64 5.53 13.28 5.53 6.64-5.53 13.28-5.53 6.64 5.53 13.28 5.53 6.64-5.53 13.29-5.53 6.64 5.53 13.28 5.53 6.64-5.53 13.28-5.53 6.64 5.53 13.28 5.53 6.64-5.53 13.29-5.53 6.64 5.53 13.28 5.53 6.64-5.53 13.28-5.53 6.64 5.53 13.29 5.53 6.64-5.53 13.29-5.53 6.64 5.53 13.29 5.53 6.64-5.53 13.29-5.53 6.64 5.53 13.29 5.53 6.64-5.53 13.28-5.53 6.64 5.53 13.29 5.53 6.65-5.53 13.29-5.53 6.64 5.53 13.29 5.53 6.65-5.53 13.3-5.53 6.65 5.53 13.3 5.53M0 519.62c6.64 0 6.64 5.53 13.28 5.53s6.64-5.53 13.29-5.53 6.64 5.53 13.28 5.53 6.64-5.53 13.29-5.53 6.64 5.53 13.28 5.53 6.64-5.53 13.28-5.53 6.64 5.53 13.28 5.53 6.64-5.53 13.28-5.53 6.64 5.53 13.28 5.53 6.64-5.53 13.29-5.53 6.64 5.53 13.28 5.53 6.64-5.53 13.28-5.53 6.64 5.53 13.28 5.53 6.64-5.53 13.29-5.53 6.64 5.53 13.28 5.53 6.64-5.53 13.28-5.53 6.64 5.53 13.28 5.53 6.64-5.53 13.29-5.53 6.64 5.53 13.28 5.53 6.64-5.53 13.28-5.53 6.64 5.53 13.29 5.53 6.64-5.53 13.29-5.53 6.64 5.53 13.29 5.53 6.64-5.53 13.29-5.53 6.64 5.53 13.29 5.53 6.64-5.53 13.28-5.53 6.64 5.53 13.29 5.53 6.65-5.53 13.29-5.53 6.64 5.53 13.29 5.53 6.65-5.53 13.3-5.53 6.65 5.53 13.3 5.53M0 540.69c6.64 0 6.64 5.53 13.28 5.53s6.64-5.53 13.29-5.53 6.64 5.53 13.28 5.53 6.64-5.53 13.29-5.53 6.64 5.53 13.28 5.53 6.64-5.53 13.28-5.53 6.64 5.53 13.28 5.53 6.64-5.53 13.28-5.53 6.64 5.53 13.28 5.53 6.64-5.53 13.29-5.53 6.64 5.53 13.28 5.53 6.64-5.53 13.28-5.53 6.64 5.53 13.28 5.53 6.64-5.53 13.29-5.53 6.64 5.53 13.28 5.53 6.64-5.53 13.28-5.53 6.64 5.53 13.28 5.53 6.64-5.53 13.29-5.53 6.64 5.53 13.28 5.53 6.64-5.53 13.28-5.53 6.64 5.53 13.29 5.53 6.64-5.53 13.29-5.53 6.64 5.53 13.29 5.53 6.64-5.53 13.29-5.53 6.64 5.53 13.29 5.53 6.64-5.53 13.28-5.53 6.64 5.53 13.29 5.53 6.65-5.53 13.29-5.53 6.64 5.53 13.29 5.53 6.65-5.53 13.3-5.53 6.65 5.53 13.3 5.53M0 561.77c6.64 0 6.64 5.53 13.28 5.53s6.64-5.53 13.29-5.53 6.64 5.53 13.28 5.53 6.64-5.53 13.29-5.53 6.64 5.53 13.28 5.53 6.64-5.53 13.28-5.53 6.64 5.53 13.28 5.53 6.64-5.53 13.28-5.53 6.64 5.53 13.28 5.53 6.64-5.53 13.29-5.53 6.64 5.53 13.28 5.53 6.64-5.53 13.28-5.53 6.64 5.53 13.28 5.53 6.64-5.53 13.29-5.53 6.64 5.53 13.28 5.53 6.64-5.53 13.28-5.53 6.64 5.53 13.28 5.53 6.64-5.53 13.29-5.53 6.64 5.53 13.28 5.53 6.64-5.53 13.28-5.53 6.64 5.53 13.29 5.53 6.64-5.53 13.29-5.53 6.64 5.53 13.29 5.53 6.64-5.53 13.29-5.53 6.64 5.53 13.29 5.53 6.64-5.53 13.28-5.53 6.64 5.53 13.29 5.53 6.65-5.53 13.29-5.53 6.64 5.53 13.29 5.53 6.65-5.53 13.3-5.53 6.65 5.53 13.3 5.53M0 582.85c6.64 0 6.64 5.53 13.28 5.53s6.64-5.53 13.29-5.53 6.64 5.53 13.28 5.53 6.64-5.53 13.29-5.53 6.64 5.53 13.28 5.53 6.64-5.53 13.28-5.53 6.64 5.53 13.28 5.53 6.64-5.53 13.28-5.53 6.64 5.53 13.28 5.53 6.64-5.53 13.29-5.53 6.64 5.53 13.28 5.53 6.64-5.53 13.28-5.53 6.64 5.53 13.28 5.53 6.64-5.53 13.29-5.53 6.64 5.53 13.28 5.53 6.64-5.53 13.28-5.53 6.64 5.53 13.28 5.53 6.64-5.53 13.29-5.53 6.64 5.53 13.28 5.53 6.64-5.53 13.28-5.53 6.64 5.53 13.29 5.53 6.64-5.53 13.29-5.53 6.64 5.53 13.29 5.53 6.64-5.53 13.29-5.53 6.64 5.53 13.29 5.53 6.64-5.53 13.28-5.53 6.64 5.53 13.29 5.53 6.65-5.53 13.29-5.53 6.64 5.53 13.29 5.53 6.65-5.53 13.3-5.53 6.65 5.53 13.3 5.53M0 603.92c6.64 0 6.64 5.53 13.28 5.53s6.64-5.53 13.29-5.53 6.64 5.53 13.28 5.53 6.64-5.53 13.29-5.53 6.64 5.53 13.28 5.53 6.64-5.53 13.28-5.53 6.64 5.53 13.28 5.53 6.64-5.53 13.28-5.53 6.64 5.53 13.28 5.53 6.64-5.53 13.29-5.53 6.64 5.53 13.28 5.53 6.64-5.53 13.28-5.53 6.64 5.53 13.28 5.53 6.64-5.53 13.29-5.53 6.64 5.53 13.28 5.53 6.64-5.53 13.28-5.53 6.64 5.53 13.28 5.53 6.64-5.53 13.29-5.53 6.64 5.53 13.28 5.53 6.64-5.53 13.28-5.53 6.64 5.53 13.29 5.53 6.64-5.53 13.29-5.53 6.64 5.53 13.29 5.53 6.64-5.53 13.29-5.53 6.64 5.53 13.29 5.53 6.64-5.53 13.28-5.53 6.64 5.53 13.29 5.53 6.65-5.53 13.29-5.53 6.64 5.53 13.29 5.53 6.65-5.53 13.3-5.53 6.65 5.53 13.3 5.53M0 625c6.64 0 6.64 5.53 13.28 5.53S19.93 625 26.57 625s6.64 5.53 13.28 5.53S46.5 625 53.14 625s6.64 5.53 13.28 5.53S73.06 625 79.71 625s6.64 5.53 13.28 5.53 6.64-5.53 13.28-5.53 6.64 5.53 13.28 5.53 6.65-5.53 13.3-5.53 6.64 5.53 13.28 5.53 6.64-5.53 13.28-5.53 6.64 5.53 13.28 5.53S179.34 625 186 625s6.64 5.53 13.28 5.53 6.64-5.53 13.28-5.53 6.64 5.53 13.28 5.53 6.64-5.53 13.29-5.53 6.64 5.53 13.28 5.53S259 625 265.69 625s6.64 5.53 13.29 5.53 6.64-5.53 13.29-5.53 6.64 5.53 13.29 5.53 6.64-5.53 13.29-5.53 6.64 5.53 13.29 5.53 6.64-5.53 13.28-5.53 6.64 5.53 13.29 5.53S365.34 625 372 625s6.64 5.53 13.29 5.53 6.65-5.53 13.3-5.53 6.65 5.53 13.3 5.53M0 646.07c6.64 0 6.64 5.53 13.28 5.53s6.64-5.53 13.29-5.53 6.64 5.53 13.28 5.53 6.64-5.53 13.29-5.53 6.64 5.53 13.28 5.53 6.64-5.53 13.28-5.53 6.64 5.53 13.28 5.53 6.64-5.53 13.28-5.53 6.64 5.53 13.28 5.53 6.64-5.53 13.29-5.53 6.64 5.53 13.28 5.53 6.64-5.53 13.28-5.53 6.64 5.53 13.28 5.53 6.64-5.53 13.29-5.53 6.64 5.53 13.28 5.53 6.64-5.53 13.28-5.53 6.64 5.53 13.28 5.53 6.64-5.53 13.29-5.53 6.64 5.53 13.28 5.53 6.64-5.53 13.28-5.53 6.64 5.53 13.29 5.53 6.64-5.53 13.29-5.53 6.64 5.53 13.29 5.53 6.64-5.53 13.29-5.53 6.64 5.53 13.29 5.53 6.64-5.53 13.28-5.53 6.64 5.53 13.29 5.53 6.65-5.53 13.29-5.53 6.64 5.53 13.29 5.53 6.65-5.53 13.3-5.53 6.65 5.53 13.3 5.53"/></g></g></svg>