<?xml version="1.0" encoding="UTF-8" standalone="no"?>
<svg width="402px" height="519px" viewBox="0 0 402 519" version="1.1" xmlns="http://www.w3.org/2000/svg" xmlns:xlink="http://www.w3.org/1999/xlink">
    <!-- Generator: Sketch 39.1 (31720) - http://www.bohemiancoding.com/sketch -->
    <title>background</title>
    <desc>Created with Sketch.</desc>
    <defs></defs>
    <g id="Assets" stroke="none" stroke-width="1" fill="none" fill-rule="evenodd" stroke-linecap="round" opacity="0.13386194" stroke-linejoin="round">
        <g id="background" stroke="#000000">
            <g id="water" transform="translate(0.000000, -34.000000)">
                <path d="M0.238151659,547.367312 C7.95950474,547.367312 7.95950474,556.894993 15.6808578,556.894993 C23.4022109,556.894993 23.4022109,547.367312 31.123564,547.367312 C38.8444408,547.367312 38.8444408,556.894993 46.5653175,556.894993 C54.2866706,556.894993 54.2866706,547.367312 62.0085,547.367312 C69.7308057,547.367312 69.7308057,556.894993 77.4531114,556.894993 C85.1749408,556.894993 85.1749408,547.367312 92.8962938,547.367312 C100.617647,547.367312 100.617647,556.894993 108.339476,556.894993 C116.060829,556.894993 116.060829,547.367312 123.782182,547.367312 C131.504012,547.367312 131.504012,556.894993 139.225841,556.894993 C146.947671,556.894993 146.947671,547.367312 154.669976,547.367312 C162.392758,547.367312 162.392758,556.894993 170.11554,556.894993 C177.83737,556.894993 177.83737,547.367312 185.559675,547.367312 C193.281981,547.367312 193.281981,556.894993 201.004763,556.894993 C208.727069,556.894993 208.727069,547.367312 216.448898,547.367312 C224.171204,547.367312 224.171204,556.894993 231.893986,556.894993 C239.616291,556.894993 239.616291,547.367312 247.339073,547.367312 C255.061855,547.367312 255.061855,556.894993 262.784637,556.894993 C270.507896,556.894993 270.507896,547.367312 278.230678,547.367312 C285.952507,547.367312 285.952507,556.894993 293.674813,556.894993 C301.396642,556.894993 301.396642,547.367312 309.118948,547.367312 C316.84173,547.367312 316.84173,556.894993 324.564988,556.894993 C332.288246,556.894993 332.288246,547.367312 340.011028,547.367312 C347.734763,547.367312 347.734763,556.894993 355.458021,556.894993 C363.18128,556.894993 363.18128,547.367312 370.904538,547.367312 C378.629225,547.367312 378.629225,556.894993 386.353436,556.894993 C394.077647,556.894993 394.077647,547.367312 401.801858,547.367312" id="Stroke-7"></path>
                <path d="M0.238151659,537.419495 C7.95950474,537.419495 7.95950474,546.947176 15.6808578,546.947176 C23.4022109,546.947176 23.4022109,537.419495 31.123564,537.419495 C38.8444408,537.419495 38.8444408,546.947176 46.5653175,546.947176 C54.2866706,546.947176 54.2866706,537.419495 62.0085,537.419495 C69.7308057,537.419495 69.7308057,546.947176 77.4531114,546.947176 C85.1749408,546.947176 85.1749408,537.419495 92.8962938,537.419495 C100.617647,537.419495 100.617647,546.947176 108.339476,546.947176 C116.060829,546.947176 116.060829,537.419495 123.782182,537.419495 C131.504012,537.419495 131.504012,546.947176 139.225841,546.947176 C146.947671,546.947176 146.947671,537.419495 154.669976,537.419495 C162.392758,537.419495 162.392758,546.947176 170.11554,546.947176 C177.83737,546.947176 177.83737,537.419495 185.559675,537.419495 C193.281981,537.419495 193.281981,546.947176 201.004763,546.947176 C208.727069,546.947176 208.727069,537.419495 216.448898,537.419495 C224.171204,537.419495 224.171204,546.947176 231.893986,546.947176 C239.616291,546.947176 239.616291,537.419495 247.339073,537.419495 C255.061855,537.419495 255.061855,546.947176 262.784637,546.947176 C270.507896,546.947176 270.507896,537.419495 278.230678,537.419495 C285.952507,537.419495 285.952507,546.947176 293.674813,546.947176 C301.396642,546.947176 301.396642,537.419495 309.118948,537.419495 C316.84173,537.419495 316.84173,546.947176 324.564988,546.947176 C332.288246,546.947176 332.288246,537.419495 340.011028,537.419495 C347.734763,537.419495 347.734763,546.947176 355.458021,546.947176 C363.18128,546.947176 363.18128,537.419495 370.904538,537.419495 C378.629225,537.419495 378.629225,546.947176 386.353436,546.947176 C394.077647,546.947176 394.077647,537.419495 401.801858,537.419495" id="Stroke-9"></path>
                <path d="M0.238151659,527.471725 C7.95950474,527.471725 7.95950474,536.999407 15.6808578,536.999407 C23.4022109,536.999407 23.4022109,527.471725 31.123564,527.471725 C38.8444408,527.471725 38.8444408,536.999407 46.5653175,536.999407 C54.2866706,536.999407 54.2866706,527.471725 62.0085,527.471725 C69.7308057,527.471725 69.7308057,536.999407 77.4531114,536.999407 C85.1749408,536.999407 85.1749408,527.471725 92.8962938,527.471725 C100.617647,527.471725 100.617647,536.999407 108.339476,536.999407 C116.060829,536.999407 116.060829,527.471725 123.782182,527.471725 C131.504012,527.471725 131.504012,536.999407 139.225841,536.999407 C146.947671,536.999407 146.947671,527.471725 154.669976,527.471725 C162.392758,527.471725 162.392758,536.999407 170.11554,536.999407 C177.83737,536.999407 177.83737,527.471725 185.559675,527.471725 C193.281981,527.471725 193.281981,536.999407 201.004763,536.999407 C208.727069,536.999407 208.727069,527.471725 216.448898,527.471725 C224.171204,527.471725 224.171204,536.999407 231.893986,536.999407 C239.616291,536.999407 239.616291,527.471725 247.339073,527.471725 C255.061855,527.471725 255.061855,536.999407 262.784637,536.999407 C270.507896,536.999407 270.507896,527.471725 278.230678,527.471725 C285.952507,527.471725 285.952507,536.999407 293.674813,536.999407 C301.396642,536.999407 301.396642,527.471725 309.118948,527.471725 C316.84173,527.471725 316.84173,536.999407 324.564988,536.999407 C332.288246,536.999407 332.288246,527.471725 340.011028,527.471725 C347.734763,527.471725 347.734763,536.999407 355.458021,536.999407 C363.18128,536.999407 363.18128,527.471725 370.904538,527.471725 C378.629225,527.471725 378.629225,536.999407 386.353436,536.999407 C394.077647,536.999407 394.077647,527.471725 401.801858,527.471725" id="Stroke-11"></path>
                <path d="M0.238151659,517.523908 C7.95950474,517.523908 7.95950474,527.05159 15.6808578,527.05159 C23.4022109,527.05159 23.4022109,517.523908 31.123564,517.523908 C38.8444408,517.523908 38.8444408,527.05159 46.5653175,527.05159 C54.2866706,527.05159 54.2866706,517.523908 62.0085,517.523908 C69.7308057,517.523908 69.7308057,527.05159 77.4531114,527.05159 C85.1749408,527.05159 85.1749408,517.523908 92.8962938,517.523908 C100.617647,517.523908 100.617647,527.05159 108.339476,527.05159 C116.060829,527.05159 116.060829,517.523908 123.782182,517.523908 C131.504012,517.523908 131.504012,527.05159 139.225841,527.05159 C146.947671,527.05159 146.947671,517.523908 154.669976,517.523908 C162.392758,517.523908 162.392758,527.05159 170.11554,527.05159 C177.83737,527.05159 177.83737,517.523908 185.559675,517.523908 C193.281981,517.523908 193.281981,527.05159 201.004763,527.05159 C208.727069,527.05159 208.727069,517.523908 216.448898,517.523908 C224.171204,517.523908 224.171204,527.05159 231.893986,527.05159 C239.616291,527.05159 239.616291,517.523908 247.339073,517.523908 C255.061855,517.523908 255.061855,527.05159 262.784637,527.05159 C270.507896,527.05159 270.507896,517.523908 278.230678,517.523908 C285.952507,517.523908 285.952507,527.05159 293.674813,527.05159 C301.396642,527.05159 301.396642,517.523908 309.118948,517.523908 C316.84173,517.523908 316.84173,527.05159 324.564988,527.05159 C332.288246,527.05159 332.288246,517.523908 340.011028,517.523908 C347.734763,517.523908 347.734763,527.05159 355.458021,527.05159 C363.18128,527.05159 363.18128,517.523908 370.904538,517.523908 C378.629225,517.523908 378.629225,527.05159 386.353436,527.05159 C394.077647,527.05159 394.077647,517.523908 401.801858,517.523908" id="Stroke-13"></path>
                <path d="M0.238151659,507.576139 C7.95950474,507.576139 7.95950474,517.10382 15.6808578,517.10382 C23.4022109,517.10382 23.4022109,507.576139 31.123564,507.576139 C38.8444408,507.576139 38.8444408,517.10382 46.5653175,517.10382 C54.2866706,517.10382 54.2866706,507.576139 62.0085,507.576139 C69.7308057,507.576139 69.7308057,517.10382 77.4531114,517.10382 C85.1749408,517.10382 85.1749408,507.576139 92.8962938,507.576139 C100.617647,507.576139 100.617647,517.10382 108.339476,517.10382 C116.060829,517.10382 116.060829,507.576139 123.782182,507.576139 C131.504012,507.576139 131.504012,517.10382 139.225841,517.10382 C146.947671,517.10382 146.947671,507.576139 154.669976,507.576139 C162.392758,507.576139 162.392758,517.10382 170.11554,517.10382 C177.83737,517.10382 177.83737,507.576139 185.559675,507.576139 C193.281981,507.576139 193.281981,517.10382 201.004763,517.10382 C208.727069,517.10382 208.727069,507.576139 216.448898,507.576139 C224.171204,507.576139 224.171204,517.10382 231.893986,517.10382 C239.616291,517.10382 239.616291,507.576139 247.339073,507.576139 C255.061855,507.576139 255.061855,517.10382 262.784637,517.10382 C270.507896,517.10382 270.507896,507.576139 278.230678,507.576139 C285.952507,507.576139 285.952507,517.10382 293.674813,517.10382 C301.396642,517.10382 301.396642,507.576139 309.118948,507.576139 C316.84173,507.576139 316.84173,517.10382 324.564988,517.10382 C332.288246,517.10382 332.288246,507.576139 340.011028,507.576139 C347.734763,507.576139 347.734763,517.10382 355.458021,517.10382 C363.18128,517.10382 363.18128,507.576139 370.904538,507.576139 C378.629225,507.576139 378.629225,517.10382 386.353436,517.10382 C394.077647,517.10382 394.077647,507.576139 401.801858,507.576139" id="Stroke-15"></path>
                <path d="M0.238151659,497.628322 C7.95950474,497.628322 7.95950474,507.156003 15.6808578,507.156003 C23.4022109,507.156003 23.4022109,497.628322 31.123564,497.628322 C38.8444408,497.628322 38.8444408,507.156003 46.5653175,507.156003 C54.2866706,507.156003 54.2866706,497.628322 62.0085,497.628322 C69.7308057,497.628322 69.7308057,507.156003 77.4531114,507.156003 C85.1749408,507.156003 85.1749408,497.628322 92.8962938,497.628322 C100.617647,497.628322 100.617647,507.156003 108.339476,507.156003 C116.060829,507.156003 116.060829,497.628322 123.782182,497.628322 C131.504012,497.628322 131.504012,507.156003 139.225841,507.156003 C146.947671,507.156003 146.947671,497.628322 154.669976,497.628322 C162.392758,497.628322 162.392758,507.156003 170.11554,507.156003 C177.83737,507.156003 177.83737,497.628322 185.559675,497.628322 C193.281981,497.628322 193.281981,507.156003 201.004763,507.156003 C208.727069,507.156003 208.727069,497.628322 216.448898,497.628322 C224.171204,497.628322 224.171204,507.156003 231.893986,507.156003 C239.616291,507.156003 239.616291,497.628322 247.339073,497.628322 C255.061855,497.628322 255.061855,507.156003 262.784637,507.156003 C270.507896,507.156003 270.507896,497.628322 278.230678,497.628322 C285.952507,497.628322 285.952507,507.156003 293.674813,507.156003 C301.396642,507.156003 301.396642,497.628322 309.118948,497.628322 C316.84173,497.628322 316.84173,507.156003 324.564988,507.156003 C332.288246,507.156003 332.288246,497.628322 340.011028,497.628322 C347.734763,497.628322 347.734763,507.156003 355.458021,507.156003 C363.18128,507.156003 363.18128,497.628322 370.904538,497.628322 C378.629225,497.628322 378.629225,507.156003 386.353436,507.156003 C394.077647,507.156003 394.077647,497.628322 401.801858,497.628322" id="Stroke-17"></path>
                <path d="M0.238151659,487.680552 C7.95950474,487.680552 7.95950474,497.208233 15.6808578,497.208233 C23.4022109,497.208233 23.4022109,487.680552 31.123564,487.680552 C38.8444408,487.680552 38.8444408,497.208233 46.5653175,497.208233 C54.2866706,497.208233 54.2866706,487.680552 62.0085,487.680552 C69.7308057,487.680552 69.7308057,497.208233 77.4531114,497.208233 C85.1749408,497.208233 85.1749408,487.680552 92.8962938,487.680552 C100.617647,487.680552 100.617647,497.208233 108.339476,497.208233 C116.060829,497.208233 116.060829,487.680552 123.782182,487.680552 C131.504012,487.680552 131.504012,497.208233 139.225841,497.208233 C146.947671,497.208233 146.947671,487.680552 154.669976,487.680552 C162.392758,487.680552 162.392758,497.208233 170.11554,497.208233 C177.83737,497.208233 177.83737,487.680552 185.559675,487.680552 C193.281981,487.680552 193.281981,497.208233 201.004763,497.208233 C208.727069,497.208233 208.727069,487.680552 216.448898,487.680552 C224.171204,487.680552 224.171204,497.208233 231.893986,497.208233 C239.616291,497.208233 239.616291,487.680552 247.339073,487.680552 C255.061855,487.680552 255.061855,497.208233 262.784637,497.208233 C270.507896,497.208233 270.507896,487.680552 278.230678,487.680552 C285.952507,487.680552 285.952507,497.208233 293.674813,497.208233 C301.396642,497.208233 301.396642,487.680552 309.118948,487.680552 C316.84173,487.680552 316.84173,497.208233 324.564988,497.208233 C332.288246,497.208233 332.288246,487.680552 340.011028,487.680552 C347.734763,487.680552 347.734763,497.208233 355.458021,497.208233 C363.18128,497.208233 363.18128,487.680552 370.904538,487.680552 C378.629225,487.680552 378.629225,497.208233 386.353436,497.208233 C394.077647,497.208233 394.077647,487.680552 401.801858,487.680552" id="Stroke-19"></path>
                <path d="M0.238151659,477.732783 C7.95950474,477.732783 7.95950474,487.260464 15.6808578,487.260464 C23.4022109,487.260464 23.4022109,477.732783 31.123564,477.732783 C38.8444408,477.732783 38.8444408,487.260464 46.5653175,487.260464 C54.2866706,487.260464 54.2866706,477.732783 62.0085,477.732783 C69.7308057,477.732783 69.7308057,487.260464 77.4531114,487.260464 C85.1749408,487.260464 85.1749408,477.732783 92.8962938,477.732783 C100.617647,477.732783 100.617647,487.260464 108.339476,487.260464 C116.060829,487.260464 116.060829,477.732783 123.782182,477.732783 C131.504012,477.732783 131.504012,487.260464 139.225841,487.260464 C146.947671,487.260464 146.947671,477.732783 154.669976,477.732783 C162.392758,477.732783 162.392758,487.260464 170.11554,487.260464 C177.83737,487.260464 177.83737,477.732783 185.559675,477.732783 C193.281981,477.732783 193.281981,487.260464 201.004763,487.260464 C208.727069,487.260464 208.727069,477.732783 216.448898,477.732783 C224.171204,477.732783 224.171204,487.260464 231.893986,487.260464 C239.616291,487.260464 239.616291,477.732783 247.339073,477.732783 C255.061855,477.732783 255.061855,487.260464 262.784637,487.260464 C270.507896,487.260464 270.507896,477.732783 278.230678,477.732783 C285.952507,477.732783 285.952507,487.260464 293.674813,487.260464 C301.396642,487.260464 301.396642,477.732783 309.118948,477.732783 C316.84173,477.732783 316.84173,487.260464 324.564988,487.260464 C332.288246,487.260464 332.288246,477.732783 340.011028,477.732783 C347.734763,477.732783 347.734763,487.260464 355.458021,487.260464 C363.18128,487.260464 363.18128,477.732783 370.904538,477.732783 C378.629225,477.732783 378.629225,487.260464 386.353436,487.260464 C394.077647,487.260464 394.077647,477.732783 401.801858,477.732783" id="Stroke-21"></path>
                <path d="M0.238151659,467.784966 C7.95950474,467.784966 7.95950474,477.312647 15.6808578,477.312647 C23.4022109,477.312647 23.4022109,467.784966 31.123564,467.784966 C38.8444408,467.784966 38.8444408,477.312647 46.5653175,477.312647 C54.2866706,477.312647 54.2866706,467.784966 62.0085,467.784966 C69.7308057,467.784966 69.7308057,477.312647 77.4531114,477.312647 C85.1749408,477.312647 85.1749408,467.784966 92.8962938,467.784966 C100.617647,467.784966 100.617647,477.312647 108.339476,477.312647 C116.060829,477.312647 116.060829,467.784966 123.782182,467.784966 C131.504012,467.784966 131.504012,477.312647 139.225841,477.312647 C146.947671,477.312647 146.947671,467.784966 154.669976,467.784966 C162.392758,467.784966 162.392758,477.312647 170.11554,477.312647 C177.83737,477.312647 177.83737,467.784966 185.559675,467.784966 C193.281981,467.784966 193.281981,477.312647 201.004763,477.312647 C208.727069,477.312647 208.727069,467.784966 216.448898,467.784966 C224.171204,467.784966 224.171204,477.312647 231.893986,477.312647 C239.616291,477.312647 239.616291,467.784966 247.339073,467.784966 C255.061855,467.784966 255.061855,477.312647 262.784637,477.312647 C270.507896,477.312647 270.507896,467.784966 278.230678,467.784966 C285.952507,467.784966 285.952507,477.312647 293.674813,477.312647 C301.396642,477.312647 301.396642,467.784966 309.118948,467.784966 C316.84173,467.784966 316.84173,477.312647 324.564988,477.312647 C332.288246,477.312647 332.288246,467.784966 340.011028,467.784966 C347.734763,467.784966 347.734763,477.312647 355.458021,477.312647 C363.18128,477.312647 363.18128,467.784966 370.904538,467.784966 C378.629225,467.784966 378.629225,477.312647 386.353436,477.312647 C394.077647,477.312647 394.077647,467.784966 401.801858,467.784966" id="Stroke-23"></path>
                <path d="M0.238151659,457.837196 C7.95950474,457.837196 7.95950474,467.364877 15.6808578,467.364877 C23.4022109,467.364877 23.4022109,457.837196 31.123564,457.837196 C38.8444408,457.837196 38.8444408,467.364877 46.5653175,467.364877 C54.2866706,467.364877 54.2866706,457.837196 62.0085,457.837196 C69.7308057,457.837196 69.7308057,467.364877 77.4531114,467.364877 C85.1749408,467.364877 85.1749408,457.837196 92.8962938,457.837196 C100.617647,457.837196 100.617647,467.364877 108.339476,467.364877 C116.060829,467.364877 116.060829,457.837196 123.782182,457.837196 C131.504012,457.837196 131.504012,467.364877 139.225841,467.364877 C146.947671,467.364877 146.947671,457.837196 154.669976,457.837196 C162.392758,457.837196 162.392758,467.364877 170.11554,467.364877 C177.83737,467.364877 177.83737,457.837196 185.559675,457.837196 C193.281981,457.837196 193.281981,467.364877 201.004763,467.364877 C208.727069,467.364877 208.727069,457.837196 216.448898,457.837196 C224.171204,457.837196 224.171204,467.364877 231.893986,467.364877 C239.616291,467.364877 239.616291,457.837196 247.339073,457.837196 C255.061855,457.837196 255.061855,467.364877 262.784637,467.364877 C270.507896,467.364877 270.507896,457.837196 278.230678,457.837196 C285.952507,457.837196 285.952507,467.364877 293.674813,467.364877 C301.396642,467.364877 301.396642,457.837196 309.118948,457.837196 C316.84173,457.837196 316.84173,467.364877 324.564988,467.364877 C332.288246,467.364877 332.288246,457.837196 340.011028,457.837196 C347.734763,457.837196 347.734763,467.364877 355.458021,467.364877 C363.18128,467.364877 363.18128,457.837196 370.904538,457.837196 C378.629225,457.837196 378.629225,467.364877 386.353436,467.364877 C394.077647,467.364877 394.077647,457.837196 401.801858,457.837196" id="Stroke-25"></path>
                <path d="M0.238151659,447.889379 C7.95950474,447.889379 7.95950474,457.41706 15.6808578,457.41706 C23.4022109,457.41706 23.4022109,447.889379 31.123564,447.889379 C38.8444408,447.889379 38.8444408,457.41706 46.5653175,457.41706 C54.2866706,457.41706 54.2866706,447.889379 62.0085,447.889379 C69.7308057,447.889379 69.7308057,457.41706 77.4531114,457.41706 C85.1749408,457.41706 85.1749408,447.889379 92.8962938,447.889379 C100.617647,447.889379 100.617647,457.41706 108.339476,457.41706 C116.060829,457.41706 116.060829,447.889379 123.782182,447.889379 C131.504012,447.889379 131.504012,457.41706 139.225841,457.41706 C146.947671,457.41706 146.947671,447.889379 154.669976,447.889379 C162.392758,447.889379 162.392758,457.41706 170.11554,457.41706 C177.83737,457.41706 177.83737,447.889379 185.559675,447.889379 C193.281981,447.889379 193.281981,457.41706 201.004763,457.41706 C208.727069,457.41706 208.727069,447.889379 216.448898,447.889379 C224.171204,447.889379 224.171204,457.41706 231.893986,457.41706 C239.616291,457.41706 239.616291,447.889379 247.339073,447.889379 C255.061855,447.889379 255.061855,457.41706 262.784637,457.41706 C270.507896,457.41706 270.507896,447.889379 278.230678,447.889379 C285.952507,447.889379 285.952507,457.41706 293.674813,457.41706 C301.396642,457.41706 301.396642,447.889379 309.118948,447.889379 C316.84173,447.889379 316.84173,457.41706 324.564988,457.41706 C332.288246,457.41706 332.288246,447.889379 340.011028,447.889379 C347.734763,447.889379 347.734763,457.41706 355.458021,457.41706 C363.18128,457.41706 363.18128,447.889379 370.904538,447.889379 C378.629225,447.889379 378.629225,457.41706 386.353436,457.41706 C394.077647,457.41706 394.077647,447.889379 401.801858,447.889379" id="Stroke-27"></path>
                <path d="M0.238151659,437.941609 C7.95950474,437.941609 7.95950474,447.469291 15.6808578,447.469291 C23.4022109,447.469291 23.4022109,437.941609 31.123564,437.941609 C38.8444408,437.941609 38.8444408,447.469291 46.5653175,447.469291 C54.2866706,447.469291 54.2866706,437.941609 62.0085,437.941609 C69.7308057,437.941609 69.7308057,447.469291 77.4531114,447.469291 C85.1749408,447.469291 85.1749408,437.941609 92.8962938,437.941609 C100.617647,437.941609 100.617647,447.469291 108.339476,447.469291 C116.060829,447.469291 116.060829,437.941609 123.782182,437.941609 C131.504012,437.941609 131.504012,447.469291 139.225841,447.469291 C146.947671,447.469291 146.947671,437.941609 154.669976,437.941609 C162.392758,437.941609 162.392758,447.469291 170.11554,447.469291 C177.83737,447.469291 177.83737,437.941609 185.559675,437.941609 C193.281981,437.941609 193.281981,447.469291 201.004763,447.469291 C208.727069,447.469291 208.727069,437.941609 216.448898,437.941609 C224.171204,437.941609 224.171204,447.469291 231.893986,447.469291 C239.616291,447.469291 239.616291,437.941609 247.339073,437.941609 C255.061855,437.941609 255.061855,447.469291 262.784637,447.469291 C270.507896,447.469291 270.507896,437.941609 278.230678,437.941609 C285.952507,437.941609 285.952507,447.469291 293.674813,447.469291 C301.396642,447.469291 301.396642,437.941609 309.118948,437.941609 C316.84173,437.941609 316.84173,447.469291 324.564988,447.469291 C332.288246,447.469291 332.288246,437.941609 340.011028,437.941609 C347.734763,437.941609 347.734763,447.469291 355.458021,447.469291 C363.18128,447.469291 363.18128,437.941609 370.904538,437.941609 C378.629225,437.941609 378.629225,447.469291 386.353436,447.469291 C394.077647,447.469291 394.077647,437.941609 401.801858,437.941609" id="Stroke-29"></path>
                <path d="M0.238151659,427.993792 C7.95950474,427.993792 7.95950474,437.521474 15.6808578,437.521474 C23.4022109,437.521474 23.4022109,427.993792 31.123564,427.993792 C38.8444408,427.993792 38.8444408,437.521474 46.5653175,437.521474 C54.2866706,437.521474 54.2866706,427.993792 62.0085,427.993792 C69.7308057,427.993792 69.7308057,437.521474 77.4531114,437.521474 C85.1749408,437.521474 85.1749408,427.993792 92.8962938,427.993792 C100.617647,427.993792 100.617647,437.521474 108.339476,437.521474 C116.060829,437.521474 116.060829,427.993792 123.782182,427.993792 C131.504012,427.993792 131.504012,437.521474 139.225841,437.521474 C146.947671,437.521474 146.947671,427.993792 154.669976,427.993792 C162.392758,427.993792 162.392758,437.521474 170.11554,437.521474 C177.83737,437.521474 177.83737,427.993792 185.559675,427.993792 C193.281981,427.993792 193.281981,437.521474 201.004763,437.521474 C208.727069,437.521474 208.727069,427.993792 216.448898,427.993792 C224.171204,427.993792 224.171204,437.521474 231.893986,437.521474 C239.616291,437.521474 239.616291,427.993792 247.339073,427.993792 C255.061855,427.993792 255.061855,437.521474 262.784637,437.521474 C270.507896,437.521474 270.507896,427.993792 278.230678,427.993792 C285.952507,427.993792 285.952507,437.521474 293.674813,437.521474 C301.396642,437.521474 301.396642,427.993792 309.118948,427.993792 C316.84173,427.993792 316.84173,437.521474 324.564988,437.521474 C332.288246,437.521474 332.288246,427.993792 340.011028,427.993792 C347.734763,427.993792 347.734763,437.521474 355.458021,437.521474 C363.18128,437.521474 363.18128,427.993792 370.904538,427.993792 C378.629225,427.993792 378.629225,437.521474 386.353436,437.521474 C394.077647,437.521474 394.077647,427.993792 401.801858,427.993792" id="Stroke-31"></path>
                <path d="M0.238151659,418.046023 C7.95950474,418.046023 7.95950474,427.573704 15.6808578,427.573704 C23.4022109,427.573704 23.4022109,418.046023 31.123564,418.046023 C38.8444408,418.046023 38.8444408,427.573704 46.5653175,427.573704 C54.2866706,427.573704 54.2866706,418.046023 62.0085,418.046023 C69.7308057,418.046023 69.7308057,427.573704 77.4531114,427.573704 C85.1749408,427.573704 85.1749408,418.046023 92.8962938,418.046023 C100.617647,418.046023 100.617647,427.573704 108.339476,427.573704 C116.060829,427.573704 116.060829,418.046023 123.782182,418.046023 C131.504012,418.046023 131.504012,427.573704 139.225841,427.573704 C146.947671,427.573704 146.947671,418.046023 154.669976,418.046023 C162.392758,418.046023 162.392758,427.573704 170.11554,427.573704 C177.83737,427.573704 177.83737,418.046023 185.559675,418.046023 C193.281981,418.046023 193.281981,427.573704 201.004763,427.573704 C208.727069,427.573704 208.727069,418.046023 216.448898,418.046023 C224.171204,418.046023 224.171204,427.573704 231.893986,427.573704 C239.616291,427.573704 239.616291,418.046023 247.339073,418.046023 C255.061855,418.046023 255.061855,427.573704 262.784637,427.573704 C270.507896,427.573704 270.507896,418.046023 278.230678,418.046023 C285.952507,418.046023 285.952507,427.573704 293.674813,427.573704 C301.396642,427.573704 301.396642,418.046023 309.118948,418.046023 C316.84173,418.046023 316.84173,427.573704 324.564988,427.573704 C332.288246,427.573704 332.288246,418.046023 340.011028,418.046023 C347.734763,418.046023 347.734763,427.573704 355.458021,427.573704 C363.18128,427.573704 363.18128,418.046023 370.904538,418.046023 C378.629225,418.046023 378.629225,427.573704 386.353436,427.573704 C394.077647,427.573704 394.077647,418.046023 401.801858,418.046023" id="Stroke-33"></path>
                <path d="M0.238151659,408.098206 C7.95950474,408.098206 7.95950474,417.625887 15.6808578,417.625887 C23.4022109,417.625887 23.4022109,408.098206 31.123564,408.098206 C38.8444408,408.098206 38.8444408,417.625887 46.5653175,417.625887 C54.2866706,417.625887 54.2866706,408.098206 62.0085,408.098206 C69.7308057,408.098206 69.7308057,417.625887 77.4531114,417.625887 C85.1749408,417.625887 85.1749408,408.098206 92.8962938,408.098206 C100.617647,408.098206 100.617647,417.625887 108.339476,417.625887 C116.060829,417.625887 116.060829,408.098206 123.782182,408.098206 C131.504012,408.098206 131.504012,417.625887 139.225841,417.625887 C146.947671,417.625887 146.947671,408.098206 154.669976,408.098206 C162.392758,408.098206 162.392758,417.625887 170.11554,417.625887 C177.83737,417.625887 177.83737,408.098206 185.559675,408.098206 C193.281981,408.098206 193.281981,417.625887 201.004763,417.625887 C208.727069,417.625887 208.727069,408.098206 216.448898,408.098206 C224.171204,408.098206 224.171204,417.625887 231.893986,417.625887 C239.616291,417.625887 239.616291,408.098206 247.339073,408.098206 C255.061855,408.098206 255.061855,417.625887 262.784637,417.625887 C270.507896,417.625887 270.507896,408.098206 278.230678,408.098206 C285.952507,408.098206 285.952507,417.625887 293.674813,417.625887 C301.396642,417.625887 301.396642,408.098206 309.118948,408.098206 C316.84173,408.098206 316.84173,417.625887 324.564988,417.625887 C332.288246,417.625887 332.288246,408.098206 340.011028,408.098206 C347.734763,408.098206 347.734763,417.625887 355.458021,417.625887 C363.18128,417.625887 363.18128,408.098206 370.904538,408.098206 C378.629225,408.098206 378.629225,417.625887 386.353436,417.625887 C394.077647,417.625887 394.077647,408.098206 401.801858,408.098206" id="Stroke-35"></path>
                <path d="M0.238151659,398.150436 C7.95950474,398.150436 7.95950474,407.678117 15.6808578,407.678117 C23.4022109,407.678117 23.4022109,398.150436 31.123564,398.150436 C38.8444408,398.150436 38.8444408,407.678117 46.5653175,407.678117 C54.2866706,407.678117 54.2866706,398.150436 62.0085,398.150436 C69.7308057,398.150436 69.7308057,407.678117 77.4531114,407.678117 C85.1749408,407.678117 85.1749408,398.150436 92.8962938,398.150436 C100.617647,398.150436 100.617647,407.678117 108.339476,407.678117 C116.060829,407.678117 116.060829,398.150436 123.782182,398.150436 C131.504012,398.150436 131.504012,407.678117 139.225841,407.678117 C146.947671,407.678117 146.947671,398.150436 154.669976,398.150436 C162.392758,398.150436 162.392758,407.678117 170.11554,407.678117 C177.83737,407.678117 177.83737,398.150436 185.559675,398.150436 C193.281981,398.150436 193.281981,407.678117 201.004763,407.678117 C208.727069,407.678117 208.727069,398.150436 216.448898,398.150436 C224.171204,398.150436 224.171204,407.678117 231.893986,407.678117 C239.616291,407.678117 239.616291,398.150436 247.339073,398.150436 C255.061855,398.150436 255.061855,407.678117 262.784637,407.678117 C270.507896,407.678117 270.507896,398.150436 278.230678,398.150436 C285.952507,398.150436 285.952507,407.678117 293.674813,407.678117 C301.396642,407.678117 301.396642,398.150436 309.118948,398.150436 C316.84173,398.150436 316.84173,407.678117 324.564988,407.678117 C332.288246,407.678117 332.288246,398.150436 340.011028,398.150436 C347.734763,398.150436 347.734763,407.678117 355.458021,407.678117 C363.18128,407.678117 363.18128,398.150436 370.904538,398.150436 C378.629225,398.150436 378.629225,407.678117 386.353436,407.678117 C394.077647,407.678117 394.077647,398.150436 401.801858,398.150436" id="Stroke-37"></path>
                <path d="M0.238151659,388.202619 C7.95950474,388.202619 7.95950474,397.7303 15.6808578,397.7303 C23.4022109,397.7303 23.4022109,388.202619 31.123564,388.202619 C38.8444408,388.202619 38.8444408,397.7303 46.5653175,397.7303 C54.2866706,397.7303 54.2866706,388.202619 62.0085,388.202619 C69.7308057,388.202619 69.7308057,397.7303 77.4531114,397.7303 C85.1749408,397.7303 85.1749408,388.202619 92.8962938,388.202619 C100.617647,388.202619 100.617647,397.7303 108.339476,397.7303 C116.060829,397.7303 116.060829,388.202619 123.782182,388.202619 C131.504012,388.202619 131.504012,397.7303 139.225841,397.7303 C146.947671,397.7303 146.947671,388.202619 154.669976,388.202619 C162.392758,388.202619 162.392758,397.7303 170.11554,397.7303 C177.83737,397.7303 177.83737,388.202619 185.559675,388.202619 C193.281981,388.202619 193.281981,397.7303 201.004763,397.7303 C208.727069,397.7303 208.727069,388.202619 216.448898,388.202619 C224.171204,388.202619 224.171204,397.7303 231.893986,397.7303 C239.616291,397.7303 239.616291,388.202619 247.339073,388.202619 C255.061855,388.202619 255.061855,397.7303 262.784637,397.7303 C270.507896,397.7303 270.507896,388.202619 278.230678,388.202619 C285.952507,388.202619 285.952507,397.7303 293.674813,397.7303 C301.396642,397.7303 301.396642,388.202619 309.118948,388.202619 C316.84173,388.202619 316.84173,397.7303 324.564988,397.7303 C332.288246,397.7303 332.288246,388.202619 340.011028,388.202619 C347.734763,388.202619 347.734763,397.7303 355.458021,397.7303 C363.18128,397.7303 363.18128,388.202619 370.904538,388.202619 C378.629225,388.202619 378.629225,397.7303 386.353436,397.7303 C394.077647,397.7303 394.077647,388.202619 401.801858,388.202619" id="Stroke-39"></path>
                <path d="M0.238151659,378.25485 C7.95950474,378.25485 7.95950474,387.782531 15.6808578,387.782531 C23.4022109,387.782531 23.4022109,378.25485 31.123564,378.25485 C38.8444408,378.25485 38.8444408,387.782531 46.5653175,387.782531 C54.2866706,387.782531 54.2866706,378.25485 62.0085,378.25485 C69.7308057,378.25485 69.7308057,387.782531 77.4531114,387.782531 C85.1749408,387.782531 85.1749408,378.25485 92.8962938,378.25485 C100.617647,378.25485 100.617647,387.782531 108.339476,387.782531 C116.060829,387.782531 116.060829,378.25485 123.782182,378.25485 C131.504012,378.25485 131.504012,387.782531 139.225841,387.782531 C146.947671,387.782531 146.947671,378.25485 154.669976,378.25485 C162.392758,378.25485 162.392758,387.782531 170.11554,387.782531 C177.83737,387.782531 177.83737,378.25485 185.559675,378.25485 C193.281981,378.25485 193.281981,387.782531 201.004763,387.782531 C208.727069,387.782531 208.727069,378.25485 216.448898,378.25485 C224.171204,378.25485 224.171204,387.782531 231.893986,387.782531 C239.616291,387.782531 239.616291,378.25485 247.339073,378.25485 C255.061855,378.25485 255.061855,387.782531 262.784637,387.782531 C270.507896,387.782531 270.507896,378.25485 278.230678,378.25485 C285.952507,378.25485 285.952507,387.782531 293.674813,387.782531 C301.396642,387.782531 301.396642,378.25485 309.118948,378.25485 C316.84173,378.25485 316.84173,387.782531 324.564988,387.782531 C332.288246,387.782531 332.288246,378.25485 340.011028,378.25485 C347.734763,378.25485 347.734763,387.782531 355.458021,387.782531 C363.18128,387.782531 363.18128,378.25485 370.904538,378.25485 C378.629225,378.25485 378.629225,387.782531 386.353436,387.782531 C394.077647,387.782531 394.077647,378.25485 401.801858,378.25485" id="Stroke-41"></path>
                <path d="M0.238151659,368.307032 C7.95950474,368.307032 7.95950474,377.834714 15.6808578,377.834714 C23.4022109,377.834714 23.4022109,368.307032 31.123564,368.307032 C38.8444408,368.307032 38.8444408,377.834714 46.5653175,377.834714 C54.2866706,377.834714 54.2866706,368.307032 62.0085,368.307032 C69.7308057,368.307032 69.7308057,377.834714 77.4531114,377.834714 C85.1749408,377.834714 85.1749408,368.307032 92.8962938,368.307032 C100.617647,368.307032 100.617647,377.834714 108.339476,377.834714 C116.060829,377.834714 116.060829,368.307032 123.782182,368.307032 C131.504012,368.307032 131.504012,377.834714 139.225841,377.834714 C146.947671,377.834714 146.947671,368.307032 154.669976,368.307032 C162.392758,368.307032 162.392758,377.834714 170.11554,377.834714 C177.83737,377.834714 177.83737,368.307032 185.559675,368.307032 C193.281981,368.307032 193.281981,377.834714 201.004763,377.834714 C208.727069,377.834714 208.727069,368.307032 216.448898,368.307032 C224.171204,368.307032 224.171204,377.834714 231.893986,377.834714 C239.616291,377.834714 239.616291,368.307032 247.339073,368.307032 C255.061855,368.307032 255.061855,377.834714 262.784637,377.834714 C270.507896,377.834714 270.507896,368.307032 278.230678,368.307032 C285.952507,368.307032 285.952507,377.834714 293.674813,377.834714 C301.396642,377.834714 301.396642,368.307032 309.118948,368.307032 C316.84173,368.307032 316.84173,377.834714 324.564988,377.834714 C332.288246,377.834714 332.288246,368.307032 340.011028,368.307032 C347.734763,368.307032 347.734763,377.834714 355.458021,377.834714 C363.18128,377.834714 363.18128,368.307032 370.904538,368.307032 C378.629225,368.307032 378.629225,377.834714 386.353436,377.834714 C394.077647,377.834714 394.077647,368.307032 401.801858,368.307032" id="Stroke-43"></path>
                <path d="M0.238151659,358.359263 C7.95950474,358.359263 7.95950474,367.886944 15.6808578,367.886944 C23.4022109,367.886944 23.4022109,358.359263 31.123564,358.359263 C38.8444408,358.359263 38.8444408,367.886944 46.5653175,367.886944 C54.2866706,367.886944 54.2866706,358.359263 62.0085,358.359263 C69.7308057,358.359263 69.7308057,367.886944 77.4531114,367.886944 C85.1749408,367.886944 85.1749408,358.359263 92.8962938,358.359263 C100.617647,358.359263 100.617647,367.886944 108.339476,367.886944 C116.060829,367.886944 116.060829,358.359263 123.782182,358.359263 C131.504012,358.359263 131.504012,367.886944 139.225841,367.886944 C146.947671,367.886944 146.947671,358.359263 154.669976,358.359263 C162.392758,358.359263 162.392758,367.886944 170.11554,367.886944 C177.83737,367.886944 177.83737,358.359263 185.559675,358.359263 C193.281981,358.359263 193.281981,367.886944 201.004763,367.886944 C208.727069,367.886944 208.727069,358.359263 216.448898,358.359263 C224.171204,358.359263 224.171204,367.886944 231.893986,367.886944 C239.616291,367.886944 239.616291,358.359263 247.339073,358.359263 C255.061855,358.359263 255.061855,367.886944 262.784637,367.886944 C270.507896,367.886944 270.507896,358.359263 278.230678,358.359263 C285.952507,358.359263 285.952507,367.886944 293.674813,367.886944 C301.396642,367.886944 301.396642,358.359263 309.118948,358.359263 C316.84173,358.359263 316.84173,367.886944 324.564988,367.886944 C332.288246,367.886944 332.288246,358.359263 340.011028,358.359263 C347.734763,358.359263 347.734763,367.886944 355.458021,367.886944 C363.18128,367.886944 363.18128,358.359263 370.904538,358.359263 C378.629225,358.359263 378.629225,367.886944 386.353436,367.886944 C394.077647,367.886944 394.077647,358.359263 401.801858,358.359263" id="Stroke-45"></path>
                <path d="M0.238151659,348.411493 C7.95950474,348.411493 7.95950474,357.939175 15.6808578,357.939175 C23.4022109,357.939175 23.4022109,348.411493 31.123564,348.411493 C38.8444408,348.411493 38.8444408,357.939175 46.5653175,357.939175 C54.2866706,357.939175 54.2866706,348.411493 62.0085,348.411493 C69.7308057,348.411493 69.7308057,357.939175 77.4531114,357.939175 C85.1749408,357.939175 85.1749408,348.411493 92.8962938,348.411493 C100.617647,348.411493 100.617647,357.939175 108.339476,357.939175 C116.060829,357.939175 116.060829,348.411493 123.782182,348.411493 C131.504012,348.411493 131.504012,357.939175 139.225841,357.939175 C146.947671,357.939175 146.947671,348.411493 154.669976,348.411493 C162.392758,348.411493 162.392758,357.939175 170.11554,357.939175 C177.83737,357.939175 177.83737,348.411493 185.559675,348.411493 C193.281981,348.411493 193.281981,357.939175 201.004763,357.939175 C208.727069,357.939175 208.727069,348.411493 216.448898,348.411493 C224.171204,348.411493 224.171204,357.939175 231.893986,357.939175 C239.616291,357.939175 239.616291,348.411493 247.339073,348.411493 C255.061855,348.411493 255.061855,357.939175 262.784637,357.939175 C270.507896,357.939175 270.507896,348.411493 278.230678,348.411493 C285.952507,348.411493 285.952507,357.939175 293.674813,357.939175 C301.396642,357.939175 301.396642,348.411493 309.118948,348.411493 C316.84173,348.411493 316.84173,357.939175 324.564988,357.939175 C332.288246,357.939175 332.288246,348.411493 340.011028,348.411493 C347.734763,348.411493 347.734763,357.939175 355.458021,357.939175 C363.18128,357.939175 363.18128,348.411493 370.904538,348.411493 C378.629225,348.411493 378.629225,357.939175 386.353436,357.939175 C394.077647,357.939175 394.077647,348.411493 401.801858,348.411493" id="Stroke-47"></path>
                <path d="M0.238151659,338.463676 C7.95950474,338.463676 7.95950474,347.991358 15.6808578,347.991358 C23.4022109,347.991358 23.4022109,338.463676 31.123564,338.463676 C38.8444408,338.463676 38.8444408,347.991358 46.5653175,347.991358 C54.2866706,347.991358 54.2866706,338.463676 62.0085,338.463676 C69.7308057,338.463676 69.7308057,347.991358 77.4531114,347.991358 C85.1749408,347.991358 85.1749408,338.463676 92.8962938,338.463676 C100.617647,338.463676 100.617647,347.991358 108.339476,347.991358 C116.060829,347.991358 116.060829,338.463676 123.782182,338.463676 C131.504012,338.463676 131.504012,347.991358 139.225841,347.991358 C146.947671,347.991358 146.947671,338.463676 154.669976,338.463676 C162.392758,338.463676 162.392758,347.991358 170.11554,347.991358 C177.83737,347.991358 177.83737,338.463676 185.559675,338.463676 C193.281981,338.463676 193.281981,347.991358 201.004763,347.991358 C208.727069,347.991358 208.727069,338.463676 216.448898,338.463676 C224.171204,338.463676 224.171204,347.991358 231.893986,347.991358 C239.616291,347.991358 239.616291,338.463676 247.339073,338.463676 C255.061855,338.463676 255.061855,347.991358 262.784637,347.991358 C270.507896,347.991358 270.507896,338.463676 278.230678,338.463676 C285.952507,338.463676 285.952507,347.991358 293.674813,347.991358 C301.396642,347.991358 301.396642,338.463676 309.118948,338.463676 C316.84173,338.463676 316.84173,347.991358 324.564988,347.991358 C332.288246,347.991358 332.288246,338.463676 340.011028,338.463676 C347.734763,338.463676 347.734763,347.991358 355.458021,347.991358 C363.18128,347.991358 363.18128,338.463676 370.904538,338.463676 C378.629225,338.463676 378.629225,347.991358 386.353436,347.991358 C394.077647,347.991358 394.077647,338.463676 401.801858,338.463676" id="Stroke-49"></path>
                <path d="M0.238151659,328.515907 C7.95950474,328.515907 7.95950474,338.043588 15.6808578,338.043588 C23.4022109,338.043588 23.4022109,328.515907 31.123564,328.515907 C38.8444408,328.515907 38.8444408,338.043588 46.5653175,338.043588 C54.2866706,338.043588 54.2866706,328.515907 62.0085,328.515907 C69.7308057,328.515907 69.7308057,338.043588 77.4531114,338.043588 C85.1749408,338.043588 85.1749408,328.515907 92.8962938,328.515907 C100.617647,328.515907 100.617647,338.043588 108.339476,338.043588 C116.060829,338.043588 116.060829,328.515907 123.782182,328.515907 C131.504012,328.515907 131.504012,338.043588 139.225841,338.043588 C146.947671,338.043588 146.947671,328.515907 154.669976,328.515907 C162.392758,328.515907 162.392758,338.043588 170.11554,338.043588 C177.83737,338.043588 177.83737,328.515907 185.559675,328.515907 C193.281981,328.515907 193.281981,338.043588 201.004763,338.043588 C208.727069,338.043588 208.727069,328.515907 216.448898,328.515907 C224.171204,328.515907 224.171204,338.043588 231.893986,338.043588 C239.616291,338.043588 239.616291,328.515907 247.339073,328.515907 C255.061855,328.515907 255.061855,338.043588 262.784637,338.043588 C270.507896,338.043588 270.507896,328.515907 278.230678,328.515907 C285.952507,328.515907 285.952507,338.043588 293.674813,338.043588 C301.396642,338.043588 301.396642,328.515907 309.118948,328.515907 C316.84173,328.515907 316.84173,338.043588 324.564988,338.043588 C332.288246,338.043588 332.288246,328.515907 340.011028,328.515907 C347.734763,328.515907 347.734763,338.043588 355.458021,338.043588 C363.18128,338.043588 363.18128,328.515907 370.904538,328.515907 C378.629225,328.515907 378.629225,338.043588 386.353436,338.043588 C394.077647,338.043588 394.077647,328.515907 401.801858,328.515907" id="Stroke-51"></path>
                <path d="M0.238151659,318.56809 C7.95950474,318.56809 7.95950474,328.095771 15.6808578,328.095771 C23.4022109,328.095771 23.4022109,318.56809 31.123564,318.56809 C38.8444408,318.56809 38.8444408,328.095771 46.5653175,328.095771 C54.2866706,328.095771 54.2866706,318.56809 62.0085,318.56809 C69.7308057,318.56809 69.7308057,328.095771 77.4531114,328.095771 C85.1749408,328.095771 85.1749408,318.56809 92.8962938,318.56809 C100.617647,318.56809 100.617647,328.095771 108.339476,328.095771 C116.060829,328.095771 116.060829,318.56809 123.782182,318.56809 C131.504012,318.56809 131.504012,328.095771 139.225841,328.095771 C146.947671,328.095771 146.947671,318.56809 154.669976,318.56809 C162.392758,318.56809 162.392758,328.095771 170.11554,328.095771 C177.83737,328.095771 177.83737,318.56809 185.559675,318.56809 C193.281981,318.56809 193.281981,328.095771 201.004763,328.095771 C208.727069,328.095771 208.727069,318.56809 216.448898,318.56809 C224.171204,318.56809 224.171204,328.095771 231.893986,328.095771 C239.616291,328.095771 239.616291,318.56809 247.339073,318.56809 C255.061855,318.56809 255.061855,328.095771 262.784637,328.095771 C270.507896,328.095771 270.507896,318.56809 278.230678,318.56809 C285.952507,318.56809 285.952507,328.095771 293.674813,328.095771 C301.396642,328.095771 301.396642,318.56809 309.118948,318.56809 C316.84173,318.56809 316.84173,328.095771 324.564988,328.095771 C332.288246,328.095771 332.288246,318.56809 340.011028,318.56809 C347.734763,318.56809 347.734763,328.095771 355.458021,328.095771 C363.18128,328.095771 363.18128,318.56809 370.904538,318.56809 C378.629225,318.56809 378.629225,328.095771 386.353436,328.095771 C394.077647,328.095771 394.077647,318.56809 401.801858,318.56809" id="Stroke-53"></path>
                <path d="M0.238151659,308.62032 C7.95950474,308.62032 7.95950474,318.148001 15.6808578,318.148001 C23.4022109,318.148001 23.4022109,308.62032 31.123564,308.62032 C38.8444408,308.62032 38.8444408,318.148001 46.5653175,318.148001 C54.2866706,318.148001 54.2866706,308.62032 62.0085,308.62032 C69.7308057,308.62032 69.7308057,318.148001 77.4531114,318.148001 C85.1749408,318.148001 85.1749408,308.62032 92.8962938,308.62032 C100.617647,308.62032 100.617647,318.148001 108.339476,318.148001 C116.060829,318.148001 116.060829,308.62032 123.782182,308.62032 C131.504012,308.62032 131.504012,318.148001 139.225841,318.148001 C146.947671,318.148001 146.947671,308.62032 154.669976,308.62032 C162.392758,308.62032 162.392758,318.148001 170.11554,318.148001 C177.83737,318.148001 177.83737,308.62032 185.559675,308.62032 C193.281981,308.62032 193.281981,318.148001 201.004763,318.148001 C208.727069,318.148001 208.727069,308.62032 216.448898,308.62032 C224.171204,308.62032 224.171204,318.148001 231.893986,318.148001 C239.616291,318.148001 239.616291,308.62032 247.339073,308.62032 C255.061855,308.62032 255.061855,318.148001 262.784637,318.148001 C270.507896,318.148001 270.507896,308.62032 278.230678,308.62032 C285.952507,308.62032 285.952507,318.148001 293.674813,318.148001 C301.396642,318.148001 301.396642,308.62032 309.118948,308.62032 C316.84173,308.62032 316.84173,318.148001 324.564988,318.148001 C332.288246,318.148001 332.288246,308.62032 340.011028,308.62032 C347.734763,308.62032 347.734763,318.148001 355.458021,318.148001 C363.18128,318.148001 363.18128,308.62032 370.904538,308.62032 C378.629225,308.62032 378.629225,318.148001 386.353436,318.148001 C394.077647,318.148001 394.077647,308.62032 401.801858,308.62032" id="Stroke-55"></path>
                <path d="M0.238151659,298.672503 C7.95950474,298.672503 7.95950474,308.200184 15.6808578,308.200184 C23.4022109,308.200184 23.4022109,298.672503 31.123564,298.672503 C38.8444408,298.672503 38.8444408,308.200184 46.5653175,308.200184 C54.2866706,308.200184 54.2866706,298.672503 62.0085,298.672503 C69.7308057,298.672503 69.7308057,308.200184 77.4531114,308.200184 C85.1749408,308.200184 85.1749408,298.672503 92.8962938,298.672503 C100.617647,298.672503 100.617647,308.200184 108.339476,308.200184 C116.060829,308.200184 116.060829,298.672503 123.782182,298.672503 C131.504012,298.672503 131.504012,308.200184 139.225841,308.200184 C146.947671,308.200184 146.947671,298.672503 154.669976,298.672503 C162.392758,298.672503 162.392758,308.200184 170.11554,308.200184 C177.83737,308.200184 177.83737,298.672503 185.559675,298.672503 C193.281981,298.672503 193.281981,308.200184 201.004763,308.200184 C208.727069,308.200184 208.727069,298.672503 216.448898,298.672503 C224.171204,298.672503 224.171204,308.200184 231.893986,308.200184 C239.616291,308.200184 239.616291,298.672503 247.339073,298.672503 C255.061855,298.672503 255.061855,308.200184 262.784637,308.200184 C270.507896,308.200184 270.507896,298.672503 278.230678,298.672503 C285.952507,298.672503 285.952507,308.200184 293.674813,308.200184 C301.396642,308.200184 301.396642,298.672503 309.118948,298.672503 C316.84173,298.672503 316.84173,308.200184 324.564988,308.200184 C332.288246,308.200184 332.288246,298.672503 340.011028,298.672503 C347.734763,298.672503 347.734763,308.200184 355.458021,308.200184 C363.18128,308.200184 363.18128,298.672503 370.904538,298.672503 C378.629225,298.672503 378.629225,308.200184 386.353436,308.200184 C394.077647,308.200184 394.077647,298.672503 401.801858,298.672503" id="Stroke-57"></path>
                <path d="M0.238151659,288.724734 C7.95950474,288.724734 7.95950474,298.252415 15.6808578,298.252415 C23.4022109,298.252415 23.4022109,288.724734 31.123564,288.724734 C38.8444408,288.724734 38.8444408,298.252415 46.5653175,298.252415 C54.2866706,298.252415 54.2866706,288.724734 62.0085,288.724734 C69.7308057,288.724734 69.7308057,298.252415 77.4531114,298.252415 C85.1749408,298.252415 85.1749408,288.724734 92.8962938,288.724734 C100.617647,288.724734 100.617647,298.252415 108.339476,298.252415 C116.060829,298.252415 116.060829,288.724734 123.782182,288.724734 C131.504012,288.724734 131.504012,298.252415 139.225841,298.252415 C146.947671,298.252415 146.947671,288.724734 154.669976,288.724734 C162.392758,288.724734 162.392758,298.252415 170.11554,298.252415 C177.83737,298.252415 177.83737,288.724734 185.559675,288.724734 C193.281981,288.724734 193.281981,298.252415 201.004763,298.252415 C208.727069,298.252415 208.727069,288.724734 216.448898,288.724734 C224.171204,288.724734 224.171204,298.252415 231.893986,298.252415 C239.616291,298.252415 239.616291,288.724734 247.339073,288.724734 C255.061855,288.724734 255.061855,298.252415 262.784637,298.252415 C270.507896,298.252415 270.507896,288.724734 278.230678,288.724734 C285.952507,288.724734 285.952507,298.252415 293.674813,298.252415 C301.396642,298.252415 301.396642,288.724734 309.118948,288.724734 C316.84173,288.724734 316.84173,298.252415 324.564988,298.252415 C332.288246,298.252415 332.288246,288.724734 340.011028,288.724734 C347.734763,288.724734 347.734763,298.252415 355.458021,298.252415 C363.18128,298.252415 363.18128,288.724734 370.904538,288.724734 C378.629225,288.724734 378.629225,298.252415 386.353436,298.252415 C394.077647,298.252415 394.077647,288.724734 401.801858,288.724734" id="Stroke-59"></path>
                <path d="M0.238151659,278.776964 C7.95950474,278.776964 7.95950474,288.304645 15.6808578,288.304645 C23.4022109,288.304645 23.4022109,278.776964 31.123564,278.776964 C38.8444408,278.776964 38.8444408,288.304645 46.5653175,288.304645 C54.2866706,288.304645 54.2866706,278.776964 62.0085,278.776964 C69.7308057,278.776964 69.7308057,288.304645 77.4531114,288.304645 C85.1749408,288.304645 85.1749408,278.776964 92.8962938,278.776964 C100.617647,278.776964 100.617647,288.304645 108.339476,288.304645 C116.060829,288.304645 116.060829,278.776964 123.782182,278.776964 C131.504012,278.776964 131.504012,288.304645 139.225841,288.304645 C146.947671,288.304645 146.947671,278.776964 154.669976,278.776964 C162.392758,278.776964 162.392758,288.304645 170.11554,288.304645 C177.83737,288.304645 177.83737,278.776964 185.559675,278.776964 C193.281981,278.776964 193.281981,288.304645 201.004763,288.304645 C208.727069,288.304645 208.727069,278.776964 216.448898,278.776964 C224.171204,278.776964 224.171204,288.304645 231.893986,288.304645 C239.616291,288.304645 239.616291,278.776964 247.339073,278.776964 C255.061855,278.776964 255.061855,288.304645 262.784637,288.304645 C270.507896,288.304645 270.507896,278.776964 278.230678,278.776964 C285.952507,278.776964 285.952507,288.304645 293.674813,288.304645 C301.396642,288.304645 301.396642,278.776964 309.118948,278.776964 C316.84173,278.776964 316.84173,288.304645 324.564988,288.304645 C332.288246,288.304645 332.288246,278.776964 340.011028,278.776964 C347.734763,278.776964 347.734763,288.304645 355.458021,288.304645 C363.18128,288.304645 363.18128,278.776964 370.904538,278.776964 C378.629225,278.776964 378.629225,288.304645 386.353436,288.304645 C394.077647,288.304645 394.077647,278.776964 401.801858,278.776964" id="Stroke-61"></path>
                <path d="M0.238151659,268.829147 C7.95950474,268.829147 7.95950474,278.356828 15.6808578,278.356828 C23.4022109,278.356828 23.4022109,268.829147 31.123564,268.829147 C38.8444408,268.829147 38.8444408,278.356828 46.5653175,278.356828 C54.2866706,278.356828 54.2866706,268.829147 62.0085,268.829147 C69.7308057,268.829147 69.7308057,278.356828 77.4531114,278.356828 C85.1749408,278.356828 85.1749408,268.829147 92.8962938,268.829147 C100.617647,268.829147 100.617647,278.356828 108.339476,278.356828 C116.060829,278.356828 116.060829,268.829147 123.782182,268.829147 C131.504012,268.829147 131.504012,278.356828 139.225841,278.356828 C146.947671,278.356828 146.947671,268.829147 154.669976,268.829147 C162.392758,268.829147 162.392758,278.356828 170.11554,278.356828 C177.83737,278.356828 177.83737,268.829147 185.559675,268.829147 C193.281981,268.829147 193.281981,278.356828 201.004763,278.356828 C208.727069,278.356828 208.727069,268.829147 216.448898,268.829147 C224.171204,268.829147 224.171204,278.356828 231.893986,278.356828 C239.616291,278.356828 239.616291,268.829147 247.339073,268.829147 C255.061855,268.829147 255.061855,278.356828 262.784637,278.356828 C270.507896,278.356828 270.507896,268.829147 278.230678,268.829147 C285.952507,268.829147 285.952507,278.356828 293.674813,278.356828 C301.396642,278.356828 301.396642,268.829147 309.118948,268.829147 C316.84173,268.829147 316.84173,278.356828 324.564988,278.356828 C332.288246,278.356828 332.288246,268.829147 340.011028,268.829147 C347.734763,268.829147 347.734763,278.356828 355.458021,278.356828 C363.18128,278.356828 363.18128,268.829147 370.904538,268.829147 C378.629225,268.829147 378.629225,278.356828 386.353436,278.356828 C394.077647,278.356828 394.077647,268.829147 401.801858,268.829147" id="Stroke-63"></path>
                <path d="M0.238151659,258.881377 C7.95950474,258.881377 7.95950474,268.409059 15.6808578,268.409059 C23.4022109,268.409059 23.4022109,258.881377 31.123564,258.881377 C38.8444408,258.881377 38.8444408,268.409059 46.5653175,268.409059 C54.2866706,268.409059 54.2866706,258.881377 62.0085,258.881377 C69.7308057,258.881377 69.7308057,268.409059 77.4531114,268.409059 C85.1749408,268.409059 85.1749408,258.881377 92.8962938,258.881377 C100.617647,258.881377 100.617647,268.409059 108.339476,268.409059 C116.060829,268.409059 116.060829,258.881377 123.782182,258.881377 C131.504012,258.881377 131.504012,268.409059 139.225841,268.409059 C146.947671,268.409059 146.947671,258.881377 154.669976,258.881377 C162.392758,258.881377 162.392758,268.409059 170.11554,268.409059 C177.83737,268.409059 177.83737,258.881377 185.559675,258.881377 C193.281981,258.881377 193.281981,268.409059 201.004763,268.409059 C208.727069,268.409059 208.727069,258.881377 216.448898,258.881377 C224.171204,258.881377 224.171204,268.409059 231.893986,268.409059 C239.616291,268.409059 239.616291,258.881377 247.339073,258.881377 C255.061855,258.881377 255.061855,268.409059 262.784637,268.409059 C270.507896,268.409059 270.507896,258.881377 278.230678,258.881377 C285.952507,258.881377 285.952507,268.409059 293.674813,268.409059 C301.396642,268.409059 301.396642,258.881377 309.118948,258.881377 C316.84173,258.881377 316.84173,268.409059 324.564988,268.409059 C332.288246,268.409059 332.288246,258.881377 340.011028,258.881377 C347.734763,258.881377 347.734763,268.409059 355.458021,268.409059 C363.18128,268.409059 363.18128,258.881377 370.904538,258.881377 C378.629225,258.881377 378.629225,268.409059 386.353436,268.409059 C394.077647,268.409059 394.077647,258.881377 401.801858,258.881377" id="Stroke-65"></path>
                <path d="M0.238151659,248.93356 C7.95950474,248.93356 7.95950474,258.461242 15.6808578,258.461242 C23.4022109,258.461242 23.4022109,248.93356 31.123564,248.93356 C38.8444408,248.93356 38.8444408,258.461242 46.5653175,258.461242 C54.2866706,258.461242 54.2866706,248.93356 62.0085,248.93356 C69.7308057,248.93356 69.7308057,258.461242 77.4531114,258.461242 C85.1749408,258.461242 85.1749408,248.93356 92.8962938,248.93356 C100.617647,248.93356 100.617647,258.461242 108.339476,258.461242 C116.060829,258.461242 116.060829,248.93356 123.782182,248.93356 C131.504012,248.93356 131.504012,258.461242 139.225841,258.461242 C146.947671,258.461242 146.947671,248.93356 154.669976,248.93356 C162.392758,248.93356 162.392758,258.461242 170.11554,258.461242 C177.83737,258.461242 177.83737,248.93356 185.559675,248.93356 C193.281981,248.93356 193.281981,258.461242 201.004763,258.461242 C208.727069,258.461242 208.727069,248.93356 216.448898,248.93356 C224.171204,248.93356 224.171204,258.461242 231.893986,258.461242 C239.616291,258.461242 239.616291,248.93356 247.339073,248.93356 C255.061855,248.93356 255.061855,258.461242 262.784637,258.461242 C270.507896,258.461242 270.507896,248.93356 278.230678,248.93356 C285.952507,248.93356 285.952507,258.461242 293.674813,258.461242 C301.396642,258.461242 301.396642,248.93356 309.118948,248.93356 C316.84173,248.93356 316.84173,258.461242 324.564988,258.461242 C332.288246,258.461242 332.288246,248.93356 340.011028,248.93356 C347.734763,248.93356 347.734763,258.461242 355.458021,258.461242 C363.18128,258.461242 363.18128,248.93356 370.904538,248.93356 C378.629225,248.93356 378.629225,258.461242 386.353436,258.461242 C394.077647,258.461242 394.077647,248.93356 401.801858,248.93356" id="Stroke-67"></path>
                <path d="M0.238151659,238.985791 C7.95950474,238.985791 7.95950474,248.513472 15.6808578,248.513472 C23.4022109,248.513472 23.4022109,238.985791 31.123564,238.985791 C38.8444408,238.985791 38.8444408,248.513472 46.5653175,248.513472 C54.2866706,248.513472 54.2866706,238.985791 62.0085,238.985791 C69.7308057,238.985791 69.7308057,248.513472 77.4531114,248.513472 C85.1749408,248.513472 85.1749408,238.985791 92.8962938,238.985791 C100.617647,238.985791 100.617647,248.513472 108.339476,248.513472 C116.060829,248.513472 116.060829,238.985791 123.782182,238.985791 C131.504012,238.985791 131.504012,248.513472 139.225841,248.513472 C146.947671,248.513472 146.947671,238.985791 154.669976,238.985791 C162.392758,238.985791 162.392758,248.513472 170.11554,248.513472 C177.83737,248.513472 177.83737,238.985791 185.559675,238.985791 C193.281981,238.985791 193.281981,248.513472 201.004763,248.513472 C208.727069,248.513472 208.727069,238.985791 216.448898,238.985791 C224.171204,238.985791 224.171204,248.513472 231.893986,248.513472 C239.616291,248.513472 239.616291,238.985791 247.339073,238.985791 C255.061855,238.985791 255.061855,248.513472 262.784637,248.513472 C270.507896,248.513472 270.507896,238.985791 278.230678,238.985791 C285.952507,238.985791 285.952507,248.513472 293.674813,248.513472 C301.396642,248.513472 301.396642,238.985791 309.118948,238.985791 C316.84173,238.985791 316.84173,248.513472 324.564988,248.513472 C332.288246,248.513472 332.288246,238.985791 340.011028,238.985791 C347.734763,238.985791 347.734763,248.513472 355.458021,248.513472 C363.18128,248.513472 363.18128,238.985791 370.904538,238.985791 C378.629225,238.985791 378.629225,248.513472 386.353436,248.513472 C394.077647,248.513472 394.077647,238.985791 401.801858,238.985791" id="Stroke-69"></path>
                <path d="M0.238151659,229.038021 C7.95950474,229.038021 7.95950474,238.565703 15.6808578,238.565703 C23.4022109,238.565703 23.4022109,229.038021 31.123564,229.038021 C38.8444408,229.038021 38.8444408,238.565703 46.5653175,238.565703 C54.2866706,238.565703 54.2866706,229.038021 62.0085,229.038021 C69.7308057,229.038021 69.7308057,238.565703 77.4531114,238.565703 C85.1749408,238.565703 85.1749408,229.038021 92.8962938,229.038021 C100.617647,229.038021 100.617647,238.565703 108.339476,238.565703 C116.060829,238.565703 116.060829,229.038021 123.782182,229.038021 C131.504012,229.038021 131.504012,238.565703 139.225841,238.565703 C146.947671,238.565703 146.947671,229.038021 154.669976,229.038021 C162.392758,229.038021 162.392758,238.565703 170.11554,238.565703 C177.83737,238.565703 177.83737,229.038021 185.559675,229.038021 C193.281981,229.038021 193.281981,238.565703 201.004763,238.565703 C208.727069,238.565703 208.727069,229.038021 216.448898,229.038021 C224.171204,229.038021 224.171204,238.565703 231.893986,238.565703 C239.616291,238.565703 239.616291,229.038021 247.339073,229.038021 C255.061855,229.038021 255.061855,238.565703 262.784637,238.565703 C270.507896,238.565703 270.507896,229.038021 278.230678,229.038021 C285.952507,229.038021 285.952507,238.565703 293.674813,238.565703 C301.396642,238.565703 301.396642,229.038021 309.118948,229.038021 C316.84173,229.038021 316.84173,238.565703 324.564988,238.565703 C332.288246,238.565703 332.288246,229.038021 340.011028,229.038021 C347.734763,229.038021 347.734763,238.565703 355.458021,238.565703 C363.18128,238.565703 363.18128,229.038021 370.904538,229.038021 C378.629225,229.038021 378.629225,238.565703 386.353436,238.565703 C394.077647,238.565703 394.077647,229.038021 401.801858,229.038021" id="Stroke-71"></path>
                <path d="M0.238151659,219.090204 C7.95950474,219.090204 7.95950474,228.617885 15.6808578,228.617885 C23.4022109,228.617885 23.4022109,219.090204 31.123564,219.090204 C38.8444408,219.090204 38.8444408,228.617885 46.5653175,228.617885 C54.2866706,228.617885 54.2866706,219.090204 62.0085,219.090204 C69.7308057,219.090204 69.7308057,228.617885 77.4531114,228.617885 C85.1749408,228.617885 85.1749408,219.090204 92.8962938,219.090204 C100.617647,219.090204 100.617647,228.617885 108.339476,228.617885 C116.060829,228.617885 116.060829,219.090204 123.782182,219.090204 C131.504012,219.090204 131.504012,228.617885 139.225841,228.617885 C146.947671,228.617885 146.947671,219.090204 154.669976,219.090204 C162.392758,219.090204 162.392758,228.617885 170.11554,228.617885 C177.83737,228.617885 177.83737,219.090204 185.559675,219.090204 C193.281981,219.090204 193.281981,228.617885 201.004763,228.617885 C208.727069,228.617885 208.727069,219.090204 216.448898,219.090204 C224.171204,219.090204 224.171204,228.617885 231.893986,228.617885 C239.616291,228.617885 239.616291,219.090204 247.339073,219.090204 C255.061855,219.090204 255.061855,228.617885 262.784637,228.617885 C270.507896,228.617885 270.507896,219.090204 278.230678,219.090204 C285.952507,219.090204 285.952507,228.617885 293.674813,228.617885 C301.396642,228.617885 301.396642,219.090204 309.118948,219.090204 C316.84173,219.090204 316.84173,228.617885 324.564988,228.617885 C332.288246,228.617885 332.288246,219.090204 340.011028,219.090204 C347.734763,219.090204 347.734763,228.617885 355.458021,228.617885 C363.18128,228.617885 363.18128,219.090204 370.904538,219.090204 C378.629225,219.090204 378.629225,228.617885 386.353436,228.617885 C394.077647,228.617885 394.077647,219.090204 401.801858,219.090204" id="Stroke-73"></path>
                <path d="M0.238151659,209.142435 C7.95950474,209.142435 7.95950474,218.670116 15.6808578,218.670116 C23.4022109,218.670116 23.4022109,209.142435 31.123564,209.142435 C38.8444408,209.142435 38.8444408,218.670116 46.5653175,218.670116 C54.2866706,218.670116 54.2866706,209.142435 62.0085,209.142435 C69.7308057,209.142435 69.7308057,218.670116 77.4531114,218.670116 C85.1749408,218.670116 85.1749408,209.142435 92.8962938,209.142435 C100.617647,209.142435 100.617647,218.670116 108.339476,218.670116 C116.060829,218.670116 116.060829,209.142435 123.782182,209.142435 C131.504012,209.142435 131.504012,218.670116 139.225841,218.670116 C146.947671,218.670116 146.947671,209.142435 154.669976,209.142435 C162.392758,209.142435 162.392758,218.670116 170.11554,218.670116 C177.83737,218.670116 177.83737,209.142435 185.559675,209.142435 C193.281981,209.142435 193.281981,218.670116 201.004763,218.670116 C208.727069,218.670116 208.727069,209.142435 216.448898,209.142435 C224.171204,209.142435 224.171204,218.670116 231.893986,218.670116 C239.616291,218.670116 239.616291,209.142435 247.339073,209.142435 C255.061855,209.142435 255.061855,218.670116 262.784637,218.670116 C270.507896,218.670116 270.507896,209.142435 278.230678,209.142435 C285.952507,209.142435 285.952507,218.670116 293.674813,218.670116 C301.396642,218.670116 301.396642,209.142435 309.118948,209.142435 C316.84173,209.142435 316.84173,218.670116 324.564988,218.670116 C332.288246,218.670116 332.288246,209.142435 340.011028,209.142435 C347.734763,209.142435 347.734763,218.670116 355.458021,218.670116 C363.18128,218.670116 363.18128,209.142435 370.904538,209.142435 C378.629225,209.142435 378.629225,218.670116 386.353436,218.670116 C394.077647,218.670116 394.077647,209.142435 401.801858,209.142435" id="Stroke-75"></path>
                <path d="M0.238151659,199.194618 C7.95950474,199.194618 7.95950474,208.722299 15.6808578,208.722299 C23.4022109,208.722299 23.4022109,199.194618 31.123564,199.194618 C38.8444408,199.194618 38.8444408,208.722299 46.5653175,208.722299 C54.2866706,208.722299 54.2866706,199.194618 62.0085,199.194618 C69.7308057,199.194618 69.7308057,208.722299 77.4531114,208.722299 C85.1749408,208.722299 85.1749408,199.194618 92.8962938,199.194618 C100.617647,199.194618 100.617647,208.722299 108.339476,208.722299 C116.060829,208.722299 116.060829,199.194618 123.782182,199.194618 C131.504012,199.194618 131.504012,208.722299 139.225841,208.722299 C146.947671,208.722299 146.947671,199.194618 154.669976,199.194618 C162.392758,199.194618 162.392758,208.722299 170.11554,208.722299 C177.83737,208.722299 177.83737,199.194618 185.559675,199.194618 C193.281981,199.194618 193.281981,208.722299 201.004763,208.722299 C208.727069,208.722299 208.727069,199.194618 216.448898,199.194618 C224.171204,199.194618 224.171204,208.722299 231.893986,208.722299 C239.616291,208.722299 239.616291,199.194618 247.339073,199.194618 C255.061855,199.194618 255.061855,208.722299 262.784637,208.722299 C270.507896,208.722299 270.507896,199.194618 278.230678,199.194618 C285.952507,199.194618 285.952507,208.722299 293.674813,208.722299 C301.396642,208.722299 301.396642,199.194618 309.118948,199.194618 C316.84173,199.194618 316.84173,208.722299 324.564988,208.722299 C332.288246,208.722299 332.288246,199.194618 340.011028,199.194618 C347.734763,199.194618 347.734763,208.722299 355.458021,208.722299 C363.18128,208.722299 363.18128,199.194618 370.904538,199.194618 C378.629225,199.194618 378.629225,208.722299 386.353436,208.722299 C394.077647,208.722299 394.077647,199.194618 401.801858,199.194618" id="Stroke-77"></path>
                <path d="M0.238151659,189.246848 C7.95950474,189.246848 7.95950474,198.774529 15.6808578,198.774529 C23.4022109,198.774529 23.4022109,189.246848 31.123564,189.246848 C38.8444408,189.246848 38.8444408,198.774529 46.5653175,198.774529 C54.2866706,198.774529 54.2866706,189.246848 62.0085,189.246848 C69.7308057,189.246848 69.7308057,198.774529 77.4531114,198.774529 C85.1749408,198.774529 85.1749408,189.246848 92.8962938,189.246848 C100.617647,189.246848 100.617647,198.774529 108.339476,198.774529 C116.060829,198.774529 116.060829,189.246848 123.782182,189.246848 C131.504012,189.246848 131.504012,198.774529 139.225841,198.774529 C146.947671,198.774529 146.947671,189.246848 154.669976,189.246848 C162.392758,189.246848 162.392758,198.774529 170.11554,198.774529 C177.83737,198.774529 177.83737,189.246848 185.559675,189.246848 C193.281981,189.246848 193.281981,198.774529 201.004763,198.774529 C208.727069,198.774529 208.727069,189.246848 216.448898,189.246848 C224.171204,189.246848 224.171204,198.774529 231.893986,198.774529 C239.616291,198.774529 239.616291,189.246848 247.339073,189.246848 C255.061855,189.246848 255.061855,198.774529 262.784637,198.774529 C270.507896,198.774529 270.507896,189.246848 278.230678,189.246848 C285.952507,189.246848 285.952507,198.774529 293.674813,198.774529 C301.396642,198.774529 301.396642,189.246848 309.118948,189.246848 C316.84173,189.246848 316.84173,198.774529 324.564988,198.774529 C332.288246,198.774529 332.288246,189.246848 340.011028,189.246848 C347.734763,189.246848 347.734763,198.774529 355.458021,198.774529 C363.18128,198.774529 363.18128,189.246848 370.904538,189.246848 C378.629225,189.246848 378.629225,198.774529 386.353436,198.774529 C394.077647,198.774529 394.077647,189.246848 401.801858,189.246848" id="Stroke-79"></path>
                <path d="M0.238151659,179.299031 C7.95950474,179.299031 7.95950474,188.826712 15.6808578,188.826712 C23.4022109,188.826712 23.4022109,179.299031 31.123564,179.299031 C38.8444408,179.299031 38.8444408,188.826712 46.5653175,188.826712 C54.2866706,188.826712 54.2866706,179.299031 62.0085,179.299031 C69.7308057,179.299031 69.7308057,188.826712 77.4531114,188.826712 C85.1749408,188.826712 85.1749408,179.299031 92.8962938,179.299031 C100.617647,179.299031 100.617647,188.826712 108.339476,188.826712 C116.060829,188.826712 116.060829,179.299031 123.782182,179.299031 C131.504012,179.299031 131.504012,188.826712 139.225841,188.826712 C146.947671,188.826712 146.947671,179.299031 154.669976,179.299031 C162.392758,179.299031 162.392758,188.826712 170.11554,188.826712 C177.83737,188.826712 177.83737,179.299031 185.559675,179.299031 C193.281981,179.299031 193.281981,188.826712 201.004763,188.826712 C208.727069,188.826712 208.727069,179.299031 216.448898,179.299031 C224.171204,179.299031 224.171204,188.826712 231.893986,188.826712 C239.616291,188.826712 239.616291,179.299031 247.339073,179.299031 C255.061855,179.299031 255.061855,188.826712 262.784637,188.826712 C270.507896,188.826712 270.507896,179.299031 278.230678,179.299031 C285.952507,179.299031 285.952507,188.826712 293.674813,188.826712 C301.396642,188.826712 301.396642,179.299031 309.118948,179.299031 C316.84173,179.299031 316.84173,188.826712 324.564988,188.826712 C332.288246,188.826712 332.288246,179.299031 340.011028,179.299031 C347.734763,179.299031 347.734763,188.826712 355.458021,188.826712 C363.18128,188.826712 363.18128,179.299031 370.904538,179.299031 C378.629225,179.299031 378.629225,188.826712 386.353436,188.826712 C394.077647,188.826712 394.077647,179.299031 401.801858,179.299031" id="Stroke-81"></path>
                <path d="M0.238151659,169.351261 C7.95950474,169.351261 7.95950474,178.878943 15.6808578,178.878943 C23.4022109,178.878943 23.4022109,169.351261 31.123564,169.351261 C38.8444408,169.351261 38.8444408,178.878943 46.5653175,178.878943 C54.2866706,178.878943 54.2866706,169.351261 62.0085,169.351261 C69.7308057,169.351261 69.7308057,178.878943 77.4531114,178.878943 C85.1749408,178.878943 85.1749408,169.351261 92.8962938,169.351261 C100.617647,169.351261 100.617647,178.878943 108.339476,178.878943 C116.060829,178.878943 116.060829,169.351261 123.782182,169.351261 C131.504012,169.351261 131.504012,178.878943 139.225841,178.878943 C146.947671,178.878943 146.947671,169.351261 154.669976,169.351261 C162.392758,169.351261 162.392758,178.878943 170.11554,178.878943 C177.83737,178.878943 177.83737,169.351261 185.559675,169.351261 C193.281981,169.351261 193.281981,178.878943 201.004763,178.878943 C208.727069,178.878943 208.727069,169.351261 216.448898,169.351261 C224.171204,169.351261 224.171204,178.878943 231.893986,178.878943 C239.616291,178.878943 239.616291,169.351261 247.339073,169.351261 C255.061855,169.351261 255.061855,178.878943 262.784637,178.878943 C270.507896,178.878943 270.507896,169.351261 278.230678,169.351261 C285.952507,169.351261 285.952507,178.878943 293.674813,178.878943 C301.396642,178.878943 301.396642,169.351261 309.118948,169.351261 C316.84173,169.351261 316.84173,178.878943 324.564988,178.878943 C332.288246,178.878943 332.288246,169.351261 340.011028,169.351261 C347.734763,169.351261 347.734763,178.878943 355.458021,178.878943 C363.18128,178.878943 363.18128,169.351261 370.904538,169.351261 C378.629225,169.351261 378.629225,178.878943 386.353436,178.878943 C394.077647,178.878943 394.077647,169.351261 401.801858,169.351261" id="Stroke-83"></path>
                <path d="M0.238151659,159.403444 C7.95950474,159.403444 7.95950474,168.931126 15.6808578,168.931126 C23.4022109,168.931126 23.4022109,159.403444 31.123564,159.403444 C38.8444408,159.403444 38.8444408,168.931126 46.5653175,168.931126 C54.2866706,168.931126 54.2866706,159.403444 62.0085,159.403444 C69.7308057,159.403444 69.7308057,168.931126 77.4531114,168.931126 C85.1749408,168.931126 85.1749408,159.403444 92.8962938,159.403444 C100.617647,159.403444 100.617647,168.931126 108.339476,168.931126 C116.060829,168.931126 116.060829,159.403444 123.782182,159.403444 C131.504012,159.403444 131.504012,168.931126 139.225841,168.931126 C146.947671,168.931126 146.947671,159.403444 154.669976,159.403444 C162.392758,159.403444 162.392758,168.931126 170.11554,168.931126 C177.83737,168.931126 177.83737,159.403444 185.559675,159.403444 C193.281981,159.403444 193.281981,168.931126 201.004763,168.931126 C208.727069,168.931126 208.727069,159.403444 216.448898,159.403444 C224.171204,159.403444 224.171204,168.931126 231.893986,168.931126 C239.616291,168.931126 239.616291,159.403444 247.339073,159.403444 C255.061855,159.403444 255.061855,168.931126 262.784637,168.931126 C270.507896,168.931126 270.507896,159.403444 278.230678,159.403444 C285.952507,159.403444 285.952507,168.931126 293.674813,168.931126 C301.396642,168.931126 301.396642,159.403444 309.118948,159.403444 C316.84173,159.403444 316.84173,168.931126 324.564988,168.931126 C332.288246,168.931126 332.288246,159.403444 340.011028,159.403444 C347.734763,159.403444 347.734763,168.931126 355.458021,168.931126 C363.18128,168.931126 363.18128,159.403444 370.904538,159.403444 C378.629225,159.403444 378.629225,168.931126 386.353436,168.931126 C394.077647,168.931126 394.077647,159.403444 401.801858,159.403444" id="Stroke-85"></path>
                <path d="M0.238151659,149.455675 C7.95950474,149.455675 7.95950474,158.983356 15.6808578,158.983356 C23.4022109,158.983356 23.4022109,149.455675 31.123564,149.455675 C38.8444408,149.455675 38.8444408,158.983356 46.5653175,158.983356 C54.2866706,158.983356 54.2866706,149.455675 62.0085,149.455675 C69.7308057,149.455675 69.7308057,158.983356 77.4531114,158.983356 C85.1749408,158.983356 85.1749408,149.455675 92.8962938,149.455675 C100.617647,149.455675 100.617647,158.983356 108.339476,158.983356 C116.060829,158.983356 116.060829,149.455675 123.782182,149.455675 C131.504012,149.455675 131.504012,158.983356 139.225841,158.983356 C146.947671,158.983356 146.947671,149.455675 154.669976,149.455675 C162.392758,149.455675 162.392758,158.983356 170.11554,158.983356 C177.83737,158.983356 177.83737,149.455675 185.559675,149.455675 C193.281981,149.455675 193.281981,158.983356 201.004763,158.983356 C208.727069,158.983356 208.727069,149.455675 216.448898,149.455675 C224.171204,149.455675 224.171204,158.983356 231.893986,158.983356 C239.616291,158.983356 239.616291,149.455675 247.339073,149.455675 C255.061855,149.455675 255.061855,158.983356 262.784637,158.983356 C270.507896,158.983356 270.507896,149.455675 278.230678,149.455675 C285.952507,149.455675 285.952507,158.983356 293.674813,158.983356 C301.396642,158.983356 301.396642,149.455675 309.118948,149.455675 C316.84173,149.455675 316.84173,158.983356 324.564988,158.983356 C332.288246,158.983356 332.288246,149.455675 340.011028,149.455675 C347.734763,149.455675 347.734763,158.983356 355.458021,158.983356 C363.18128,158.983356 363.18128,149.455675 370.904538,149.455675 C378.629225,149.455675 378.629225,158.983356 386.353436,158.983356 C394.077647,158.983356 394.077647,149.455675 401.801858,149.455675" id="Stroke-87"></path>
                <path d="M0.238151659,139.507858 C7.95950474,139.507858 7.95950474,149.035539 15.6808578,149.035539 C23.4022109,149.035539 23.4022109,139.507858 31.123564,139.507858 C38.8444408,139.507858 38.8444408,149.035539 46.5653175,149.035539 C54.2866706,149.035539 54.2866706,139.507858 62.0085,139.507858 C69.7308057,139.507858 69.7308057,149.035539 77.4531114,149.035539 C85.1749408,149.035539 85.1749408,139.507858 92.8962938,139.507858 C100.617647,139.507858 100.617647,149.035539 108.339476,149.035539 C116.060829,149.035539 116.060829,139.507858 123.782182,139.507858 C131.504012,139.507858 131.504012,149.035539 139.225841,149.035539 C146.947671,149.035539 146.947671,139.507858 154.669976,139.507858 C162.392758,139.507858 162.392758,149.035539 170.11554,149.035539 C177.83737,149.035539 177.83737,139.507858 185.559675,139.507858 C193.281981,139.507858 193.281981,149.035539 201.004763,149.035539 C208.727069,149.035539 208.727069,139.507858 216.448898,139.507858 C224.171204,139.507858 224.171204,149.035539 231.893986,149.035539 C239.616291,149.035539 239.616291,139.507858 247.339073,139.507858 C255.061855,139.507858 255.061855,149.035539 262.784637,149.035539 C270.507896,149.035539 270.507896,139.507858 278.230678,139.507858 C285.952507,139.507858 285.952507,149.035539 293.674813,149.035539 C301.396642,149.035539 301.396642,139.507858 309.118948,139.507858 C316.84173,139.507858 316.84173,149.035539 324.564988,149.035539 C332.288246,149.035539 332.288246,139.507858 340.011028,139.507858 C347.734763,139.507858 347.734763,149.035539 355.458021,149.035539 C363.18128,149.035539 363.18128,139.507858 370.904538,139.507858 C378.629225,139.507858 378.629225,149.035539 386.353436,149.035539 C394.077647,149.035539 394.077647,139.507858 401.801858,139.507858" id="Stroke-89"></path>
                <path d="M0.238151659,129.560088 C7.95950474,129.560088 7.95950474,139.08777 15.6808578,139.08777 C23.4022109,139.08777 23.4022109,129.560088 31.123564,129.560088 C38.8444408,129.560088 38.8444408,139.08777 46.5653175,139.08777 C54.2866706,139.08777 54.2866706,129.560088 62.0085,129.560088 C69.7308057,129.560088 69.7308057,139.08777 77.4531114,139.08777 C85.1749408,139.08777 85.1749408,129.560088 92.8962938,129.560088 C100.617647,129.560088 100.617647,139.08777 108.339476,139.08777 C116.060829,139.08777 116.060829,129.560088 123.782182,129.560088 C131.504012,129.560088 131.504012,139.08777 139.225841,139.08777 C146.947671,139.08777 146.947671,129.560088 154.669976,129.560088 C162.392758,129.560088 162.392758,139.08777 170.11554,139.08777 C177.83737,139.08777 177.83737,129.560088 185.559675,129.560088 C193.281981,129.560088 193.281981,139.08777 201.004763,139.08777 C208.727069,139.08777 208.727069,129.560088 216.448898,129.560088 C224.171204,129.560088 224.171204,139.08777 231.893986,139.08777 C239.616291,139.08777 239.616291,129.560088 247.339073,129.560088 C255.061855,129.560088 255.061855,139.08777 262.784637,139.08777 C270.507896,139.08777 270.507896,129.560088 278.230678,129.560088 C285.952507,129.560088 285.952507,139.08777 293.674813,139.08777 C301.396642,139.08777 301.396642,129.560088 309.118948,129.560088 C316.84173,129.560088 316.84173,139.08777 324.564988,139.08777 C332.288246,139.08777 332.288246,129.560088 340.011028,129.560088 C347.734763,129.560088 347.734763,139.08777 355.458021,139.08777 C363.18128,139.08777 363.18128,129.560088 370.904538,129.560088 C378.629225,129.560088 378.629225,139.08777 386.353436,139.08777 C394.077647,139.08777 394.077647,129.560088 401.801858,129.560088" id="Stroke-91"></path>
                <path d="M0.238151659,119.612271 C7.95950474,119.612271 7.95950474,129.139952 15.6808578,129.139952 C23.4022109,129.139952 23.4022109,119.612271 31.123564,119.612271 C38.8444408,119.612271 38.8444408,129.139952 46.5653175,129.139952 C54.2866706,129.139952 54.2866706,119.612271 62.0085,119.612271 C69.7308057,119.612271 69.7308057,129.139952 77.4531114,129.139952 C85.1749408,129.139952 85.1749408,119.612271 92.8962938,119.612271 C100.617647,119.612271 100.617647,129.139952 108.339476,129.139952 C116.060829,129.139952 116.060829,119.612271 123.782182,119.612271 C131.504012,119.612271 131.504012,129.139952 139.225841,129.139952 C146.947671,129.139952 146.947671,119.612271 154.669976,119.612271 C162.392758,119.612271 162.392758,129.139952 170.11554,129.139952 C177.83737,129.139952 177.83737,119.612271 185.559675,119.612271 C193.281981,119.612271 193.281981,129.139952 201.004763,129.139952 C208.727069,129.139952 208.727069,119.612271 216.448898,119.612271 C224.171204,119.612271 224.171204,129.139952 231.893986,129.139952 C239.616291,129.139952 239.616291,119.612271 247.339073,119.612271 C255.061855,119.612271 255.061855,129.139952 262.784637,129.139952 C270.507896,129.139952 270.507896,119.612271 278.230678,119.612271 C285.952507,119.612271 285.952507,129.139952 293.674813,129.139952 C301.396642,129.139952 301.396642,119.612271 309.118948,119.612271 C316.84173,119.612271 316.84173,129.139952 324.564988,129.139952 C332.288246,129.139952 332.288246,119.612271 340.011028,119.612271 C347.734763,119.612271 347.734763,129.139952 355.458021,129.139952 C363.18128,129.139952 363.18128,119.612271 370.904538,119.612271 C378.629225,119.612271 378.629225,129.139952 386.353436,129.139952 C394.077647,129.139952 394.077647,119.612271 401.801858,119.612271" id="Stroke-93"></path>
                <path d="M0.238151659,109.664502 C7.95950474,109.664502 7.95950474,119.192183 15.6808578,119.192183 C23.4022109,119.192183 23.4022109,109.664502 31.123564,109.664502 C38.8444408,109.664502 38.8444408,119.192183 46.5653175,119.192183 C54.2866706,119.192183 54.2866706,109.664502 62.0085,109.664502 C69.7308057,109.664502 69.7308057,119.192183 77.4531114,119.192183 C85.1749408,119.192183 85.1749408,109.664502 92.8962938,109.664502 C100.617647,109.664502 100.617647,119.192183 108.339476,119.192183 C116.060829,119.192183 116.060829,109.664502 123.782182,109.664502 C131.504012,109.664502 131.504012,119.192183 139.225841,119.192183 C146.947671,119.192183 146.947671,109.664502 154.669976,109.664502 C162.392758,109.664502 162.392758,119.192183 170.11554,119.192183 C177.83737,119.192183 177.83737,109.664502 185.559675,109.664502 C193.281981,109.664502 193.281981,119.192183 201.004763,119.192183 C208.727069,119.192183 208.727069,109.664502 216.448898,109.664502 C224.171204,109.664502 224.171204,119.192183 231.893986,119.192183 C239.616291,119.192183 239.616291,109.664502 247.339073,109.664502 C255.061855,109.664502 255.061855,119.192183 262.784637,119.192183 C270.507896,119.192183 270.507896,109.664502 278.230678,109.664502 C285.952507,109.664502 285.952507,119.192183 293.674813,119.192183 C301.396642,119.192183 301.396642,109.664502 309.118948,109.664502 C316.84173,109.664502 316.84173,119.192183 324.564988,119.192183 C332.288246,119.192183 332.288246,109.664502 340.011028,109.664502 C347.734763,109.664502 347.734763,119.192183 355.458021,119.192183 C363.18128,119.192183 363.18128,109.664502 370.904538,109.664502 C378.629225,109.664502 378.629225,119.192183 386.353436,119.192183 C394.077647,119.192183 394.077647,109.664502 401.801858,109.664502" id="Stroke-95"></path>
                <path d="M0.238151659,99.7167321 C7.95950474,99.7167321 7.95950474,109.244413 15.6808578,109.244413 C23.4022109,109.244413 23.4022109,99.7167321 31.123564,99.7167321 C38.8444408,99.7167321 38.8444408,109.244413 46.5653175,109.244413 C54.2866706,109.244413 54.2866706,99.7167321 62.0085,99.7167321 C69.7308057,99.7167321 69.7308057,109.244413 77.4531114,109.244413 C85.1749408,109.244413 85.1749408,99.7167321 92.8962938,99.7167321 C100.617647,99.7167321 100.617647,109.244413 108.339476,109.244413 C116.060829,109.244413 116.060829,99.7167321 123.782182,99.7167321 C131.504012,99.7167321 131.504012,109.244413 139.225841,109.244413 C146.947671,109.244413 146.947671,99.7167321 154.669976,99.7167321 C162.392758,99.7167321 162.392758,109.244413 170.11554,109.244413 C177.83737,109.244413 177.83737,99.7167321 185.559675,99.7167321 C193.281981,99.7167321 193.281981,109.244413 201.004763,109.244413 C208.727069,109.244413 208.727069,99.7167321 216.448898,99.7167321 C224.171204,99.7167321 224.171204,109.244413 231.893986,109.244413 C239.616291,109.244413 239.616291,99.7167321 247.339073,99.7167321 C255.061855,99.7167321 255.061855,109.244413 262.784637,109.244413 C270.507896,109.244413 270.507896,99.7167321 278.230678,99.7167321 C285.952507,99.7167321 285.952507,109.244413 293.674813,109.244413 C301.396642,109.244413 301.396642,99.7167321 309.118948,99.7167321 C316.84173,99.7167321 316.84173,109.244413 324.564988,109.244413 C332.288246,109.244413 332.288246,99.7167321 340.011028,99.7167321 C347.734763,99.7167321 347.734763,109.244413 355.458021,109.244413 C363.18128,109.244413 363.18128,99.7167321 370.904538,99.7167321 C378.629225,99.7167321 378.629225,109.244413 386.353436,109.244413 C394.077647,109.244413 394.077647,99.7167321 401.801858,99.7167321" id="Stroke-97"></path>
                <path d="M0.238151659,89.768915 C7.95950474,89.768915 7.95950474,99.2965963 15.6808578,99.2965963 C23.4022109,99.2965963 23.4022109,89.768915 31.123564,89.768915 C38.8444408,89.768915 38.8444408,99.2965963 46.5653175,99.2965963 C54.2866706,99.2965963 54.2866706,89.768915 62.0085,89.768915 C69.7308057,89.768915 69.7308057,99.2965963 77.4531114,99.2965963 C85.1749408,99.2965963 85.1749408,89.768915 92.8962938,89.768915 C100.617647,89.768915 100.617647,99.2965963 108.339476,99.2965963 C116.060829,99.2965963 116.060829,89.768915 123.782182,89.768915 C131.504012,89.768915 131.504012,99.2965963 139.225841,99.2965963 C146.947671,99.2965963 146.947671,89.768915 154.669976,89.768915 C162.392758,89.768915 162.392758,99.2965963 170.11554,99.2965963 C177.83737,99.2965963 177.83737,89.768915 185.559675,89.768915 C193.281981,89.768915 193.281981,99.2965963 201.004763,99.2965963 C208.727069,99.2965963 208.727069,89.768915 216.448898,89.768915 C224.171204,89.768915 224.171204,99.2965963 231.893986,99.2965963 C239.616291,99.2965963 239.616291,89.768915 247.339073,89.768915 C255.061855,89.768915 255.061855,99.2965963 262.784637,99.2965963 C270.507896,99.2965963 270.507896,89.768915 278.230678,89.768915 C285.952507,89.768915 285.952507,99.2965963 293.674813,99.2965963 C301.396642,99.2965963 301.396642,89.768915 309.118948,89.768915 C316.84173,89.768915 316.84173,99.2965963 324.564988,99.2965963 C332.288246,99.2965963 332.288246,89.768915 340.011028,89.768915 C347.734763,89.768915 347.734763,99.2965963 355.458021,99.2965963 C363.18128,99.2965963 363.18128,89.768915 370.904538,89.768915 C378.629225,89.768915 378.629225,99.2965963 386.353436,99.2965963 C394.077647,99.2965963 394.077647,89.768915 401.801858,89.768915" id="Stroke-99"></path>
                <path d="M0.238151659,79.8211455 C7.95950474,79.8211455 7.95950474,89.3488268 15.6808578,89.3488268 C23.4022109,89.3488268 23.4022109,79.8211455 31.123564,79.8211455 C38.8444408,79.8211455 38.8444408,89.3488268 46.5653175,89.3488268 C54.2866706,89.3488268 54.2866706,79.8211455 62.0085,79.8211455 C69.7308057,79.8211455 69.7308057,89.3488268 77.4531114,89.3488268 C85.1749408,89.3488268 85.1749408,79.8211455 92.8962938,79.8211455 C100.617647,79.8211455 100.617647,89.3488268 108.339476,89.3488268 C116.060829,89.3488268 116.060829,79.8211455 123.782182,79.8211455 C131.504012,79.8211455 131.504012,89.3488268 139.225841,89.3488268 C146.947671,89.3488268 146.947671,79.8211455 154.669976,79.8211455 C162.392758,79.8211455 162.392758,89.3488268 170.11554,89.3488268 C177.83737,89.3488268 177.83737,79.8211455 185.559675,79.8211455 C193.281981,79.8211455 193.281981,89.3488268 201.004763,89.3488268 C208.727069,89.3488268 208.727069,79.8211455 216.448898,79.8211455 C224.171204,79.8211455 224.171204,89.3488268 231.893986,89.3488268 C239.616291,89.3488268 239.616291,79.8211455 247.339073,79.8211455 C255.061855,79.8211455 255.061855,89.3488268 262.784637,89.3488268 C270.507896,89.3488268 270.507896,79.8211455 278.230678,79.8211455 C285.952507,79.8211455 285.952507,89.3488268 293.674813,89.3488268 C301.396642,89.3488268 301.396642,79.8211455 309.118948,79.8211455 C316.84173,79.8211455 316.84173,89.3488268 324.564988,89.3488268 C332.288246,89.3488268 332.288246,79.8211455 340.011028,79.8211455 C347.734763,79.8211455 347.734763,89.3488268 355.458021,89.3488268 C363.18128,89.3488268 363.18128,79.8211455 370.904538,79.8211455 C378.629225,79.8211455 378.629225,89.3488268 386.353436,89.3488268 C394.077647,89.3488268 394.077647,79.8211455 401.801858,79.8211455" id="Stroke-101"></path>
                <path d="M0.238151659,69.8733284 C7.95950474,69.8733284 7.95950474,79.4010097 15.6808578,79.4010097 C23.4022109,79.4010097 23.4022109,69.8733284 31.123564,69.8733284 C38.8444408,69.8733284 38.8444408,79.4010097 46.5653175,79.4010097 C54.2866706,79.4010097 54.2866706,69.8733284 62.0085,69.8733284 C69.7308057,69.8733284 69.7308057,79.4010097 77.4531114,79.4010097 C85.1749408,79.4010097 85.1749408,69.8733284 92.8962938,69.8733284 C100.617647,69.8733284 100.617647,79.4010097 108.339476,79.4010097 C116.060829,79.4010097 116.060829,69.8733284 123.782182,69.8733284 C131.504012,69.8733284 131.504012,79.4010097 139.225841,79.4010097 C146.947671,79.4010097 146.947671,69.8733284 154.669976,69.8733284 C162.392758,69.8733284 162.392758,79.4010097 170.11554,79.4010097 C177.83737,79.4010097 177.83737,69.8733284 185.559675,69.8733284 C193.281981,69.8733284 193.281981,79.4010097 201.004763,79.4010097 C208.727069,79.4010097 208.727069,69.8733284 216.448898,69.8733284 C224.171204,69.8733284 224.171204,79.4010097 231.893986,79.4010097 C239.616291,79.4010097 239.616291,69.8733284 247.339073,69.8733284 C255.061855,69.8733284 255.061855,79.4010097 262.784637,79.4010097 C270.507896,79.4010097 270.507896,69.8733284 278.230678,69.8733284 C285.952507,69.8733284 285.952507,79.4010097 293.674813,79.4010097 C301.396642,79.4010097 301.396642,69.8733284 309.118948,69.8733284 C316.84173,69.8733284 316.84173,79.4010097 324.564988,79.4010097 C332.288246,79.4010097 332.288246,69.8733284 340.011028,69.8733284 C347.734763,69.8733284 347.734763,79.4010097 355.458021,79.4010097 C363.18128,79.4010097 363.18128,69.8733284 370.904538,69.8733284 C378.629225,69.8733284 378.629225,79.4010097 386.353436,79.4010097 C394.077647,79.4010097 394.077647,69.8733284 401.801858,69.8733284" id="Stroke-103"></path>
                <path d="M0.238151659,59.9255589 C7.95950474,59.9255589 7.95950474,69.4532401 15.6808578,69.4532401 C23.4022109,69.4532401 23.4022109,59.9255589 31.123564,59.9255589 C38.8444408,59.9255589 38.8444408,69.4532401 46.5653175,69.4532401 C54.2866706,69.4532401 54.2866706,59.9255589 62.0085,59.9255589 C69.7308057,59.9255589 69.7308057,69.4532401 77.4531114,69.4532401 C85.1749408,69.4532401 85.1749408,59.9255589 92.8962938,59.9255589 C100.617647,59.9255589 100.617647,69.4532401 108.339476,69.4532401 C116.060829,69.4532401 116.060829,59.9255589 123.782182,59.9255589 C131.504012,59.9255589 131.504012,69.4532401 139.225841,69.4532401 C146.947671,69.4532401 146.947671,59.9255589 154.669976,59.9255589 C162.392758,59.9255589 162.392758,69.4532401 170.11554,69.4532401 C177.83737,69.4532401 177.83737,59.9255589 185.559675,59.9255589 C193.281981,59.9255589 193.281981,69.4532401 201.004763,69.4532401 C208.727069,69.4532401 208.727069,59.9255589 216.448898,59.9255589 C224.171204,59.9255589 224.171204,69.4532401 231.893986,69.4532401 C239.616291,69.4532401 239.616291,59.9255589 247.339073,59.9255589 C255.061855,59.9255589 255.061855,69.4532401 262.784637,69.4532401 C270.507896,69.4532401 270.507896,59.9255589 278.230678,59.9255589 C285.952507,59.9255589 285.952507,69.4532401 293.674813,69.4532401 C301.396642,69.4532401 301.396642,59.9255589 309.118948,59.9255589 C316.84173,59.9255589 316.84173,69.4532401 324.564988,69.4532401 C332.288246,69.4532401 332.288246,59.9255589 340.011028,59.9255589 C347.734763,59.9255589 347.734763,69.4532401 355.458021,69.4532401 C363.18128,69.4532401 363.18128,59.9255589 370.904538,59.9255589 C378.629225,59.9255589 378.629225,69.4532401 386.353436,69.4532401 C394.077647,69.4532401 394.077647,59.9255589 401.801858,59.9255589" id="Stroke-105"></path>
                <path d="M0.238151659,49.9777418 C7.95950474,49.9777418 7.95950474,59.505423 15.6808578,59.505423 C23.4022109,59.505423 23.4022109,49.9777418 31.123564,49.9777418 C38.8444408,49.9777418 38.8444408,59.505423 46.5653175,59.505423 C54.2866706,59.505423 54.2866706,49.9777418 62.0085,49.9777418 C69.7308057,49.9777418 69.7308057,59.505423 77.4531114,59.505423 C85.1749408,59.505423 85.1749408,49.9777418 92.8962938,49.9777418 C100.617647,49.9777418 100.617647,59.505423 108.339476,59.505423 C116.060829,59.505423 116.060829,49.9777418 123.782182,49.9777418 C131.504012,49.9777418 131.504012,59.505423 139.225841,59.505423 C146.947671,59.505423 146.947671,49.9777418 154.669976,49.9777418 C162.392758,49.9777418 162.392758,59.505423 170.11554,59.505423 C177.83737,59.505423 177.83737,49.9777418 185.559675,49.9777418 C193.281981,49.9777418 193.281981,59.505423 201.004763,59.505423 C208.727069,59.505423 208.727069,49.9777418 216.448898,49.9777418 C224.171204,49.9777418 224.171204,59.505423 231.893986,59.505423 C239.616291,59.505423 239.616291,49.9777418 247.339073,49.9777418 C255.061855,49.9777418 255.061855,59.505423 262.784637,59.505423 C270.507896,59.505423 270.507896,49.9777418 278.230678,49.9777418 C285.952507,49.9777418 285.952507,59.505423 293.674813,59.505423 C301.396642,59.505423 301.396642,49.9777418 309.118948,49.9777418 C316.84173,49.9777418 316.84173,59.505423 324.564988,59.505423 C332.288246,59.505423 332.288246,49.9777418 340.011028,49.9777418 C347.734763,49.9777418 347.734763,59.505423 355.458021,59.505423 C363.18128,59.505423 363.18128,49.9777418 370.904538,49.9777418 C378.629225,49.9777418 378.629225,59.505423 386.353436,59.505423 C394.077647,59.505423 394.077647,49.9777418 401.801858,49.9777418" id="Stroke-107"></path>
                <path d="M0.238151659,40.0299723 C7.95950474,40.0299723 7.95950474,49.5576535 15.6808578,49.5576535 C23.4022109,49.5576535 23.4022109,40.0299723 31.123564,40.0299723 C38.8444408,40.0299723 38.8444408,49.5576535 46.5653175,49.5576535 C54.2866706,49.5576535 54.2866706,40.0299723 62.0085,40.0299723 C69.7308057,40.0299723 69.7308057,49.5576535 77.4531114,49.5576535 C85.1749408,49.5576535 85.1749408,40.0299723 92.8962938,40.0299723 C100.617647,40.0299723 100.617647,49.5576535 108.339476,49.5576535 C116.060829,49.5576535 116.060829,40.0299723 123.782182,40.0299723 C131.504012,40.0299723 131.504012,49.5576535 139.225841,49.5576535 C146.947671,49.5576535 146.947671,40.0299723 154.669976,40.0299723 C162.392758,40.0299723 162.392758,49.5576535 170.11554,49.5576535 C177.83737,49.5576535 177.83737,40.0299723 185.559675,40.0299723 C193.281981,40.0299723 193.281981,49.5576535 201.004763,49.5576535 C208.727069,49.5576535 208.727069,40.0299723 216.448898,40.0299723 C224.171204,40.0299723 224.171204,49.5576535 231.893986,49.5576535 C239.616291,49.5576535 239.616291,40.0299723 247.339073,40.0299723 C255.061855,40.0299723 255.061855,49.5576535 262.784637,49.5576535 C270.507896,49.5576535 270.507896,40.0299723 278.230678,40.0299723 C285.952507,40.0299723 285.952507,49.5576535 293.674813,49.5576535 C301.396642,49.5576535 301.396642,40.0299723 309.118948,40.0299723 C316.84173,40.0299723 316.84173,49.5576535 324.564988,49.5576535 C332.288246,49.5576535 332.288246,40.0299723 340.011028,40.0299723 C347.734763,40.0299723 347.734763,49.5576535 355.458021,49.5576535 C363.18128,49.5576535 363.18128,40.0299723 370.904538,40.0299723 C378.629225,40.0299723 378.629225,49.5576535 386.353436,49.5576535 C394.077647,49.5576535 394.077647,40.0299723 401.801858,40.0299723" id="Stroke-109"></path>
                <path d="M0.238151659,30.0821552 C7.95950474,30.0821552 7.95950474,39.6098364 15.6808578,39.6098364 C23.4022109,39.6098364 23.4022109,30.0821552 31.123564,30.0821552 C38.8444408,30.0821552 38.8444408,39.6098364 46.5653175,39.6098364 C54.2866706,39.6098364 54.2866706,30.0821552 62.0085,30.0821552 C69.7308057,30.0821552 69.7308057,39.6098364 77.4531114,39.6098364 C85.1749408,39.6098364 85.1749408,30.0821552 92.8962938,30.0821552 C100.617647,30.0821552 100.617647,39.6098364 108.339476,39.6098364 C116.060829,39.6098364 116.060829,30.0821552 123.782182,30.0821552 C131.504012,30.0821552 131.504012,39.6098364 139.225841,39.6098364 C146.947671,39.6098364 146.947671,30.0821552 154.669976,30.0821552 C162.392758,30.0821552 162.392758,39.6098364 170.11554,39.6098364 C177.83737,39.6098364 177.83737,30.0821552 185.559675,30.0821552 C193.281981,30.0821552 193.281981,39.6098364 201.004763,39.6098364 C208.727069,39.6098364 208.727069,30.0821552 216.448898,30.0821552 C224.171204,30.0821552 224.171204,39.6098364 231.893986,39.6098364 C239.616291,39.6098364 239.616291,30.0821552 247.339073,30.0821552 C255.061855,30.0821552 255.061855,39.6098364 262.784637,39.6098364 C270.507896,39.6098364 270.507896,30.0821552 278.230678,30.0821552 C285.952507,30.0821552 285.952507,39.6098364 293.674813,39.6098364 C301.396642,39.6098364 301.396642,30.0821552 309.118948,30.0821552 C316.84173,30.0821552 316.84173,39.6098364 324.564988,39.6098364 C332.288246,39.6098364 332.288246,30.0821552 340.011028,30.0821552 C347.734763,30.0821552 347.734763,39.6098364 355.458021,39.6098364 C363.18128,39.6098364 363.18128,30.0821552 370.904538,30.0821552 C378.629225,30.0821552 378.629225,39.6098364 386.353436,39.6098364 C394.077647,39.6098364 394.077647,30.0821552 401.801858,30.0821552" id="Stroke-111"></path>
            </g>
        </g>
    </g>
</svg>