<svg xmlns="http://www.w3.org/2000/svg" viewBox="0 0 67.1 53.82"><defs><style>.cls-1{opacity:0.4;}.cls-2,.cls-3,.cls-5{stroke:#000;}.cls-2,.cls-3,.cls-4,.cls-5{stroke-linecap:round;stroke-linejoin:round;stroke-width:1.5px;}.cls-3{fill:#fff;}.cls-4,.cls-5{fill:none;}.cls-4{stroke:#fff;}</style></defs><title>black-king-dead</title><g id="Layer_2" data-name="Layer 2"><g id="Layer_1-2" data-name="Layer 1"><g id="WhiteKing"><rect class="cls-1" x="1.66" y="42.03" width="63.77" height="11.48" rx="4.7" ry="4.7"/><path class="cls-2" d="M.75 14.33a46.39 46.39 0 0 1 65.6.006L33.552 47.132.75 14.33z"/><path class="cls-2" d="M33.55 19a25 25 0 0 1 25 25v3.65h-50V44a25 25 0 0 1 25-25z"/><circle class="cls-3" cx="27.33" cy="46.19" r="6.88" transform="rotate(-45 27.34 46.2)"/><path class="cls-2" d="M18.41 3.68c-13.16 13.16-13.16 31.5 0 44.66l3.48 3.48 12.53-12.89-1.62-1.62a15.72 15.72 0 0 1 0-22.24z"/><circle class="cls-3" cx="39.77" cy="46.19" r="6.88" transform="rotate(-45 39.77 46.2)"/><path class="cls-2" d="M34.3 15.07a15.72 15.72 0 0 1 0 22.24l-1.62 1.62 12.53 12.89 3.48-3.48c13.16-13.16 13.16-31.5 0-44.66z"/><path class="cls-4" d="M31.86 42.88l-.86-.81-.81-.81a15.67 15.67 0 0 1-4.61-11.12M41.47 30.14a15.67 15.67 0 0 1-4.61 11.12l-.81.81-.81.81"/><path class="cls-3" d="M44.31 18.19a10.76 10.76 0 0 1-21.53 0c0-5.94 4.82-9.12 10.76-9.12s10.77 3.18 10.77 9.12z"/><path class="cls-3" d="M37.13 11.05l-3.66-3.66-3.66 3.66-3.6-3.6v9.69h14.68V7.3l-3.76 3.75z"/><path class="cls-5" d="M31 23.38a2.18 2.18 0 1 1-4.36 0M40.44 23.38a2.18 2.18 0 0 1-4.36 0"/></g></g></g></svg>