<svg xmlns="http://www.w3.org/2000/svg" viewBox="0 0 68.9 61.81"><defs><style>.cls-1{opacity:0.4;}.cls-2,.cls-3,.cls-5{stroke:#000;}.cls-2,.cls-3,.cls-4,.cls-5{stroke-linecap:round;stroke-linejoin:round;stroke-width:1.5px;}.cls-3{fill:#fff;}.cls-4{stroke:#fff;}.cls-5{fill:none;}</style></defs><title>black-king</title><g id="Layer_2" data-name="Layer 2"><g id="Layer_1-2" data-name="Layer 1"><rect class="cls-1" x="2.62" y="50.33" width="63.77" height="11.48" rx="4.7" ry="4.7"/><path class="cls-2" d="M34.45 27.41a25 25 0 0 1 25 25v3.65h-50v-3.64a25 25 0 0 1 25-25z"/><circle class="cls-3" cx="8.58" cy="42.67" r="6.88"/><circle class="cls-3" cx="59.46" cy="42.67" r="6.88"/><path class="cls-2" d="M68.15 42.79v-4.92a33.7 33.7 0 0 0-33.7-33.7 33.7 33.7 0 0 0-33.7 33.7v4.92l18-.25v-2.29a15.72 15.72 0 0 1 15.7-15.73 15.72 15.72 0 0 1 15.73 15.73v2.29z"/><path class="cls-4" d="M18.73 42.54v-2.29a15.72 15.72 0 0 1 15.72-15.73 15.72 15.72 0 0 1 15.73 15.73v2.29M34.45 4.17"/><path class="cls-2" d="M1.657 16.792a46.39 46.39 0 0 1 65.605.015L34.466 49.602l-32.81-32.81z"/><path class="cls-4" d="M59.05 24.99l-8.2 8.2-8.2 8.2-8.2 8.2-8.2-8.2-8.2-8.2-8.2-8.2"/><path class="cls-3" d="M45.22 16.65a10.76 10.76 0 1 1-21.53 0c0-5.94 4.82-7.12 10.76-7.12s10.77 1.17 10.77 7.12z"/><path class="cls-3" d="M38.03 4.5L34.38.84 30.71 4.5 27.11.9v9.7h14.68V.75L38.03 4.5z"/><path class="cls-5" d="M31.92 18.19a2.18 2.18 0 0 1-4.36 0M41.35 18.19a2.18 2.18 0 1 1-4.36 0"/></g></g></svg>