<svg xmlns="http://www.w3.org/2000/svg" viewBox="0 0 369.86 371.71"><defs><style>.cls-1{fill:#f2f2f2;}.cls-1,.cls-2{stroke:#a3a3a3;stroke-width:1.06px;}.cls-1,.cls-2,.cls-3{stroke-linecap:round;stroke-linejoin:round;}.cls-2,.cls-3{fill:none;}.cls-3{stroke:#000;stroke-width:2.11px;}</style></defs><title>board</title><g id="Layer_2" data-name="Layer 2"><g id="Layer_1-2" data-name="Layer 1"><rect class="cls-1" x="184.74" y="1.06" width="92.09" height="92.09" rx="1.89" ry="1.89" transform="rotate(180 230.78 47.1)"/><rect class="cls-2" x="184.74" y="62.45" width="92.09" height="30.7" rx="1.89" ry="1.89" transform="rotate(180 230.78 77.8)"/><rect class="cls-2" x="184.85" y="1.06" width="91.98" height="30.7" rx="1.89" ry="1.89" transform="rotate(180 230.84 16.41)"/><rect class="cls-2" x="228.73" y="31.75" width="47.82" height="30.7" rx="1.89" ry="1.89"/><rect class="cls-2" x="184.63" y="31.75" width="44.1" height="30.7" rx="1.85" ry="1.85"/><circle class="cls-1" cx="246.06" cy="18.33" r="1.82"/><circle class="cls-1" cx="211.17" cy="79.68" r="1.82" transform="rotate(-75.6 211.15 79.69)"/><path class="cls-1" d="M261.95 55.86l-2.46-.91 2.02-1.67 2.01-1.68.44 2.59.44 2.58-2.45-.91z"/><path class="cls-2" d="M234.45 69.8c2.63.3 2.75-.78 5.38-.48s2.57.79 5.2 1.09 2.59.6 5.22.9 2.61.48 5.24.77 2.76-.8 5.39-.51 2.61.46 5.24.75 2.51 1.38 5.14 1.67l5.27.59"/><rect class="cls-1" x="184.63" y="93.15" width="92.09" height="92.09" rx="1.89" ry="1.89"/><rect class="cls-2" x="184.63" y="93.15" width="92.09" height="30.7" rx="1.89" ry="1.89"/><rect class="cls-2" x="184.63" y="154.54" width="91.98" height="30.7" rx="1.89" ry="1.89"/><rect class="cls-2" x="184.85" y="123.84" width="47.88" height="30.7" rx="1.89" ry="1.89" transform="rotate(180 208.79 139.19)"/><rect class="cls-2" x="232.73" y="123.84" width="44.1" height="30.7" rx="1.85" ry="1.85" transform="rotate(180 254.78 139.19)"/><circle class="cls-1" cx="215.4" cy="167.96" r="1.82"/><circle class="cls-1" cx="250.29" cy="106.61" r="1.82" transform="rotate(-75.6 250.28 106.61)"/><path class="cls-1" d="M199.52 130.43l2.45.91-2.01 1.67-2.02 1.68-.44-2.59-.44-2.58 2.46.91z"/><path class="cls-2" d="M227 116.49c-2.63-.3-2.75.78-5.38.48s-2.57-.79-5.2-1.09-2.59-.6-5.22-.9-2.61-.48-5.24-.77-2.76.8-5.39.51-2.61-.46-5.24-.75-2.51-1.38-5.14-1.67l-5.27-.59"/><rect class="cls-1" x="184.69" y="185.85" width="92.09" height="92.09" rx="1.89" ry="1.89"/><rect class="cls-2" x="184.69" y="185.85" width="92.09" height="30.7" rx="1.89" ry="1.89"/><rect class="cls-2" x="184.69" y="216.55" width="92.09" height="30.7" rx="1.89" ry="1.89"/><rect class="cls-2" x="184.69" y="247.25" width="67.14" height="30.7" rx="1.89" ry="1.89"/><rect class="cls-2" x="251.83" y="247.25" width="24.95" height="30.7" rx="1.89" ry="1.89" transform="rotate(180 264.31 262.6)"/><circle class="cls-1" cx="195.71" cy="236.15" r="1.82"/><path class="cls-1" d="M240.02 264.62l2.61.27-1.54 2.12-1.55 2.12-1.06-2.39-1.07-2.39 2.61.27zm27.23-38.83l-2.46-.91 2.02-1.67 2.02-1.68.44 2.59.44 2.58-2.46-.91z"/><circle class="cls-1" cx="255.34" cy="237.06" r="1.82" transform="rotate(-75.6 255.32 237.06)"/><path class="cls-1" d="M219.5 198.48l-2.46-.91 2.02-1.68 2.02-1.67.44 2.58.44 2.59-2.46-.91z"/><path class="cls-2" d="M184.87 230.41c7-1 6.83-2.09 13.82-3.1s7.06-.52 14-1.54 7-.71 14-1.73"/><rect class="cls-1" x="184.69" y="278.56" width="92.09" height="92.09" rx="1.89" ry="1.89"/><rect class="cls-2" x="184.69" y="278.56" width="92.09" height="30.7" rx="1.89" ry="1.89"/><rect class="cls-2" x="184.69" y="309.26" width="92.09" height="30.7" rx="1.89" ry="1.89"/><rect class="cls-2" x="184.69" y="339.95" width="67.14" height="30.7" rx="1.89" ry="1.89"/><rect class="cls-2" x="251.83" y="339.95" width="24.95" height="30.7" rx="1.89" ry="1.89" transform="rotate(180 264.31 355.3)"/><path class="cls-1" d="M198.33 293.42l2.55-.62-.73 2.51-.73 2.52-1.82-1.89-1.81-1.9 2.54-.62z"/><circle class="cls-1" cx="211.99" cy="289.08" r="1.82"/><path class="cls-1" d="M263.13 324.91l-2.61-.28 1.54-2.12 1.54-2.12 1.07 2.39 1.07 2.4-2.61-.27zm-62.25 37.5l-2.61-.27 1.54-2.12 1.54-2.13 1.07 2.4 1.07 2.39-2.61-.27z"/><circle class="cls-1" cx="220.08" cy="324.61" r="1.82" transform="rotate(-70.3 220.1 324.62)"/><path class="cls-2" d="M224 350.84c6.9 0 6.9-2.8 13.81-2.8s6.9 1.29 13.81 1.29m-.13 5.12c8.92 2.26 9.37.51 18.29 2.77"/><rect class="cls-1" x="276.72" y="1.06" width="92.09" height="92.09" rx="1.89" ry="1.89" transform="rotate(90 322.76 47.1)"/><rect class="cls-2" x="307.41" y="31.75" width="92.09" height="30.7" rx="1.89" ry="1.89" transform="rotate(90 353.46 47.1)"/><rect class="cls-2" x="276.72" y="31.75" width="92.09" height="30.7" rx="1.89" ry="1.89" transform="rotate(90 322.76 47.1)"/><rect class="cls-2" x="258.49" y="19.28" width="67.14" height="30.7" rx="1.89" ry="1.89" transform="rotate(90 292.06 34.63)"/><rect class="cls-2" x="279.59" y="65.32" width="24.95" height="30.7" rx="1.89" ry="1.89" transform="rotate(-90 292.06 80.67)"/><circle class="cls-1" cx="318.51" cy="12.08" r="1.82"/><path class="cls-1" d="M290.04 56.39l-.27 2.6-2.12-1.54-2.13-1.53 2.4-1.07 2.39-1.07-.27 2.61zm38.83 27.23l.91-2.46 1.67 2.02 1.68 2.02-2.59.44-2.59.44.92-2.46z"/><circle class="cls-1" cx="317.6" cy="71.71" r="1.82" transform="rotate(-75.6 317.58 71.72)"/><path class="cls-1" d="M356.18 35.87l.91-2.46 1.68 2.02 1.67 2.02-2.58.44-2.59.44.91-2.46z"/><path class="cls-2" d="M324.25 1.24c1 7 2.09 6.83 3.1 13.82s.52 7.06 1.54 14 .71 7 1.73 14"/><rect class="cls-1" x="276.72" y="93.15" width="92.09" height="92.09" rx="1.89" ry="1.89" transform="rotate(-90 322.76 139.19)"/><rect class="cls-2" x="246.02" y="123.84" width="92.09" height="30.7" rx="1.89" ry="1.89" transform="rotate(-90 292.06 139.19)"/><rect class="cls-2" x="276.72" y="123.84" width="92.09" height="30.7" rx="1.89" ry="1.89" transform="rotate(-90 322.76 139.19)"/><rect class="cls-2" x="319.89" y="136.31" width="67.14" height="30.7" rx="1.89" ry="1.89" transform="rotate(-90 353.46 151.66)"/><rect class="cls-2" x="340.98" y="90.27" width="24.95" height="30.7" rx="1.89" ry="1.89" transform="rotate(90 353.46 105.62)"/><circle class="cls-1" cx="327.01" cy="174.21" r="1.82"/><path class="cls-1" d="M355.48 129.9l.27-2.6 2.13 1.54 2.12 1.54-2.4 1.06-2.39 1.07.27-2.61zm-38.82-27.23l-.91 2.46-1.68-2.02-1.67-2.02 2.58-.44 2.59-.44-.91 2.46z"/><circle class="cls-1" cx="327.92" cy="114.58" r="1.82" transform="rotate(-75.6 327.9 114.59)"/><path class="cls-1" d="M289.34 150.42l-.91 2.46-1.67-2.02-1.68-2.02 2.59-.44 2.58-.44-.91 2.46z"/><path class="cls-2" d="M321.27 185.05c-1-7-2.09-6.83-3.1-13.82s-.52-7.06-1.54-14-.71-7-1.73-14"/><rect class="cls-1" x="276.72" y="185.85" width="92.09" height="92.09" rx="1.89" ry="1.89" transform="rotate(180 322.76 231.9)"/><rect class="cls-2" x="276.72" y="247.25" width="92.09" height="30.7" rx="1.89" ry="1.89" transform="rotate(180 322.76 262.6)"/><rect class="cls-2" x="276.72" y="216.55" width="92.09" height="30.7" rx="1.89" ry="1.89" transform="rotate(180 322.76 231.9)"/><rect class="cls-2" x="301.66" y="185.85" width="67.14" height="30.7" rx="1.89" ry="1.89" transform="rotate(180 335.24 201.2)"/><rect class="cls-2" x="276.72" y="185.85" width="24.95" height="30.7" rx="1.89" ry="1.89"/><circle class="cls-1" cx="357.78" cy="227.65" r="1.82"/><path class="cls-1" d="M313.48 199.18l-2.61-.27 1.54-2.13 1.54-2.12 1.06 2.4 1.07 2.39-2.6-.27zM286.24 238l2.46.91-2.02 1.68-2.02 1.67-.44-2.58-.44-2.59 2.46.91z"/><circle class="cls-1" cx="298.15" cy="226.74" r="1.82" transform="rotate(-75.6 298.12 226.74)"/><path class="cls-1" d="M333.99 265.32l2.46.91-2.02 1.67-2.01 1.68-.44-2.59-.44-2.58 2.45.91z"/><path class="cls-2" d="M368.62 233.38c-7 1-6.83 2.09-13.82 3.1s-7.06.52-14 1.54-7 .71-14 1.73"/><rect class="cls-1" x="276.72" y="278.56" width="92.09" height="92.09" rx="1.89" ry="1.89" transform="rotate(90 322.76 324.61)"/><rect class="cls-2" x="307.41" y="309.26" width="92.09" height="30.7" rx="1.89" ry="1.89" transform="rotate(90 353.45 324.61)"/><rect class="cls-2" x="276.72" y="309.26" width="92.09" height="30.7" rx="1.89" ry="1.89" transform="rotate(90 322.76 324.61)"/><rect class="cls-2" x="258.49" y="296.78" width="67.14" height="30.7" rx="1.89" ry="1.89" transform="rotate(90 292.06 312.13)"/><rect class="cls-2" x="279.59" y="342.83" width="24.95" height="30.7" rx="1.89" ry="1.89" transform="rotate(-90 292.06 358.18)"/><path class="cls-1" d="M353.95 292.21l.62 2.55-2.52-.74-2.51-.73 1.89-1.81 1.89-1.82.63 2.55z"/><circle class="cls-1" cx="358.28" cy="305.86" r="1.82"/><path class="cls-1" d="M322.46 357l.27-2.6 2.13 1.54 2.12 1.54-2.4 1.06-2.39 1.07.27-2.61zm-37.5-62.24l.27-2.61 2.12 1.54 2.12 1.54-2.39 1.07-2.4 1.06.28-2.6z"/><circle class="cls-1" cx="322.76" cy="313.95" r="1.82" transform="rotate(-70.3 322.79 313.96)"/><path class="cls-2" d="M296.52 317.83c0 6.9 2.8 6.9 2.8 13.81s-1.29 6.9-1.29 13.81m-5.11-.08c-2.26 8.92-.51 9.37-2.77 18.29"/><rect class="cls-1" x="93.14" y="1.06" width="92.09" height="92.09" rx="1.89" ry="1.89" transform="rotate(90 139.19 47.1)"/><rect class="cls-2" x="123.84" y="31.75" width="92.09" height="30.7" rx="1.89" ry="1.89" transform="rotate(90 169.88 47.1)"/><rect class="cls-2" x="93.14" y="31.75" width="92.09" height="30.7" rx="1.89" ry="1.89" transform="rotate(90 139.19 47.1)"/><rect class="cls-2" x="74.92" y="19.28" width="67.14" height="30.7" rx="1.89" ry="1.89" transform="rotate(90 108.49 34.63)"/><rect class="cls-2" x="96.02" y="65.32" width="24.95" height="30.7" rx="1.89" ry="1.89" transform="rotate(-90 108.49 80.67)"/><circle class="cls-1" cx="134.93" cy="12.08" r="1.82"/><path class="cls-1" d="M106.47 56.39l-.28 2.6-2.12-1.54-2.12-1.53 2.39-1.07 2.4-1.07-.27 2.61zm38.82 27.23l.91-2.46 1.68 2.02 1.67 2.02-2.59.44-2.58.44.91-2.46z"/><circle class="cls-1" cx="134.02" cy="71.71" r="1.82" transform="rotate(-75.6 134.02 71.71)"/><path class="cls-1" d="M172.61 35.87l.91-2.46 1.67 2.02 1.68 2.02-2.59.44-2.59.44.92-2.46z"/><path class="cls-2" d="M140.67 1.24c1 7 2.09 6.83 3.1 13.82s.52 7.06 1.54 14 .71 7 1.73 14"/><rect class="cls-1" x="93.14" y="93.15" width="92.09" height="92.09" rx="1.89" ry="1.89" transform="rotate(-90 139.19 139.19)"/><rect class="cls-2" x="62.45" y="123.84" width="92.09" height="30.7" rx="1.89" ry="1.89" transform="rotate(-90 108.49 139.19)"/><rect class="cls-2" x="93.14" y="123.84" width="92.09" height="30.7" rx="1.89" ry="1.89" transform="rotate(-90 139.19 139.19)"/><rect class="cls-2" x="136.31" y="136.31" width="67.14" height="30.7" rx="1.89" ry="1.89" transform="rotate(-90 169.88 151.66)"/><rect class="cls-2" x="157.41" y="90.27" width="24.95" height="30.7" rx="1.89" ry="1.89" transform="rotate(90 169.88 105.62)"/><circle class="cls-1" cx="143.44" cy="174.21" r="1.82"/><path class="cls-1" d="M171.91 129.9l.27-2.6 2.12 1.54 2.12 1.54-2.39 1.06-2.4 1.07.28-2.61zm-38.83-27.23l-.91 2.46-1.67-2.02-1.68-2.02 2.59-.44 2.58-.44-.91 2.46z"/><circle class="cls-1" cx="144.35" cy="114.58" r="1.82" transform="rotate(-75.6 144.34 114.58)"/><path class="cls-1" d="M105.77 150.42l-.92 2.46-1.67-2.02-1.67-2.02 2.58-.44 2.59-.44-.91 2.46z"/><path class="cls-2" d="M137.7 185.05c-1-7-2.09-6.83-3.1-13.82s-.52-7.06-1.54-14-.71-7-1.73-14"/><rect class="cls-1" x="93.14" y="185.85" width="92.09" height="92.09" rx="1.89" ry="1.89" transform="rotate(180 139.19 231.9)"/><rect class="cls-2" x="93.14" y="247.25" width="92.09" height="30.7" rx="1.89" ry="1.89" transform="rotate(180 139.19 262.6)"/><rect class="cls-2" x="93.14" y="216.55" width="92.09" height="30.7" rx="1.89" ry="1.89" transform="rotate(180 139.19 231.9)"/><rect class="cls-2" x="118.09" y="185.85" width="67.14" height="30.7" rx="1.89" ry="1.89" transform="rotate(180 151.66 201.2)"/><rect class="cls-2" x="93.14" y="185.85" width="24.95" height="30.7" rx="1.89" ry="1.89"/><circle class="cls-1" cx="174.2" cy="227.65" r="1.82"/><path class="cls-1" d="M129.9 199.18l-2.61-.27 1.54-2.13 1.54-2.12 1.07 2.4 1.07 2.39-2.61-.27zM102.67 238l2.46.91-2.02 1.68-2.02 1.67-.44-2.58-.44-2.59 2.46.91z"/><circle class="cls-1" cx="114.58" cy="226.74" r="1.82" transform="rotate(-75.6 114.56 226.73)"/><path class="cls-1" d="M150.42 265.32l2.46.91-2.02 1.67-2.02 1.68-.44-2.59-.44-2.58 2.46.91z"/><path class="cls-2" d="M185 233.38c-7 1-6.83 2.09-13.82 3.1s-7.06.52-14 1.54-7 .71-14 1.73"/><rect class="cls-1" x="93.14" y="278.56" width="92.09" height="92.09" rx="1.89" ry="1.89" transform="rotate(90 139.19 324.61)"/><rect class="cls-2" x="123.84" y="309.26" width="92.09" height="30.7" rx="1.89" ry="1.89" transform="rotate(90 169.88 324.61)"/><rect class="cls-2" x="93.14" y="309.26" width="92.09" height="30.7" rx="1.89" ry="1.89" transform="rotate(90 139.19 324.61)"/><rect class="cls-2" x="74.92" y="296.78" width="67.14" height="30.7" rx="1.89" ry="1.89" transform="rotate(90 108.49 312.13)"/><rect class="cls-2" x="96.02" y="342.83" width="24.95" height="30.7" rx="1.89" ry="1.89" transform="rotate(-90 108.49 358.18)"/><path class="cls-1" d="M170.37 292.21l.63 2.55-2.52-.74-2.52-.73 1.89-1.81 1.9-1.82.62 2.55z"/><circle class="cls-1" cx="174.71" cy="305.86" r="1.82"/><path class="cls-1" d="M138.88 357l.28-2.6 2.12 1.54 2.12 1.54-2.39 1.06-2.4 1.07.27-2.61zm-37.5-62.24l.27-2.61 2.13 1.54 2.12 1.54-2.4 1.07-2.39 1.06.27-2.6z"/><circle class="cls-1" cx="139.19" cy="313.95" r="1.82" transform="rotate(-70.3 139.2 313.96)"/><path class="cls-2" d="M112.95 317.83c0 6.9 2.8 6.9 2.8 13.81s-1.29 6.9-1.29 13.81m-5.12-.08c-2.26 8.92-.51 9.37-2.77 18.29"/><rect class="cls-1" x="1.17" y="1.06" width="92.09" height="92.09" rx="1.89" ry="1.89" transform="rotate(180 47.21 47.1)"/><rect class="cls-2" x="1.17" y="62.45" width="92.09" height="30.7" rx="1.89" ry="1.89" transform="rotate(180 47.21 77.8)"/><rect class="cls-2" x="1.27" y="1.06" width="91.98" height="30.7" rx="1.89" ry="1.89" transform="rotate(180 47.27 16.41)"/><rect class="cls-2" x="45.16" y="31.75" width="47.82" height="30.7" rx="1.89" ry="1.89"/><rect class="cls-2" x="1.06" y="31.75" width="44.1" height="30.7" rx="1.85" ry="1.85"/><circle class="cls-1" cx="62.49" cy="18.33" r="1.82"/><circle class="cls-1" cx="27.59" cy="79.68" r="1.82" transform="rotate(-75.6 27.58 79.68)"/><path class="cls-1" d="M78.37 55.86l-2.46-.91 2.02-1.67 2.02-1.68.44 2.59.44 2.58-2.46-.91z"/><path class="cls-2" d="M50.88 69.8c2.63.3 2.75-.78 5.38-.48s2.57.79 5.2 1.09 2.59.6 5.22.9 2.61.48 5.24.77 2.76-.8 5.39-.51 2.61.46 5.24.75S85.07 73.7 87.7 74l5.27.59"/><rect class="cls-1" x="1.06" y="93.15" width="92.09" height="92.09" rx="1.89" ry="1.89"/><rect class="cls-2" x="1.06" y="93.15" width="92.09" height="30.7" rx="1.89" ry="1.89"/><rect class="cls-2" x="1.06" y="154.54" width="91.98" height="30.7" rx="1.89" ry="1.89"/><rect class="cls-2" x="1.27" y="123.84" width="47.88" height="30.7" rx="1.89" ry="1.89" transform="rotate(180 25.21 139.19)"/><rect class="cls-2" x="49.16" y="123.84" width="44.1" height="30.7" rx="1.85" ry="1.85" transform="rotate(180 71.2 139.19)"/><circle class="cls-1" cx="31.82" cy="167.96" r="1.82"/><circle class="cls-1" cx="66.72" cy="106.61" r="1.82" transform="rotate(-75.6 66.71 106.6)"/><path class="cls-1" d="M15.94 130.43l2.46.91-2.02 1.67-2.02 1.68-.44-2.59-.44-2.58 2.46.91z"/><path class="cls-2" d="M43.43 116.49c-2.63-.3-2.75.78-5.38.48s-2.57-.79-5.2-1.09-2.59-.6-5.22-.9-2.61-.48-5.24-.77-2.76.8-5.39.51-2.61-.46-5.24-.75-2.51-1.38-5.14-1.67l-5.27-.59"/><rect class="cls-1" x="1.11" y="185.85" width="92.09" height="92.09" rx="1.89" ry="1.89"/><rect class="cls-2" x="1.11" y="185.85" width="92.09" height="30.7" rx="1.89" ry="1.89"/><rect class="cls-2" x="1.11" y="216.55" width="92.09" height="30.7" rx="1.89" ry="1.89"/><rect class="cls-2" x="1.11" y="247.25" width="67.14" height="30.7" rx="1.89" ry="1.89"/><rect class="cls-2" x="68.25" y="247.25" width="24.95" height="30.7" rx="1.89" ry="1.89" transform="rotate(180 80.72 262.6)"/><circle class="cls-1" cx="12.14" cy="236.15" r="1.82"/><path class="cls-1" d="M56.44 264.62l2.61.27-1.54 2.12-1.54 2.12-1.07-2.39-1.07-2.39 2.61.27zm27.23-38.83l-2.45-.91 2.01-1.67 2.02-1.68.44 2.59.44 2.58-2.46-.91z"/><circle class="cls-1" cx="71.76" cy="237.06" r="1.82" transform="rotate(-75.6 71.75 237.05)"/><path class="cls-1" d="M35.92 198.48l-2.46-.91 2.02-1.68 2.02-1.67.44 2.58.44 2.59-2.46-.91z"/><path class="cls-2" d="M1.29 230.41c7-1 6.83-2.09 13.82-3.1s7.06-.52 14-1.54 7-.71 14-1.73"/><rect class="cls-1" x="1.11" y="278.56" width="92.09" height="92.09" rx="1.89" ry="1.89"/><rect class="cls-2" x="1.11" y="278.56" width="92.09" height="30.7" rx="1.89" ry="1.89"/><rect class="cls-2" x="1.11" y="309.26" width="92.09" height="30.7" rx="1.89" ry="1.89"/><rect class="cls-2" x="1.11" y="339.95" width="67.14" height="30.7" rx="1.89" ry="1.89"/><rect class="cls-2" x="68.25" y="339.95" width="24.95" height="30.7" rx="1.89" ry="1.89" transform="rotate(180 80.72 355.3)"/><path class="cls-1" d="M14.76 293.42l2.55-.62-.74 2.51-.73 2.52-1.81-1.89-1.82-1.9 2.55-.62z"/><circle class="cls-1" cx="28.41" cy="289.08" r="1.82"/><path class="cls-1" d="M79.55 324.91l-2.6-.28 1.54-2.12 1.54-2.12 1.06 2.39 1.07 2.4-2.61-.27zm-62.24 37.5l-2.61-.27 1.54-2.12 1.54-2.13 1.07 2.4 1.06 2.39-2.6-.27z"/><circle class="cls-1" cx="36.5" cy="324.61" r="1.82" transform="rotate(-70.3 36.52 324.62)"/><path class="cls-2" d="M40.38 350.84c6.9 0 6.9-2.8 13.81-2.8s6.9 1.29 13.81 1.29m-.08 5.12c8.92 2.26 9.37.51 18.29 2.77"/><path class="cls-3" d="M274.94 1.06h-88.31a1.89 1.89 0 0 0-1.89 1.89V33a1.84 1.84 0 0 0-.11.6v27a1.84 1.84 0 0 0 .11.6v30.06a1.89 1.89 0 0 0 1.89 1.89h88.31a1.89 1.89 0 0 0 1.89-1.89V2.95a1.89 1.89 0 0 0-1.89-1.89z"/><path class="cls-3" d="M276.72 122V95a1.89 1.89 0 0 0-1.89-1.89h-88.31a1.89 1.89 0 0 0-1.89 1.89v88.31a1.89 1.89 0 0 0 1.89 1.89h88.31a1.89 1.89 0 0 0 1.89-1.89v-30.02a1.84 1.84 0 0 0 .11-.6v-27a1.84 1.84 0 0 0-.11-.6zm-1.83 63.85h-88.32a1.89 1.89 0 0 0-1.89 1.89v88.31a1.89 1.89 0 0 0 1.89 1.89h88.31a1.89 1.89 0 0 0 1.89-1.89v-88.31a1.89 1.89 0 0 0-1.88-1.89zm0 92.71h-88.32a1.89 1.89 0 0 0-1.89 1.89v88.31a1.89 1.89 0 0 0 1.89 1.89h88.31a1.89 1.89 0 0 0 1.89-1.89v-88.31a1.89 1.89 0 0 0-1.88-1.89zm92.03-277.5h-88.31a1.89 1.89 0 0 0-1.89 1.89v88.31a1.89 1.89 0 0 0 1.89 1.89h88.31a1.89 1.89 0 0 0 1.89-1.89V2.95a1.89 1.89 0 0 0-1.89-1.89z"/><path class="cls-3" d="M366.92 93.15h-88.31a1.89 1.89 0 0 0-1.89 1.85v88.31a1.89 1.89 0 0 0 1.89 1.89h88.31a1.89 1.89 0 0 0 1.89-1.89V95a1.89 1.89 0 0 0-1.89-1.85zm0 92.7h-88.31a1.89 1.89 0 0 0-1.89 1.89v88.31a1.89 1.89 0 0 0 1.89 1.89h88.31a1.89 1.89 0 0 0 1.89-1.89v-88.31a1.89 1.89 0 0 0-1.89-1.89zm0 92.71h-88.31a1.89 1.89 0 0 0-1.89 1.89v88.31a1.89 1.89 0 0 0 1.89 1.89h88.31a1.89 1.89 0 0 0 1.89-1.89v-88.31a1.89 1.89 0 0 0-1.89-1.89zM183.34 1.06H95a1.89 1.89 0 0 0-1.89 1.89v88.31A1.89 1.89 0 0 0 95 93.15h88.31a1.89 1.89 0 0 0 1.89-1.89V2.95a1.89 1.89 0 0 0-1.86-1.89zm0 92.09H95A1.89 1.89 0 0 0 93.14 95v88.31a1.89 1.89 0 0 0 1.86 1.92h88.31a1.89 1.89 0 0 0 1.89-1.89V95a1.89 1.89 0 0 0-1.86-1.85zm0 92.7H95a1.89 1.89 0 0 0-1.89 1.89v88.31a1.89 1.89 0 0 0 1.89 1.89h88.31a1.89 1.89 0 0 0 1.89-1.89v-88.31a1.89 1.89 0 0 0-1.86-1.89zm0 92.71H95a1.89 1.89 0 0 0-1.89 1.89v88.31a1.89 1.89 0 0 0 1.89 1.89h88.31a1.89 1.89 0 0 0 1.89-1.89v-88.31a1.89 1.89 0 0 0-1.86-1.89z"/><path class="cls-3" d="M91.37 1.06H3.05a1.89 1.89 0 0 0-1.88 1.89V33a1.84 1.84 0 0 0-.11.6v27a1.84 1.84 0 0 0 .11.6v30.06a1.89 1.89 0 0 0 1.89 1.89h88.31a1.89 1.89 0 0 0 1.89-1.89V2.95a1.89 1.89 0 0 0-1.89-1.89z"/><path class="cls-3" d="M93.15 122V95a1.89 1.89 0 0 0-1.89-1.89H2.95A1.89 1.89 0 0 0 1.06 95v88.31a1.89 1.89 0 0 0 1.89 1.89h88.31a1.89 1.89 0 0 0 1.89-1.89v-30.02a1.84 1.84 0 0 0 .11-.6v-27a1.84 1.84 0 0 0-.11-.6zm-1.84 63.85H3a1.89 1.89 0 0 0-1.89 1.89v88.31A1.89 1.89 0 0 0 3 277.94h88.31a1.89 1.89 0 0 0 1.89-1.89v-88.31a1.89 1.89 0 0 0-1.89-1.89zm0 92.71H3a1.89 1.89 0 0 0-1.89 1.89v88.31A1.89 1.89 0 0 0 3 370.65h88.31a1.89 1.89 0 0 0 1.89-1.89v-88.31a1.89 1.89 0 0 0-1.89-1.89z"/></g></g></svg>