<svg xmlns="http://www.w3.org/2000/svg" viewBox="0 0 135.98 57.11"><defs><style>.cls-1{fill:#fff;stroke:#000;stroke-linecap:round;stroke-linejoin:round;stroke-width:2px;}</style></defs><title>logo</title><g id="Layer_2" data-name="Layer 2"><g id="Layer_1-2" data-name="Layer 1"><path class="cls-1" d="M19.65 2.06c14.72 0 22.58 9 22.58 26 0 17.81-7.71 27-22.58 27H1v-53zm-5.17 42.16h3.12c7.6 0 10.91-4.85 10.91-15.94C28.5 17.89 25 12.9 17.6 12.9h-3.12zM73.48 43.41H60L57.51 55H44.14l15-53h16.47l15 53H75.94zm-2.09-9.69L67.2 14h-.7l-4.33 19.72zM113.87 56.11c-13.22 0-21.11-8.85-21.11-23.65v-7.81C92.76 9.85 100.65 1 113.87 1S135 9.85 135 24.65v7.82c0 14.8-7.91 23.64-21.13 23.64zm7.42-23.79v-7.53c0-8.67-2.31-12.63-7.42-12.63s-7.42 4-7.42 12.63v7.53c0 8.67 2.31 12.63 7.42 12.63s7.42-3.95 7.42-12.63z"/></g></g></svg>