<?xml version="1.0" encoding="UTF-8" standalone="no"?>
<svg width="88px" height="103px" viewBox="0 0 88 103" version="1.1" xmlns="http://www.w3.org/2000/svg" xmlns:xlink="http://www.w3.org/1999/xlink">
    <!-- Generator: Sketch 39.1 (31720) - http://www.bohemiancoding.com/sketch -->
    <title>tile c highlight</title>
    <desc>Created with Sketch.</desc>
    <defs></defs>
    <g id="Assets" stroke="none" stroke-width="1" fill="none" fill-rule="evenodd">
        <g id="tile-c-highlight">
            <g>
                <polygon id="Fill-63" fill="#E5E5E5" points="0.287 101.883 13.177 101.883 13.177 83.947 0.287 83.947"></polygon>
                <polygon id="Stroke-64" stroke="#000000" stroke-linecap="round" stroke-linejoin="round" points="0.287 101.883 13.177 101.883 13.177 83.947 0.287 83.947"></polygon>
                <g id="Group-67" transform="translate(9.000000, 89.697000)">
                    <path d="M0.978,7.882 C1.115,2.744 0.929,1.031 0.895,0.797" id="Fill-65" fill="#F5F5F5"></path>
                    <path d="M0.978,7.882 C1.115,2.744 0.929,1.031 0.895,0.797" id="Stroke-66" stroke="#000000" stroke-linecap="round" stroke-linejoin="round"></path>
                </g>
                <g id="Group-70" transform="translate(3.000000, 83.697000)">
                    <path d="M0.659,0.2524 C0.48,3.3234 0.537,6.4084 0.831,9.4704" id="Fill-68" fill="#F5F5F5"></path>
                    <path d="M0.659,0.2524 C0.48,3.3234 0.537,6.4084 0.831,9.4704" id="Stroke-69" stroke="#000000" stroke-linecap="round" stroke-linejoin="round"></path>
                </g>
                <polygon id="Fill-71" fill="#E5E5E5" points="74.54 101.883 87.43 101.883 87.43 83.947 74.54 83.947"></polygon>
                <polygon id="Stroke-72" stroke="#000000" stroke-linecap="round" stroke-linejoin="round" points="74.54 101.883 87.43 101.883 87.43 83.947 74.54 83.947"></polygon>
                <g id="Group-75" transform="translate(84.000000, 87.697000)">
                    <path d="M0.2316,0.5542 C0.3686,5.6922 0.1826,7.4052 0.1486,7.6392" id="Fill-73" fill="#F5F5F5"></path>
                    <path d="M0.2316,0.5542 C0.3686,5.6922 0.1826,7.4052 0.1486,7.6392" id="Stroke-74" stroke="#000000" stroke-linecap="round" stroke-linejoin="round"></path>
                </g>
                <g id="Group-78" transform="translate(77.000000, 91.697000)">
                    <path d="M0.9125,10.1837 C0.7335,7.1127 0.7905,4.0277 1.0845,0.9657" id="Fill-76" fill="#F5F5F5"></path>
                    <path d="M0.9125,10.1837 C0.7335,7.1127 0.7905,4.0277 1.0845,0.9657" id="Stroke-77" stroke="#000000" stroke-linecap="round" stroke-linejoin="round"></path>
                </g>
                <path d="M2.0739,0.4998 L85.6429,0.4998 C86.6299,0.4998 87.4299,1.2998 87.4299,2.2868 L87.4299,85.8558 C87.4299,86.8428 86.6299,87.6428 85.6429,87.6428 L2.0739,87.6428 C1.0869,87.6428 0.2869,86.8428 0.2869,85.8558 L0.2869,2.2868 C0.2869,1.2998 1.0869,0.4998 2.0739,0.4998" id="Fill-79" fill="#F5F5F5"></path>
                <path d="M2.0739,0.4998 L85.6429,0.4998 C86.6299,0.4998 87.4299,1.2998 87.4299,2.2868 L87.4299,85.8558 C87.4299,86.8428 86.6299,87.6428 85.6429,87.6428 L2.0739,87.6428 C1.0869,87.6428 0.2869,86.8428 0.2869,85.8558 L0.2869,2.2868 C0.2869,1.2998 1.0869,0.4998 2.0739,0.4998 L2.0739,0.4998 Z" id="Stroke-80" stroke="#000000" stroke-linecap="round" stroke-linejoin="round"></path>
                <path d="M2.0739,58.5953 L85.6429,58.5953 C86.6299,58.5953 87.4299,59.3953 87.4299,60.3823 L87.4299,85.8563 C87.4299,86.8433 86.6299,87.6433 85.6429,87.6433 L2.0739,87.6433 C1.0869,87.6433 0.2869,86.8433 0.2869,85.8563 L0.2869,60.3823 C0.2869,59.3953 1.0869,58.5953 2.0739,58.5953" id="Fill-81" fill="#F5F5F5"></path>
                <path d="M2.0739,58.5953 L85.6429,58.5953 C86.6299,58.5953 87.4299,59.3953 87.4299,60.3823 L87.4299,85.8563 C87.4299,86.8433 86.6299,87.6433 85.6429,87.6433 L2.0739,87.6433 C1.0869,87.6433 0.2869,86.8433 0.2869,85.8563 L0.2869,60.3823 C0.2869,59.3953 1.0869,58.5953 2.0739,58.5953 L2.0739,58.5953 Z" id="Stroke-82" stroke="#000000" stroke-linecap="round" stroke-linejoin="round"></path>
                <path d="M2.0739,29.5476 L85.6429,29.5476 C86.6299,29.5476 87.4299,30.3476 87.4299,31.3346 L87.4299,56.8086 C87.4299,57.7956 86.6299,58.5956 85.6429,58.5956 L2.0739,58.5956 C1.0869,58.5956 0.2869,57.7956 0.2869,56.8086 L0.2869,31.3346 C0.2869,30.3476 1.0869,29.5476 2.0739,29.5476" id="Fill-83" fill="#F5F5F5"></path>
                <path d="M2.0739,29.5476 L85.6429,29.5476 C86.6299,29.5476 87.4299,30.3476 87.4299,31.3346 L87.4299,56.8086 C87.4299,57.7956 86.6299,58.5956 85.6429,58.5956 L2.0739,58.5956 C1.0869,58.5956 0.2869,57.7956 0.2869,56.8086 L0.2869,31.3346 C0.2869,30.3476 1.0869,29.5476 2.0739,29.5476 L2.0739,29.5476 Z" id="Stroke-84" stroke="#000000" stroke-linecap="round" stroke-linejoin="round"></path>
                <path d="M25.6793,0.4998 L85.6433,0.4998 C86.6303,0.4998 87.4303,1.2998 87.4303,2.2868 L87.4303,27.7608 C87.4303,28.7478 86.6303,29.5478 85.6433,29.5478 L25.6793,29.5478 C24.6923,29.5478 23.8923,28.7478 23.8923,27.7608 L23.8923,2.2868 C23.8923,1.2998 24.6923,0.4998 25.6793,0.4998" id="Fill-85" fill="#F5F5F5"></path>
                <path d="M25.6793,0.4998 L85.6433,0.4998 C86.6303,0.4998 87.4303,1.2998 87.4303,2.2868 L87.4303,27.7608 C87.4303,28.7478 86.6303,29.5478 85.6433,29.5478 L25.6793,29.5478 C24.6923,29.5478 23.8923,28.7478 23.8923,27.7608 L23.8923,2.2868 C23.8923,1.2998 24.6923,0.4998 25.6793,0.4998 L25.6793,0.4998 Z" id="Stroke-86" stroke="#000000" stroke-linecap="round" stroke-linejoin="round"></path>
                <path d="M22.1054,0.4998 L2.0734,0.4998 C1.0874,0.4998 0.2874,1.2998 0.2874,2.2868 L0.2874,27.7608 C0.2874,28.7478 1.0874,29.5478 2.0734,29.5478 L22.1054,29.5478 C23.0924,29.5478 23.8924,28.7478 23.8924,27.7608 L23.8924,2.2868 C23.8924,1.2998 23.0924,0.4998 22.1054,0.4998" id="Fill-87" fill="#F5F5F5"></path>
                <path d="M22.1054,0.4998 L2.0734,0.4998 C1.0874,0.4998 0.2874,1.2998 0.2874,2.2868 L0.2874,27.7608 C0.2874,28.7478 1.0874,29.5478 2.0734,29.5478 L22.1054,29.5478 C23.0924,29.5478 23.8924,28.7478 23.8924,27.7608 L23.8924,2.2868 C23.8924,1.2998 23.0924,0.4998 22.1054,0.4998 L22.1054,0.4998 Z" id="Stroke-88" stroke="#000000" stroke-linecap="round" stroke-linejoin="round"></path>
                <path d="M78.7191,40.0478 C78.7191,40.9998 77.9471,41.7708 76.9961,41.7708 C76.0441,41.7708 75.2731,40.9998 75.2731,40.0478 C75.2731,39.0958 76.0441,38.3248 76.9961,38.3248 C77.9471,38.3248 78.7191,39.0958 78.7191,40.0478" id="Fill-89" fill="#F5F5F5"></path>
                <path d="M78.7191,40.0478 C78.7191,40.9998 77.9471,41.7708 76.9961,41.7708 C76.0441,41.7708 75.2731,40.9998 75.2731,40.0478 C75.2731,39.0958 76.0441,38.3248 76.9961,38.3248 C77.9471,38.3248 78.7191,39.0958 78.7191,40.0478 L78.7191,40.0478 Z" id="Stroke-90" stroke="#000000" stroke-linecap="round" stroke-linejoin="round"></path>
                <polygon id="Fill-91" fill="#F5F5F5" points="35.0716 13.1087 32.6036 12.8517 34.0606 10.8427 35.5176 8.8337 36.5286 11.0997 37.5396 13.3657"></polygon>
                <polygon id="Stroke-92" stroke="#000000" stroke-linecap="round" stroke-linejoin="round" points="35.0716 13.1087 32.6036 12.8517 34.0606 10.8427 35.5176 8.8337 36.5286 11.0997 37.5396 13.3657"></polygon>
                <polygon id="Fill-93" fill="#F5F5F5" points="9.3004 49.8484 11.6274 50.7114 9.7164 52.2944 7.8064 53.8784 7.3904 51.4324 6.9734 48.9854"></polygon>
                <polygon id="Stroke-94" stroke="#000000" stroke-linecap="round" stroke-linejoin="round" points="9.3004 49.8484 11.6274 50.7114 9.7164 52.2944 7.8064 53.8784 7.3904 51.4324 6.9734 48.9854"></polygon>
                <path d="M18.9016,38.7592 C19.1376,37.8372 20.0766,37.2812 20.9986,37.5182 C21.9206,37.7542 22.4766,38.6932 22.2396,39.6152 C22.0036,40.5372 21.0646,41.0932 20.1426,40.8562 C19.2206,40.6202 18.6656,39.6812 18.9016,38.7592" id="Fill-95" fill="#F5F5F5"></path>
                <path d="M18.9016,38.7592 C19.1376,37.8372 20.0766,37.2812 20.9986,37.5182 C21.9206,37.7542 22.4766,38.6932 22.2396,39.6152 C22.0036,40.5372 21.0646,41.0932 20.1426,40.8562 C19.2206,40.6202 18.6656,39.6812 18.9016,38.7592 L18.9016,38.7592 Z" id="Stroke-96" stroke="#000000" stroke-linecap="round" stroke-linejoin="round"></path>
                <polygon id="Fill-97" fill="#F5F5F5" points="54.4884 75.697 56.8154 76.56 54.9044 78.143 52.9944 79.727 52.5784 77.281 52.1614 74.834"></polygon>
                <polygon id="Stroke-98" stroke="#000000" stroke-linecap="round" stroke-linejoin="round" points="54.4884 75.697 56.8154 76.56 54.9044 78.143 52.9944 79.727 52.5784 77.281 52.1614 74.834"></polygon>
                <path d="M87.2566,45.4786 C80.6466,46.4406 80.7936,47.4546 74.1836,48.4166 C67.5716,49.3776 67.5046,48.9116 60.8926,49.8736 C54.2816,50.8356 54.2396,50.5446 47.6276,51.5056" id="Stroke-99" stroke="#000000" stroke-linecap="round" stroke-linejoin="round"></path>
                <rect id="Rectangle-2" fill="#FFD900" style="mix-blend-mode: multiply;" x="0" y="0" width="87" height="87" rx="2"></rect>
            </g>
        </g>
    </g>
</svg>