<?xml version="1.0" encoding="UTF-8" standalone="no"?>
<svg width="79px" height="79px" viewBox="0 0 79 79" version="1.1" xmlns="http://www.w3.org/2000/svg" xmlns:xlink="http://www.w3.org/1999/xlink">
    <!-- Generator: Sketch 39.1 (31720) - http://www.bohemiancoding.com/sketch -->
    <title>white-piece</title>
    <desc>Created with Sketch.</desc>
    <defs></defs>
    <g id="Assets" stroke="none" stroke-width="1" fill="none" fill-rule="evenodd">
        <g id="white-piece">
            <g transform="translate(5.000000, 9.000000)">
                <path d="M61.8281,61.4261 L7.4531,61.4261 C4.8581,61.4261 2.7561,59.3231 2.7561,56.7291 L2.7561,54.6381 C2.7561,52.0441 4.8581,49.9411 7.4531,49.9411 L61.8281,49.9411 C64.4231,49.9411 66.5251,52.0441 66.5251,54.6381 L66.5251,56.7291 C66.5251,59.3231 64.4231,61.4261 61.8281,61.4261 L61.8281,61.4261 Z" id="Fill-1" fill="#000000" opacity="0.299265392"></path>
                <path d="M34.583,27.0247 L34.583,27.0247 C20.77,27.0247 9.573,38.2217 9.573,52.0347 L9.573,55.6837 L59.593,55.6837 L59.593,52.0347 C59.593,38.2217 48.396,27.0247 34.583,27.0247" id="Fill-3" fill="#FFFFFF"></path>
                <path d="M34.583,27.0247 L34.583,27.0247 C20.77,27.0247 9.573,38.2217 9.573,52.0347 L9.573,55.6837 L59.593,55.6837 L59.593,52.0347 C59.593,38.2217 48.396,27.0247 34.583,27.0247 L34.583,27.0247 Z" id="Stroke-5" stroke="#000000" stroke-width="2.5" stroke-linecap="round" stroke-linejoin="round"></path>
                <path d="M15.583,42.2771 C15.583,46.0741 12.505,49.1521 8.708,49.1521 C4.911,49.1521 1.833,46.0741 1.833,42.2771 C1.833,38.4801 4.911,35.4021 8.708,35.4021 C12.505,35.4021 15.583,38.4801 15.583,42.2771" id="Fill-7" fill="#FFFFFF"></path>
                <path d="M15.583,42.2771 C15.583,46.0741 12.505,49.1521 8.708,49.1521 C4.911,49.1521 1.833,46.0741 1.833,42.2771 C1.833,38.4801 4.911,35.4021 8.708,35.4021 C12.505,35.4021 15.583,38.4801 15.583,42.2771 L15.583,42.2771 Z" id="Stroke-9" stroke="#000000" stroke-width="2.5" stroke-linecap="round" stroke-linejoin="round"></path>
                <path d="M66.4678,42.2771 C66.4678,46.0741 63.3898,49.1521 59.5928,49.1521 C55.7958,49.1521 52.7178,46.0741 52.7178,42.2771 C52.7178,38.4801 55.7958,35.4021 59.5928,35.4021 C63.3898,35.4021 66.4678,38.4801 66.4678,42.2771" id="Fill-11" fill="#FFFFFF"></path>
                <path d="M66.4678,42.2771 C66.4678,46.0741 63.3898,49.1521 59.5928,49.1521 C55.7958,49.1521 52.7178,46.0741 52.7178,42.2771 C52.7178,38.4801 55.7958,35.4021 59.5928,35.4021 C63.3898,35.4021 66.4678,38.4801 66.4678,42.2771 L66.4678,42.2771 Z" id="Stroke-13" stroke="#000000" stroke-width="2.5" stroke-linecap="round" stroke-linejoin="round"></path>
                <path d="M68.2842,42.4036 L68.2842,37.4866 C68.2842,18.8736 53.1952,3.7846 34.5832,3.7846 C15.9702,3.7846 0.8822,18.8736 0.8822,37.4866 L0.8822,42.4036 L18.8582,42.1556 L18.8582,39.8616 C18.8582,31.1766 25.8982,24.1376 34.5832,24.1376 C43.2662,24.1376 50.3062,31.1766 50.3062,39.8616 L50.3062,42.1556 L68.2842,42.4036 Z" id="Fill-15" fill="#FFFFFF"></path>
                <path d="M68.2842,42.4036 L68.2842,37.4866 C68.2842,18.8736 53.1952,3.7846 34.5832,3.7846 C15.9702,3.7846 0.8822,18.8736 0.8822,37.4866 L0.8822,42.4036 L18.8582,42.1556 L18.8582,39.8616 C18.8582,31.1766 25.8982,24.1376 34.5832,24.1376 C43.2662,24.1376 50.3062,31.1766 50.3062,39.8616 L50.3062,42.1556 L68.2842,42.4036 L68.2842,42.4036 Z" id="Stroke-17" stroke="#000000" stroke-width="2.5" stroke-linecap="round" stroke-linejoin="round"></path>
                <path d="M67.3818,16.4026 L34.5828,49.2016 L1.7828,16.4026 C19.8978,-1.7124 49.2678,-1.7124 67.3818,16.4026" id="Fill-19" fill="#FFFFFF"></path>
                <path d="M67.3818,16.4026 L34.5828,49.2016 L1.7828,16.4026 C19.8978,-1.7124 49.2678,-1.7124 67.3818,16.4026 L67.3818,16.4026 Z" id="Stroke-21" stroke="#000000" stroke-width="2.5" stroke-linecap="round" stroke-linejoin="round"></path>
                <path d="M45.3467,16.2605 C45.3467,22.2055 40.5277,27.0245 34.5827,27.0245 C28.6377,27.0245 23.8197,22.2055 23.8197,16.2605 C23.8197,10.3165 28.6377,9.1435 34.5827,9.1435 C40.5277,9.1435 45.3467,10.3165 45.3467,16.2605" id="Fill-23" fill="#FFFFFF"></path>
                <path d="M45.3467,16.2605 C45.3467,22.2055 40.5277,27.0245 34.5827,27.0245 C28.6377,27.0245 23.8197,22.2055 23.8197,16.2605 C23.8197,10.3165 28.6377,9.1435 34.5827,9.1435 C40.5277,9.1435 45.3467,10.3165 45.3467,16.2605 L45.3467,16.2605 Z" id="Stroke-25" stroke="#000000" stroke-width="2.5" stroke-linecap="round" stroke-linejoin="round"></path>
                <polygon id="Fill-27" fill="#FFFFFF" points="38.167 4.1165 34.507 0.4565 30.847 4.1165 27.244 0.5145 27.244 10.2075 41.921 10.2075 41.921 0.3625"></polygon>
                <polygon id="Stroke-29" stroke="#000000" stroke-width="2.5" stroke-linecap="round" stroke-linejoin="round" points="38.167 4.1165 34.507 0.4565 30.847 4.1165 27.244 0.5145 27.244 10.2075 41.921 10.2075 41.921 0.3625"></polygon>
                <path d="M32.0488,17.8015 C32.0488,19.0055 31.0728,19.9815 29.8688,19.9815 C28.6648,19.9815 27.6888,19.0055 27.6888,17.8015" id="Stroke-31" stroke="#000000" stroke-width="2.5" stroke-linecap="round" stroke-linejoin="round"></path>
                <path d="M41.4766,17.8015 C41.4766,19.0055 40.5006,19.9815 39.2966,19.9815 C38.0926,19.9815 37.1166,19.0055 37.1166,17.8015" id="Stroke-33" stroke="#000000" stroke-width="2.5" stroke-linecap="round" stroke-linejoin="round"></path>
            </g>
        </g>
    </g>
</svg>