<svg xmlns="http://www.w3.org/2000/svg" xmlns:xlink="http://www.w3.org/1999/xlink" viewBox="0 0 66.52 59.68"><defs><style>.cls-1{opacity:0.4;}.cls-2{fill:#fff;}.cls-2,.cls-3{stroke:#000;stroke-linecap:round;stroke-linejoin:round;stroke-width:3px;}.cls-3{fill:none;}</style><symbol id="WhiteKing" data-name="WhiteKing" viewBox="0 0 137.81 123.63"><rect class="cls-1" x="5.25" y="100.66" width="127.54" height="22.97" rx="9.39" ry="9.39"/><path class="cls-2" d="M68.9 54.82a50 50 0 0 1 50 50v7.3h-100v-7.3a50 50 0 0 1 50-50z"/><circle class="cls-2" cx="17.15" cy="85.33" r="13.75"/><circle class="cls-2" cx="118.92" cy="85.33" r="13.75"/><path class="cls-2" d="M136.31 85.58v-9.83A67.4 67.4 0 0 0 68.9 8.35a67.4 67.4 0 0 0-67.4 67.4v9.83l36-.5V80.5A31.45 31.45 0 0 1 68.9 49a31.45 31.45 0 0 1 31.45 31.5v4.59z"/><path class="cls-2" d="M134.5 33.58l-65.6 65.6-65.6-65.6a92.77 92.77 0 0 1 131.2 0z"/><path class="cls-2" d="M90.43 33.3a21.53 21.53 0 1 1-43.06 0c0-11.89 9.64-14.23 21.53-14.23s21.53 2.34 21.53 14.23z"/><path class="cls-2" d="M76.07 9.01l-7.32-7.32-7.32 7.32-7.2-7.21v19.39h29.35V1.5l-7.51 7.51z"/><path class="cls-3" d="M63.84 36.38a4.36 4.36 0 1 1-8.72 0m27.57 0a4.36 4.36 0 1 1-8.72 0"/></symbol></defs><title>white-king</title><g id="Layer_2" data-name="Layer 2"><g id="Layer_1-2" data-name="Layer 1"><use id="WhiteKing-3" data-name="WhiteKing" width="137.81" height="123.63" transform="scale(.48)" xlink:href="#WhiteKing"/></g></g></svg>