<?xml version="1.0" encoding="UTF-8" standalone="no"?>
<svg width="79px" height="79px" viewBox="0 0 79 79" version="1.1" xmlns="http://www.w3.org/2000/svg" xmlns:xlink="http://www.w3.org/1999/xlink">
    <!-- Generator: Sketch 39.1 (31720) - http://www.bohemiancoding.com/sketch -->
    <title>black-piece</title>
    <desc>Created with Sketch.</desc>
    <defs></defs>
    <g id="Assets" stroke="none" stroke-width="1" fill="none" fill-rule="evenodd">
        <g id="black-piece">
            <g transform="translate(5.000000, 9.000000)">
                <path d="M61.2998,61.595 L6.9248,61.595 C4.3298,61.595 2.2278,59.492 2.2278,56.898 L2.2278,54.807 C2.2278,52.213 4.3298,50.11 6.9248,50.11 L61.2998,50.11 C63.8948,50.11 65.9968,52.213 65.9968,54.807 L65.9968,56.898 C65.9968,59.492 63.8948,61.595 61.2998,61.595 L61.2998,61.595 Z" id="Fill-1" fill="#000000" opacity="0.3"></path>
                <path d="M34.0547,27.1936 L34.0547,27.1936 C20.2417,27.1936 9.0447,38.3906 9.0447,52.2036 L9.0447,55.8526 L59.0647,55.8526 L59.0647,52.2036 C59.0647,38.3906 47.8677,27.1936 34.0547,27.1936" id="Fill-3" fill="#000000"></path>
                <path d="M34.0547,27.1936 L34.0547,27.1936 C20.2417,27.1936 9.0447,38.3906 9.0447,52.2036 L9.0447,55.8526 L59.0647,55.8526 L59.0647,52.2036 C59.0647,38.3906 47.8677,27.1936 34.0547,27.1936 L34.0547,27.1936 Z" id="Stroke-5" stroke="#000000" stroke-width="2.5" stroke-linecap="round" stroke-linejoin="round"></path>
                <path d="M15.0547,42.4461 C15.0547,46.2431 11.9767,49.3211 8.1797,49.3211 C4.3827,49.3211 1.3047,46.2431 1.3047,42.4461 C1.3047,38.6491 4.3827,35.5711 8.1797,35.5711 C11.9767,35.5711 15.0547,38.6491 15.0547,42.4461" id="Fill-7" fill="#FFFFFF"></path>
                <path d="M15.0547,42.4461 C15.0547,46.2431 11.9767,49.3211 8.1797,49.3211 C4.3827,49.3211 1.3047,46.2431 1.3047,42.4461 C1.3047,38.6491 4.3827,35.5711 8.1797,35.5711 C11.9767,35.5711 15.0547,38.6491 15.0547,42.4461 L15.0547,42.4461 Z" id="Stroke-9" stroke="#000000" stroke-width="2.5" stroke-linecap="round" stroke-linejoin="round"></path>
                <path d="M65.9395,42.4461 C65.9395,46.2431 62.8615,49.3211 59.0645,49.3211 C55.2675,49.3211 52.1895,46.2431 52.1895,42.4461 C52.1895,38.6491 55.2675,35.5711 59.0645,35.5711 C62.8615,35.5711 65.9395,38.6491 65.9395,42.4461" id="Fill-11" fill="#FFFFFF"></path>
                <path d="M65.9395,42.4461 C65.9395,46.2431 62.8615,49.3211 59.0645,49.3211 C55.2675,49.3211 52.1895,46.2431 52.1895,42.4461 C52.1895,38.6491 55.2675,35.5711 59.0645,35.5711 C62.8615,35.5711 65.9395,38.6491 65.9395,42.4461 L65.9395,42.4461 Z" id="Stroke-13" stroke="#000000" stroke-width="2.5" stroke-linecap="round" stroke-linejoin="round"></path>
                <path d="M67.7559,42.5725 L67.7559,37.6555 C67.7559,19.0425 52.6669,3.9535 34.0549,3.9535 C15.4419,3.9535 0.3539,19.0425 0.3539,37.6555 L0.3539,42.5725 L18.3299,42.3245 L18.3299,40.0305 C18.3299,31.3455 25.3699,24.3065 34.0549,24.3065 C42.7379,24.3065 49.7779,31.3455 49.7779,40.0305 L49.7779,42.3245 L67.7559,42.5725 Z" id="Fill-15" fill="#000000"></path>
                <path d="M67.7559,42.5725 L67.7559,37.6555 C67.7559,19.0425 52.6669,3.9535 34.0549,3.9535 C15.4419,3.9535 0.3539,19.0425 0.3539,37.6555 L0.3539,42.5725 L18.3299,42.3245 L18.3299,40.0305 C18.3299,31.3455 25.3699,24.3065 34.0549,24.3065 C42.7379,24.3065 49.7779,31.3455 49.7779,40.0305 L49.7779,42.3245 L67.7559,42.5725 L67.7559,42.5725 Z" id="Stroke-17" stroke="#000000" stroke-width="2.5" stroke-linecap="round" stroke-linejoin="round"></path>
                <g id="Group-22" transform="translate(18.000000, 3.674100)">
                    <path d="M0.3297,38.6508 L0.3297,37.5038 L0.3297,36.3558 C0.3297,32.0138 2.0907,28.0828 4.9357,25.2378 C7.7817,22.3918 11.7117,20.6328 16.0547,20.6328 C20.3967,20.6328 24.3267,22.3918 27.1727,25.2378 C30.0187,28.0828 31.7787,32.0138 31.7787,36.3558 L31.7787,37.5038 L31.7787,38.6508" id="Fill-19" fill="#000000"></path>
                    <path d="M0.3297,38.6508 L0.3297,37.5038 L0.3297,36.3558 C0.3297,32.0138 2.0907,28.0828 4.9357,25.2378 C7.7817,22.3918 11.7117,20.6328 16.0547,20.6328 C20.3967,20.6328 24.3267,22.3918 27.1727,25.2378 C30.0187,28.0828 31.7787,32.0138 31.7787,36.3558 L31.7787,37.5038 L31.7787,38.6508" id="Stroke-21" stroke="#FFFFFF" stroke-width="2.5" stroke-linecap="round" stroke-linejoin="round"></path>
                </g>
                <path d="M66.8535,16.5716 L34.0545,49.3706 L1.2545,16.5716 C19.3695,-1.5434 48.7395,-1.5434 66.8535,16.5716" id="Fill-23" fill="#000000"></path>
                <path d="M66.8535,16.5716 L34.0545,49.3706 L1.2545,16.5716 C19.3695,-1.5434 48.7395,-1.5434 66.8535,16.5716 L66.8535,16.5716 Z" id="Stroke-25" stroke="#000000" stroke-width="2.5" stroke-linecap="round" stroke-linejoin="round"></path>
                <g id="Group-30" transform="translate(9.000000, 24.674100)">
                    <polyline id="Fill-27" fill="#000000" points="49.6543 0.0972 41.4543 8.2972 33.2543 16.4962 25.0543 24.6972 16.8543 16.4962 8.6543 8.2972 0.4553 0.0972"></polyline>
                    <polyline id="Stroke-29" stroke="#FFFFFF" stroke-width="2.5" stroke-linecap="round" stroke-linejoin="round" points="49.6543 0.0972 41.4543 8.2972 33.2543 16.4962 25.0543 24.6972 16.8543 16.4962 8.6543 8.2972 0.4553 0.0972"></polyline>
                </g>
                <path d="M44.8184,16.4295 C44.8184,22.3745 39.9994,27.1935 34.0544,27.1935 C28.1094,27.1935 23.2914,22.3745 23.2914,16.4295 C23.2914,10.4855 28.1094,9.3125 34.0544,9.3125 C39.9994,9.3125 44.8184,10.4855 44.8184,16.4295" id="Fill-31" fill="#FFFFFF"></path>
                <path d="M44.8184,16.4295 C44.8184,22.3745 39.9994,27.1935 34.0544,27.1935 C28.1094,27.1935 23.2914,22.3745 23.2914,16.4295 C23.2914,10.4855 28.1094,9.3125 34.0544,9.3125 C39.9994,9.3125 44.8184,10.4855 44.8184,16.4295 L44.8184,16.4295 Z" id="Stroke-33" stroke="#000000" stroke-width="2.5" stroke-linecap="round" stroke-linejoin="round"></path>
                <polygon id="Fill-35" fill="#FFFFFF" points="37.6387 4.2854 33.9787 0.6254 30.3187 4.2854 26.7157 0.6834 26.7157 10.3764 41.3927 10.3764 41.3927 0.5314"></polygon>
                <polygon id="Stroke-37" stroke="#000000" stroke-width="2.5" stroke-linecap="round" stroke-linejoin="round" points="37.6387 4.2854 33.9787 0.6254 30.3187 4.2854 26.7157 0.6834 26.7157 10.3764 41.3927 10.3764 41.3927 0.5314"></polygon>
                <path d="M31.5205,17.9705 C31.5205,19.1745 30.5445,20.1505 29.3405,20.1505 C28.1365,20.1505 27.1605,19.1745 27.1605,17.9705" id="Stroke-39" stroke="#000000" stroke-width="2.5" stroke-linecap="round" stroke-linejoin="round"></path>
                <path d="M40.9482,17.9705 C40.9482,19.1745 39.9722,20.1505 38.7682,20.1505 C37.5642,20.1505 36.5882,19.1745 36.5882,17.9705" id="Stroke-41" stroke="#000000" stroke-width="2.5" stroke-linecap="round" stroke-linejoin="round"></path>
            </g>
        </g>
    </g>
</svg>