<?xml version="1.0" encoding="UTF-8" standalone="no"?>
<svg width="88px" height="103px" viewBox="0 0 88 103" version="1.1" xmlns="http://www.w3.org/2000/svg" xmlns:xlink="http://www.w3.org/1999/xlink">
    <!-- Generator: Sketch 39.1 (31720) - http://www.bohemiancoding.com/sketch -->
    <title>tile a highlight</title>
    <desc>Created with Sketch.</desc>
    <defs></defs>
    <g id="Assets" stroke="none" stroke-width="1" fill="none" fill-rule="evenodd">
        <g id="tile-a-highlight">
            <g>
                <polygon id="Fill-1" fill="#E5E5E5" points="74.651 101.988 87.541 101.988 87.541 84.052 74.651 84.052"></polygon>
                <polygon id="Stroke-2" stroke="#000000" stroke-linecap="round" stroke-linejoin="round" points="74.651 101.988 87.541 101.988 87.541 84.052 74.651 84.052"></polygon>
                <path d="M80.8682,92.8872 C80.1902,95.0752 81.1692,95.3782 80.4912,97.5662 C79.8132,99.7532 79.3632,99.6142 78.6852,101.8022 L80.8682,92.8872 L80.8682,92.8872 Z" id="Stroke-3" stroke="#000000" stroke-linecap="round" stroke-linejoin="round"></path>
                <polygon id="Fill-5" fill="#E5E5E5" points="0.5 101.988 13.39 101.988 13.39 84.052 0.5 84.052"></polygon>
                <polygon id="Stroke-7" stroke="#000000" stroke-linecap="round" stroke-linejoin="round" points="0.5 101.988 13.39 101.988 13.39 84.052 0.5 84.052"></polygon>
                <g id="Group-10" transform="translate(3.000000, 87.697000)">
                    <path d="M0.6987,0.6591 C0.5617,5.7971 0.7477,7.5101 0.7817,7.7441" id="Fill-8" fill="#F5F5F5"></path>
                    <path d="M0.6987,0.6591 C0.5617,5.7971 0.7477,7.5101 0.7817,7.7441" id="Stroke-9" stroke="#000000" stroke-linecap="round" stroke-linejoin="round"></path>
                </g>
                <g id="Group-13" transform="translate(9.000000, 92.697000)">
                    <path d="M1.0178,9.2886 C1.1968,6.2176 1.1398,3.1326 0.8458,0.0706" id="Fill-11" fill="#F5F5F5"></path>
                    <path d="M1.0178,9.2886 C1.1968,6.2176 1.1398,3.1326 0.8458,0.0706" id="Stroke-12" stroke="#000000" stroke-linecap="round" stroke-linejoin="round"></path>
                </g>
                <path d="M85.8564,87.8486 L2.2874,87.8486 C1.3004,87.8486 0.5004,87.0486 0.5004,86.0616 L0.5004,2.4926 C0.5004,1.5056 1.3004,0.7056 2.2874,0.7056 L85.8564,0.7056 C86.8434,0.7056 87.6434,1.5056 87.6434,2.4926 L87.6434,86.0616 C87.6434,87.0486 86.8434,87.8486 85.8564,87.8486" id="Fill-14" fill="#F5F5F5"></path>
                <path d="M85.8564,87.8486 L2.2874,87.8486 C1.3004,87.8486 0.5004,87.0486 0.5004,86.0616 L0.5004,2.4926 C0.5004,1.5056 1.3004,0.7056 2.2874,0.7056 L85.8564,0.7056 C86.8434,0.7056 87.6434,1.5056 87.6434,2.4926 L87.6434,86.0616 C87.6434,87.0486 86.8434,87.8486 85.8564,87.8486 L85.8564,87.8486 Z" id="Stroke-15" stroke="#000000" stroke-linecap="round" stroke-linejoin="round"></path>
                <path d="M85.8564,29.753 L2.2874,29.753 C1.3004,29.753 0.5004,28.953 0.5004,27.966 L0.5004,2.492 C0.5004,1.505 1.3004,0.705 2.2874,0.705 L85.8564,0.705 C86.8434,0.705 87.6434,1.505 87.6434,2.492 L87.6434,27.966 C87.6434,28.953 86.8434,29.753 85.8564,29.753" id="Fill-16" fill="#F5F5F5"></path>
                <path d="M85.8564,29.753 L2.2874,29.753 C1.3004,29.753 0.5004,28.953 0.5004,27.966 L0.5004,2.492 C0.5004,1.505 1.3004,0.705 2.2874,0.705 L85.8564,0.705 C86.8434,0.705 87.6434,1.505 87.6434,2.492 L87.6434,27.966 C87.6434,28.953 86.8434,29.753 85.8564,29.753 L85.8564,29.753 Z" id="Stroke-17" stroke="#000000" stroke-linecap="round" stroke-linejoin="round"></path>
                <path d="M85.8564,58.8008 L2.2874,58.8008 C1.3004,58.8008 0.5004,58.0008 0.5004,57.0138 L0.5004,31.5398 C0.5004,30.5528 1.3004,29.7528 2.2874,29.7528 L85.8564,29.7528 C86.8434,29.7528 87.6434,30.5528 87.6434,31.5398 L87.6434,57.0138 C87.6434,58.0008 86.8434,58.8008 85.8564,58.8008" id="Fill-18" fill="#F5F5F5"></path>
                <path d="M85.8564,58.8008 L2.2874,58.8008 C1.3004,58.8008 0.5004,58.0008 0.5004,57.0138 L0.5004,31.5398 C0.5004,30.5528 1.3004,29.7528 2.2874,29.7528 L85.8564,29.7528 C86.8434,29.7528 87.6434,30.5528 87.6434,31.5398 L87.6434,57.0138 C87.6434,58.0008 86.8434,58.8008 85.8564,58.8008 L85.8564,58.8008 Z" id="Stroke-19" stroke="#000000" stroke-linecap="round" stroke-linejoin="round"></path>
                <path d="M85.7536,87.8486 L2.2866,87.8486 C1.2996,87.8486 0.4996,87.0486 0.4996,86.0616 L0.4996,60.5876 C0.4996,59.6006 1.2996,58.8006 2.2866,58.8006 L85.7536,58.8006 C86.7406,58.8006 87.5406,59.6006 87.5406,60.5876 L87.5406,86.0616 C87.5406,87.0486 86.7406,87.8486 85.7536,87.8486" id="Fill-20" fill="#F5F5F5"></path>
                <path d="M85.7536,87.8486 L2.2866,87.8486 C1.2996,87.8486 0.4996,87.0486 0.4996,86.0616 L0.4996,60.5876 C0.4996,59.6006 1.2996,58.8006 2.2866,58.8006 L85.7536,58.8006 C86.7406,58.8006 87.5406,59.6006 87.5406,60.5876 L87.5406,86.0616 C87.5406,87.0486 86.7406,87.8486 85.7536,87.8486 L85.7536,87.8486 Z" id="Stroke-21" stroke="#000000" stroke-linecap="round" stroke-linejoin="round"></path>
                <path d="M2.5509,58.8008 L44.2289,58.8008 C45.2159,58.8008 46.0159,58.0008 46.0159,57.0138 L46.0159,31.5398 C46.0159,30.5528 45.2159,29.7528 44.2289,29.7528 L2.5509,29.7528 C1.5639,29.7528 0.7639,30.5528 0.7639,31.5398 L0.7639,57.0138 C0.7639,58.0008 1.5639,58.8008 2.5509,58.8008" id="Fill-22" fill="#F5F5F5"></path>
                <path d="M2.5509,58.8008 L44.2289,58.8008 C45.2159,58.8008 46.0159,58.0008 46.0159,57.0138 L46.0159,31.5398 C46.0159,30.5528 45.2159,29.7528 44.2289,29.7528 L2.5509,29.7528 C1.5639,29.7528 0.7639,30.5528 0.7639,31.5398 L0.7639,57.0138 C0.7639,58.0008 1.5639,58.8008 2.5509,58.8008 L2.5509,58.8008 Z" id="Stroke-23" stroke="#000000" stroke-linecap="round" stroke-linejoin="round"></path>
                <path d="M47.7706,58.8008 L85.9906,58.8008 C86.9606,58.8008 87.7466,58.0148 87.7466,57.0458 L87.7466,31.5078 C87.7466,30.5388 86.9606,29.7528 85.9906,29.7528 L47.7706,29.7528 C46.8016,29.7528 46.0156,30.5388 46.0156,31.5078 L46.0156,57.0458 C46.0156,58.0148 46.8016,58.8008 47.7706,58.8008" id="Fill-24" fill="#F5F5F5"></path>
                <path d="M47.7706,58.8008 L85.9906,58.8008 C86.9606,58.8008 87.7466,58.0148 87.7466,57.0458 L87.7466,31.5078 C87.7466,30.5388 86.9606,29.7528 85.9906,29.7528 L47.7706,29.7528 C46.8016,29.7528 46.0156,30.5388 46.0156,31.5078 L46.0156,57.0458 C46.0156,58.0148 46.8016,58.8008 47.7706,58.8008 L47.7706,58.8008 Z" id="Stroke-25" stroke="#000000" stroke-width="0.982" stroke-linecap="round" stroke-linejoin="round"></path>
                <path d="M31.3377,71.501 C31.3377,72.453 30.5657,73.224 29.6147,73.224 C28.6627,73.224 27.8917,72.453 27.8917,71.501 C27.8917,70.549 28.6627,69.778 29.6147,69.778 C30.5657,69.778 31.3377,70.549 31.3377,71.501" id="Fill-26" fill="#F5F5F5"></path>
                <path d="M31.3377,71.501 C31.3377,72.453 30.5657,73.224 29.6147,73.224 C28.6627,73.224 27.8917,72.453 27.8917,71.501 C27.8917,70.549 28.6627,69.778 29.6147,69.778 C30.5657,69.778 31.3377,70.549 31.3377,71.501 L31.3377,71.501 Z" id="Stroke-27" stroke="#000000" stroke-linecap="round" stroke-linejoin="round"></path>
                <path d="M60.9673,13.0155 C61.2033,12.0935 62.1423,11.5375 63.0643,11.7745 C63.9863,12.0105 64.5423,12.9495 64.3053,13.8715 C64.0693,14.7935 63.1303,15.3495 62.2083,15.1125 C61.2863,14.8765 60.7313,13.9375 60.9673,13.0155" id="Fill-28" fill="#F5F5F5"></path>
                <path d="M60.9673,13.0155 C61.2033,12.0935 62.1423,11.5375 63.0643,11.7745 C63.9863,12.0105 64.5423,12.9495 64.3053,13.8715 C64.0693,14.7935 63.1303,15.3495 62.2083,15.1125 C61.2863,14.8765 60.7313,13.9375 60.9673,13.0155 L60.9673,13.0155 Z" id="Stroke-29" stroke="#000000" stroke-linecap="round" stroke-linejoin="round"></path>
                <polygon id="Fill-30" fill="#F5F5F5" points="14.5845 35.9848 16.9115 36.8468 15.0005 38.4308 13.0905 40.0148 12.6745 37.5688 12.2575 35.1218"></polygon>
                <polygon id="Stroke-31" stroke="#000000" stroke-linecap="round" stroke-linejoin="round" points="14.5845 35.9848 16.9115 36.8468 15.0005 38.4308 13.0905 40.0148 12.6745 37.5688 12.2575 35.1218"></polygon>
                <path d="M40.6005,22.7969 C38.1115,22.5169 37.9965,23.5359 35.5075,23.2559 C33.0195,22.9759 33.0715,22.5069 30.5835,22.2279 C28.0945,21.9479 28.1275,21.6549 25.6395,21.3749 C23.1505,21.0949 23.1695,20.9249 20.6805,20.6449 C18.1905,20.3649 18.0735,21.4059 15.5835,21.1259 C13.0935,20.8459 13.1115,20.6929 10.6215,20.4129 C8.1305,20.1329 8.2465,19.1099 5.7555,18.8299 C3.2645,18.5499 3.2635,18.5559 0.7725,18.2759" id="Stroke-32" stroke="#000000" stroke-linecap="round" stroke-linejoin="round"></path>
                <rect id="Rectangle-2-Copy-5" fill="#FFD900" style="mix-blend-mode: multiply;" x="1" y="1" width="87" height="87" rx="2"></rect>
            </g>
        </g>
    </g>
</svg>