<?xml version="1.0" encoding="UTF-8" standalone="no"?>
<svg width="88px" height="103px" viewBox="0 0 88 103" version="1.1" xmlns="http://www.w3.org/2000/svg" xmlns:xlink="http://www.w3.org/1999/xlink">
    <!-- Generator: Sketch 39.1 (31720) - http://www.bohemiancoding.com/sketch -->
    <title>tile d</title>
    <desc>Created with Sketch.</desc>
    <defs></defs>
    <g id="Assets" stroke="none" stroke-width="1" fill="none" fill-rule="evenodd">
        <g id="tile-d">
            <g>
                <polygon id="Fill-100" fill="#E5E5E5" points="0.551 102.091 13.441 102.091 13.441 84.155 0.551 84.155"></polygon>
                <polygon id="Stroke-101" stroke="#000000" stroke-linecap="round" stroke-linejoin="round" points="0.551 102.091 13.441 102.091 13.441 84.155 0.551 84.155"></polygon>
                <g id="Group-104" transform="translate(10.000000, 90.697000)">
                    <path d="M0.2425,7.0901 C0.3795,1.9521 0.1935,0.2391 0.1595,0.0051" id="Fill-102" fill="#F5F5F5"></path>
                    <path d="M0.2425,7.0901 C0.3795,1.9521 0.1935,0.2391 0.1595,0.0051" id="Stroke-103" stroke="#000000" stroke-linecap="round" stroke-linejoin="round"></path>
                </g>
                <g id="Group-107" transform="translate(3.000000, 83.697000)">
                    <path d="M0.9234,0.4606 C0.7444,3.5316 0.8014,6.6166 1.0954,9.6786" id="Fill-105" fill="#F5F5F5"></path>
                    <path d="M0.9234,0.4606 C0.7444,3.5316 0.8014,6.6166 1.0954,9.6786" id="Stroke-106" stroke="#000000" stroke-linecap="round" stroke-linejoin="round"></path>
                </g>
                <polygon id="Fill-108" fill="#E5E5E5" points="74.805 102.091 87.695 102.091 87.695 84.155 74.805 84.155"></polygon>
                <polygon id="Stroke-109" stroke="#000000" stroke-linecap="round" stroke-linejoin="round" points="74.805 102.091 87.695 102.091 87.695 84.155 74.805 84.155"></polygon>
                <g id="Group-112" transform="translate(84.000000, 87.697000)">
                    <path d="M0.496,0.7623 C0.633,5.9003 0.447,7.6133 0.413,7.8473" id="Fill-110" fill="#F5F5F5"></path>
                    <path d="M0.496,0.7623 C0.633,5.9003 0.447,7.6133 0.413,7.8473" id="Stroke-111" stroke="#000000" stroke-linecap="round" stroke-linejoin="round"></path>
                </g>
                <g id="Group-115" transform="translate(78.000000, 92.697000)">
                    <path d="M0.177,9.3919 C-0.002,6.3209 0.055,3.2359 0.349,0.1739" id="Fill-113" fill="#F5F5F5"></path>
                    <path d="M0.177,9.3919 C-0.002,6.3209 0.055,3.2359 0.349,0.1739" id="Stroke-114" stroke="#000000" stroke-linecap="round" stroke-linejoin="round"></path>
                </g>
                <path d="M85.9078,87.8513 L2.3388,87.8513 C1.3518,87.8513 0.5518,87.0513 0.5518,86.0643 L0.5518,2.4953 C0.5518,1.5083 1.3518,0.7083 2.3388,0.7083 L85.9078,0.7083 C86.8948,0.7083 87.6948,1.5083 87.6948,2.4953 L87.6948,86.0643 C87.6948,87.0513 86.8948,87.8513 85.9078,87.8513" id="Fill-116" fill="#F5F5F5"></path>
                <path d="M85.9078,87.8513 L2.3388,87.8513 C1.3518,87.8513 0.5518,87.0513 0.5518,86.0643 L0.5518,2.4953 C0.5518,1.5083 1.3518,0.7083 2.3388,0.7083 L85.9078,0.7083 C86.8948,0.7083 87.6948,1.5083 87.6948,2.4953 L87.6948,86.0643 C87.6948,87.0513 86.8948,87.8513 85.9078,87.8513 L85.9078,87.8513 Z" id="Stroke-117" stroke="#000000" stroke-linecap="round" stroke-linejoin="round"></path>
                <path d="M85.9078,29.7557 L2.3388,29.7557 C1.3518,29.7557 0.5518,28.9557 0.5518,27.9687 L0.5518,2.4947 C0.5518,1.5077 1.3518,0.7077 2.3388,0.7077 L85.9078,0.7077 C86.8948,0.7077 87.6948,1.5077 87.6948,2.4947 L87.6948,27.9687 C87.6948,28.9557 86.8948,29.7557 85.9078,29.7557" id="Fill-118" fill="#F5F5F5"></path>
                <path d="M85.9078,29.7557 L2.3388,29.7557 C1.3518,29.7557 0.5518,28.9557 0.5518,27.9687 L0.5518,2.4947 C0.5518,1.5077 1.3518,0.7077 2.3388,0.7077 L85.9078,0.7077 C86.8948,0.7077 87.6948,1.5077 87.6948,2.4947 L87.6948,27.9687 C87.6948,28.9557 86.8948,29.7557 85.9078,29.7557 L85.9078,29.7557 Z" id="Stroke-119" stroke="#000000" stroke-linecap="round" stroke-linejoin="round"></path>
                <path d="M85.9078,58.8035 L2.3388,58.8035 C1.3518,58.8035 0.5518,58.0035 0.5518,57.0165 L0.5518,31.5425 C0.5518,30.5555 1.3518,29.7555 2.3388,29.7555 L85.9078,29.7555 C86.8948,29.7555 87.6948,30.5555 87.6948,31.5425 L87.6948,57.0165 C87.6948,58.0035 86.8948,58.8035 85.9078,58.8035" id="Fill-120" fill="#F5F5F5"></path>
                <path d="M85.9078,58.8035 L2.3388,58.8035 C1.3518,58.8035 0.5518,58.0035 0.5518,57.0165 L0.5518,31.5425 C0.5518,30.5555 1.3518,29.7555 2.3388,29.7555 L85.9078,29.7555 C86.8948,29.7555 87.6948,30.5555 87.6948,31.5425 L87.6948,57.0165 C87.6948,58.0035 86.8948,58.8035 85.9078,58.8035 L85.9078,58.8035 Z" id="Stroke-121" stroke="#000000" stroke-linecap="round" stroke-linejoin="round"></path>
                <path d="M62.3024,87.8513 L2.3384,87.8513 C1.3514,87.8513 0.5514,87.0513 0.5514,86.0643 L0.5514,60.5903 C0.5514,59.6033 1.3514,58.8033 2.3384,58.8033 L62.3024,58.8033 C63.2894,58.8033 64.0894,59.6033 64.0894,60.5903 L64.0894,86.0643 C64.0894,87.0513 63.2894,87.8513 62.3024,87.8513" id="Fill-122" fill="#F5F5F5"></path>
                <path d="M62.3024,87.8513 L2.3384,87.8513 C1.3514,87.8513 0.5514,87.0513 0.5514,86.0643 L0.5514,60.5903 C0.5514,59.6033 1.3514,58.8033 2.3384,58.8033 L62.3024,58.8033 C63.2894,58.8033 64.0894,59.6033 64.0894,60.5903 L64.0894,86.0643 C64.0894,87.0513 63.2894,87.8513 62.3024,87.8513 L62.3024,87.8513 Z" id="Stroke-123" stroke="#000000" stroke-linecap="round" stroke-linejoin="round"></path>
                <path d="M65.8763,87.8513 L85.9083,87.8513 C86.8943,87.8513 87.6943,87.0513 87.6943,86.0643 L87.6943,60.5903 C87.6943,59.6033 86.8943,58.8033 85.9083,58.8033 L65.8763,58.8033 C64.8893,58.8033 64.0893,59.6033 64.0893,60.5903 L64.0893,86.0643 C64.0893,87.0513 64.8893,87.8513 65.8763,87.8513" id="Fill-124" fill="#F5F5F5"></path>
                <path d="M65.8763,87.8513 L85.9083,87.8513 C86.8943,87.8513 87.6943,87.0513 87.6943,86.0643 L87.6943,60.5903 C87.6943,59.6033 86.8943,58.8033 85.9083,58.8033 L65.8763,58.8033 C64.8893,58.8033 64.0893,59.6033 64.0893,60.5903 L64.0893,86.0643 C64.0893,87.0513 64.8893,87.8513 65.8763,87.8513 L65.8763,87.8513 Z" id="Stroke-125" stroke="#000000" stroke-linecap="round" stroke-linejoin="round"></path>
                <path d="M9.2625,48.3033 C9.2625,47.3513 10.0345,46.5803 10.9855,46.5803 C11.9375,46.5803 12.7085,47.3513 12.7085,48.3033 C12.7085,49.2553 11.9375,50.0263 10.9855,50.0263 C10.0345,50.0263 9.2625,49.2553 9.2625,48.3033" id="Fill-126" fill="#F5F5F5"></path>
                <path d="M9.2625,48.3033 C9.2625,47.3513 10.0345,46.5803 10.9855,46.5803 C11.9375,46.5803 12.7085,47.3513 12.7085,48.3033 C12.7085,49.2553 11.9375,50.0263 10.9855,50.0263 C10.0345,50.0263 9.2625,49.2553 9.2625,48.3033 L9.2625,48.3033 Z" id="Stroke-127" stroke="#000000" stroke-linecap="round" stroke-linejoin="round"></path>
                <polygon id="Fill-128" fill="#F5F5F5" points="52.9101 75.2424 55.3781 75.4994 53.9211 77.5084 52.4641 79.5174 51.4531 77.2514 50.4421 74.9854"></polygon>
                <polygon id="Stroke-129" stroke="#000000" stroke-linecap="round" stroke-linejoin="round" points="52.9101 75.2424 55.3781 75.4994 53.9211 77.5084 52.4641 79.5174 51.4531 77.2514 50.4421 74.9854"></polygon>
                <polygon id="Fill-130" fill="#F5F5F5" points="78.6812 38.5028 76.3542 37.6398 78.2652 36.0568 80.1752 34.4728 80.5912 36.9188 81.0082 39.3648"></polygon>
                <polygon id="Stroke-131" stroke="#000000" stroke-linecap="round" stroke-linejoin="round" points="78.6812 38.5028 76.3542 37.6398 78.2652 36.0568 80.1752 34.4728 80.5912 36.9188 81.0082 39.3648"></polygon>
                <path d="M69.08,49.5919 C68.844,50.5139 67.905,51.0699 66.983,50.8329 C66.061,50.5969 65.505,49.6579 65.742,48.7359 C65.978,47.8139 66.917,47.2579 67.839,47.4949 C68.761,47.7309 69.316,48.6699 69.08,49.5919" id="Fill-132" fill="#F5F5F5"></path>
                <path d="M69.08,49.5919 C68.844,50.5139 67.905,51.0699 66.983,50.8329 C66.061,50.5969 65.505,49.6579 65.742,48.7359 C65.978,47.8139 66.917,47.2579 67.839,47.4949 C68.761,47.7309 69.316,48.6699 69.08,49.5919 L69.08,49.5919 Z" id="Stroke-133" stroke="#000000" stroke-linecap="round" stroke-linejoin="round"></path>
                <polygon id="Fill-134" fill="#F5F5F5" points="33.4933 12.6541 31.1663 11.7911 33.0773 10.2081 34.9873 8.6241 35.4033 11.0701 35.8203 13.5161"></polygon>
                <polygon id="Stroke-135" stroke="#000000" stroke-linecap="round" stroke-linejoin="round" points="33.4933 12.6541 31.1663 11.7911 33.0773 10.2081 34.9873 8.6241 35.4033 11.0701 35.8203 13.5161"></polygon>
                <path d="M0.725,42.8725 C7.335,41.9105 7.188,40.8965 13.798,39.9345 C20.41,38.9735 20.477,39.4395 27.089,38.4775 C33.7,37.5155 33.742,37.8065 40.354,36.8455" id="Stroke-136" stroke="#000000" stroke-linecap="round" stroke-linejoin="round"></path>
            </g>
        </g>
    </g>
</svg>