<?xml version="1.0" encoding="UTF-8" standalone="no"?>
<svg width="88px" height="103px" viewBox="0 0 88 103" version="1.1" xmlns="http://www.w3.org/2000/svg" xmlns:xlink="http://www.w3.org/1999/xlink">
    <!-- Generator: Sketch 39.1 (31720) - http://www.bohemiancoding.com/sketch -->
    <title>tile e</title>
    <desc>Created with Sketch.</desc>
    <defs></defs>
    <g id="Assets" stroke="none" stroke-width="1" fill="none" fill-rule="evenodd">
        <g id="tile-e">
            <g>
                <polygon id="Fill-137" fill="#E5E5E5" points="0.54 102.197 13.43 102.197 13.43 84.261 0.54 84.261"></polygon>
                <polygon id="Stroke-138" stroke="#000000" stroke-linecap="round" stroke-linejoin="round" points="0.54 102.197 13.43 102.197 13.43 84.261 0.54 84.261"></polygon>
                <path d="M6.0112,93.4686 C6.6892,95.6566 7.6682,95.3526 8.3462,97.5406 C9.0242,99.7286 8.5742,99.8676 9.2522,102.0556" id="Stroke-139" stroke="#000000" stroke-linecap="round" stroke-linejoin="round"></path>
                <polygon id="Fill-140" fill="#E5E5E5" points="74.817 102.197 87.707 102.197 87.707 84.261 74.817 84.261"></polygon>
                <polygon id="Stroke-141" stroke="#000000" stroke-linecap="round" stroke-linejoin="round" points="74.817 102.197 87.707 102.197 87.707 84.261 74.817 84.261"></polygon>
                <path d="M80.2881,93.4686 C80.9661,95.6566 81.9451,95.3526 82.6231,97.5406 C83.3011,99.7286 82.8511,99.8676 83.5291,102.0556" id="Stroke-142" stroke="#000000" stroke-linecap="round" stroke-linejoin="round"></path>
                <path d="M87.683,2.6009 L87.683,86.1699 C87.683,87.1569 86.883,87.9569 85.896,87.9569 L2.327,87.9569 C1.34,87.9569 0.54,87.1569 0.54,86.1699 L0.54,2.6009 C0.54,1.6139 1.34,0.8139 2.327,0.8139 L85.896,0.8139 C86.883,0.8139 87.683,1.6139 87.683,2.6009" id="Fill-143" fill="#F5F5F5"></path>
                <path d="M87.683,2.6009 L87.683,86.1699 C87.683,87.1569 86.883,87.9569 85.896,87.9569 L2.327,87.9569 C1.34,87.9569 0.54,87.1569 0.54,86.1699 L0.54,2.6009 C0.54,1.6139 1.34,0.8139 2.327,0.8139 L85.896,0.8139 C86.883,0.8139 87.683,1.6139 87.683,2.6009 L87.683,2.6009 Z" id="Stroke-144" stroke="#000000" stroke-linecap="round" stroke-linejoin="round"></path>
                <path d="M29.588,2.787 L29.588,86.356 C29.588,87.343 28.788,88.143 27.801,88.143 L2.327,88.143 C1.34,88.143 0.54,87.343 0.54,86.356 L0.54,2.787 C0.54,1.8 1.34,1 2.327,1 L27.801,1 C28.788,1 29.588,1.8 29.588,2.787 L29.588,2.787 Z" id="Stroke-146" stroke="#000000" stroke-linecap="round" stroke-linejoin="round"></path>
                <path d="M58.6353,2.6009 L58.6353,86.1699 C58.6353,87.1569 57.8353,87.9569 56.8483,87.9569 L31.3743,87.9569 C30.3873,87.9569 29.5873,87.1569 29.5873,86.1699 L29.5873,2.6009 C29.5873,1.6139 30.3873,0.8139 31.3743,0.8139 L56.8483,0.8139 C57.8353,0.8139 58.6353,1.6139 58.6353,2.6009" id="Fill-147" fill="#F5F5F5"></path>
                <path d="M58.6353,2.6009 L58.6353,86.1699 C58.6353,87.1569 57.8353,87.9569 56.8483,87.9569 L31.3743,87.9569 C30.3873,87.9569 29.5873,87.1569 29.5873,86.1699 L29.5873,2.6009 C29.5873,1.6139 30.3873,0.8139 31.3743,0.8139 L56.8483,0.8139 C57.8353,0.8139 58.6353,1.6139 58.6353,2.6009 L58.6353,2.6009 Z" id="Stroke-148" stroke="#000000" stroke-linecap="round" stroke-linejoin="round"></path>
                <path d="M87.683,26.2063 L87.683,86.1703 C87.683,87.1573 86.883,87.9573 85.896,87.9573 L60.422,87.9573 C59.435,87.9573 58.635,87.1573 58.635,86.1703 L58.635,26.2063 C58.635,25.2193 59.435,24.4193 60.422,24.4193 L85.896,24.4193 C86.883,24.4193 87.683,25.2193 87.683,26.2063" id="Fill-149" fill="#F5F5F5"></path>
                <path d="M87.683,26.2063 L87.683,86.1703 C87.683,87.1573 86.883,87.9573 85.896,87.9573 L60.422,87.9573 C59.435,87.9573 58.635,87.1573 58.635,86.1703 L58.635,26.2063 C58.635,25.2193 59.435,24.4193 60.422,24.4193 L85.896,24.4193 C86.883,24.4193 87.683,25.2193 87.683,26.2063 L87.683,26.2063 Z" id="Stroke-150" stroke="#000000" stroke-linecap="round" stroke-linejoin="round"></path>
                <path d="M87.683,22.6324 L87.683,2.6004 C87.683,1.6144 86.883,0.8144 85.896,0.8144 L60.422,0.8144 C59.435,0.8144 58.635,1.6144 58.635,2.6004 L58.635,22.6324 C58.635,23.6194 59.435,24.4194 60.422,24.4194 L85.896,24.4194 C86.883,24.4194 87.683,23.6194 87.683,22.6324" id="Fill-151" fill="#F5F5F5"></path>
                <path d="M87.683,22.6324 L87.683,2.6004 C87.683,1.6144 86.883,0.8144 85.896,0.8144 L60.422,0.8144 C59.435,0.8144 58.635,1.6144 58.635,2.6004 L58.635,22.6324 C58.635,23.6194 59.435,24.4194 60.422,24.4194 L85.896,24.4194 C86.883,24.4194 87.683,23.6194 87.683,22.6324 L87.683,22.6324 Z" id="Stroke-152" stroke="#000000" stroke-linecap="round" stroke-linejoin="round"></path>
                <path d="M48.135,79.2461 C47.183,79.2461 46.412,78.4741 46.412,77.5231 C46.412,76.5711 47.183,75.8001 48.135,75.8001 C49.087,75.8001 49.858,76.5711 49.858,77.5231 C49.858,78.4741 49.087,79.2461 48.135,79.2461" id="Fill-153" fill="#F5F5F5"></path>
                <path d="M48.135,79.2461 C47.183,79.2461 46.412,78.4741 46.412,77.5231 C46.412,76.5711 47.183,75.8001 48.135,75.8001 C49.087,75.8001 49.858,76.5711 49.858,77.5231 C49.858,78.4741 49.087,79.2461 48.135,79.2461 L48.135,79.2461 Z" id="Stroke-154" stroke="#000000" stroke-linecap="round" stroke-linejoin="round"></path>
                <polygon id="Fill-155" fill="#F5F5F5" points="75.0741 35.5986 75.3311 33.1306 77.3401 34.5876 79.3491 36.0446 77.0831 37.0556 74.8171 38.0666"></polygon>
                <polygon id="Stroke-156" stroke="#000000" stroke-linecap="round" stroke-linejoin="round" points="75.0741 35.5986 75.3311 33.1306 77.3401 34.5876 79.3491 36.0446 77.0831 37.0556 74.8171 38.0666"></polygon>
                <polygon id="Fill-157" fill="#F5F5F5" points="38.3345 9.8275 37.4715 12.1545 35.8885 10.2435 34.3045 8.3335 36.7505 7.9175 39.1975 7.5005"></polygon>
                <polygon id="Stroke-158" stroke="#000000" stroke-linecap="round" stroke-linejoin="round" points="38.3345 9.8275 37.4715 12.1545 35.8885 10.2435 34.3045 8.3335 36.7505 7.9175 39.1975 7.5005"></polygon>
                <path d="M49.4236,19.4287 C50.3456,19.6647 50.9016,20.6037 50.6646,21.5257 C50.4286,22.4477 49.4896,23.0037 48.5676,22.7667 C47.6456,22.5307 47.0896,21.5917 47.3266,20.6697 C47.5626,19.7477 48.5016,19.1927 49.4236,19.4287" id="Fill-159" fill="#F5F5F5"></path>
                <path d="M49.4236,19.4287 C50.3456,19.6647 50.9016,20.6037 50.6646,21.5257 C50.4286,22.4477 49.4896,23.0037 48.5676,22.7667 C47.6456,22.5307 47.0896,21.5917 47.3266,20.6697 C47.5626,19.7477 48.5016,19.1927 49.4236,19.4287 L49.4236,19.4287 Z" id="Stroke-160" stroke="#000000" stroke-linecap="round" stroke-linejoin="round"></path>
                <polygon id="Fill-161" fill="#F5F5F5" points="12.4858 55.0154 11.6228 57.3424 10.0398 55.4314 8.4558 53.5214 10.9018 53.1054 13.3488 52.6884"></polygon>
                <polygon id="Stroke-162" stroke="#000000" stroke-linecap="round" stroke-linejoin="round" points="12.4858 55.0154 11.6228 57.3424 10.0398 55.4314 8.4558 53.5214 10.9018 53.1054 13.3488 52.6884"></polygon>
                <path d="M42.7042,87.7837 C41.7422,81.1737 40.7282,81.3207 39.7662,74.7107 C38.8052,68.0987 39.2712,68.0317 38.3092,61.4197 C37.3472,54.8087 37.6382,54.7667 36.6772,48.1547" id="Stroke-163" stroke="#000000" stroke-linecap="round" stroke-linejoin="round"></path>
            </g>
        </g>
    </g>
</svg>