<?xml version="1.0" encoding="UTF-8" standalone="no"?>
<svg width="88px" height="103px" viewBox="0 0 88 103" version="1.1" xmlns="http://www.w3.org/2000/svg" xmlns:xlink="http://www.w3.org/1999/xlink">
    <!-- Generator: Sketch 39.1 (31720) - http://www.bohemiancoding.com/sketch -->
    <title>tile f</title>
    <desc>Created with Sketch.</desc>
    <defs></defs>
    <g id="Assets" stroke="none" stroke-width="1" fill="none" fill-rule="evenodd">
        <g id="tile-f">
            <g>
                <polygon id="Fill-164" fill="#E5E5E5" points="0.54 102.144 13.43 102.144 13.43 84.208 0.54 84.208"></polygon>
                <polygon id="Stroke-165" stroke="#000000" stroke-linecap="round" stroke-linejoin="round" points="0.54 102.144 13.43 102.144 13.43 84.208 0.54 84.208"></polygon>
                <path d="M6.0112,93.4156 C6.6892,95.6036 7.6682,95.2996 8.3462,97.4876 C9.0242,99.6756 8.5742,99.8146 9.2522,102.0026" id="Stroke-166" stroke="#000000" stroke-linecap="round" stroke-linejoin="round"></path>
                <polygon id="Fill-167" fill="#E5E5E5" points="74.817 102.144 87.707 102.144 87.707 84.208 74.817 84.208"></polygon>
                <polygon id="Stroke-168" stroke="#000000" stroke-linecap="round" stroke-linejoin="round" points="74.817 102.144 87.707 102.144 87.707 84.208 74.817 84.208"></polygon>
                <path d="M80.2881,93.4156 C80.9661,95.6036 81.9451,95.2996 82.6231,97.4876 C83.3011,99.6756 82.8511,99.8146 83.5291,102.0026" id="Stroke-169" stroke="#000000" stroke-linecap="round" stroke-linejoin="round"></path>
                <path d="M0.5397,86.1174 L0.5397,2.5484 C0.5397,1.5614 1.3397,0.7614 2.3267,0.7614 L85.8957,0.7614 C86.8827,0.7614 87.6827,1.5614 87.6827,2.5484 L87.6827,86.1174 C87.6827,87.1044 86.8827,87.9044 85.8957,87.9044 L2.3267,87.9044 C1.3397,87.9044 0.5397,87.1044 0.5397,86.1174" id="Fill-170" fill="#F5F5F5"></path>
                <path d="M0.5397,86.1174 L0.5397,2.5484 C0.5397,1.5614 1.3397,0.7614 2.3267,0.7614 L85.8957,0.7614 C86.8827,0.7614 87.6827,1.5614 87.6827,2.5484 L87.6827,86.1174 C87.6827,87.1044 86.8827,87.9044 85.8957,87.9044 L2.3267,87.9044 C1.3397,87.9044 0.5397,87.1044 0.5397,86.1174 L0.5397,86.1174 Z" id="Stroke-171" stroke="#000000" stroke-linecap="round" stroke-linejoin="round"></path>
                <path d="M58.6353,86.1174 L58.6353,2.5484 C58.6353,1.5614 59.4353,0.7614 60.4223,0.7614 L85.8963,0.7614 C86.8833,0.7614 87.6833,1.5614 87.6833,2.5484 L87.6833,86.1174 C87.6833,87.1044 86.8833,87.9044 85.8963,87.9044 L60.4223,87.9044 C59.4353,87.9044 58.6353,87.1044 58.6353,86.1174" id="Fill-172" fill="#F5F5F5"></path>
                <path d="M58.6353,86.1174 L58.6353,2.5484 C58.6353,1.5614 59.4353,0.7614 60.4223,0.7614 L85.8963,0.7614 C86.8833,0.7614 87.6833,1.5614 87.6833,2.5484 L87.6833,86.1174 C87.6833,87.1044 86.8833,87.9044 85.8963,87.9044 L60.4223,87.9044 C59.4353,87.9044 58.6353,87.1044 58.6353,86.1174 L58.6353,86.1174 Z" id="Stroke-173" stroke="#000000" stroke-linecap="round" stroke-linejoin="round"></path>
                <path d="M29.5875,86.1174 L29.5875,2.5484 C29.5875,1.5614 30.3875,0.7614 31.3745,0.7614 L56.8485,0.7614 C57.8355,0.7614 58.6355,1.5614 58.6355,2.5484 L58.6355,86.1174 C58.6355,87.1044 57.8355,87.9044 56.8485,87.9044 L31.3745,87.9044 C30.3875,87.9044 29.5875,87.1044 29.5875,86.1174" id="Fill-174" fill="#F5F5F5"></path>
                <path d="M29.5875,86.1174 L29.5875,2.5484 C29.5875,1.5614 30.3875,0.7614 31.3745,0.7614 L56.8485,0.7614 C57.8355,0.7614 58.6355,1.5614 58.6355,2.5484 L58.6355,86.1174 C58.6355,87.1044 57.8355,87.9044 56.8485,87.9044 L31.3745,87.9044 C30.3875,87.9044 29.5875,87.1044 29.5875,86.1174 L29.5875,86.1174 Z" id="Stroke-175" stroke="#000000" stroke-linecap="round" stroke-linejoin="round"></path>
                <path d="M0.5397,62.5119 L0.5397,2.5479 C0.5397,1.5609 1.3397,0.7609 2.3267,0.7609 L27.8007,0.7609 C28.7877,0.7609 29.5877,1.5609 29.5877,2.5479 L29.5877,62.5119 C29.5877,63.4989 28.7877,64.2989 27.8007,64.2989 L2.3267,64.2989 C1.3397,64.2989 0.5397,63.4989 0.5397,62.5119" id="Fill-176" fill="#F5F5F5"></path>
                <path d="M0.5397,62.5119 L0.5397,2.5479 C0.5397,1.5609 1.3397,0.7609 2.3267,0.7609 L27.8007,0.7609 C28.7877,0.7609 29.5877,1.5609 29.5877,2.5479 L29.5877,62.5119 C29.5877,63.4989 28.7877,64.2989 27.8007,64.2989 L2.3267,64.2989 C1.3397,64.2989 0.5397,63.4989 0.5397,62.5119 L0.5397,62.5119 Z" id="Stroke-177" stroke="#000000" stroke-linecap="round" stroke-linejoin="round"></path>
                <path d="M0.5397,66.0858 L0.5397,86.1178 C0.5397,87.1038 1.3397,87.9038 2.3267,87.9038 L27.8007,87.9038 C28.7877,87.9038 29.5877,87.1038 29.5877,86.1178 L29.5877,66.0858 C29.5877,65.0988 28.7877,64.2988 27.8007,64.2988 L2.3267,64.2988 C1.3397,64.2988 0.5397,65.0988 0.5397,66.0858" id="Fill-178" fill="#F5F5F5"></path>
                <path d="M0.5397,66.0858 L0.5397,86.1178 C0.5397,87.1038 1.3397,87.9038 2.3267,87.9038 L27.8007,87.9038 C28.7877,87.9038 29.5877,87.1038 29.5877,86.1178 L29.5877,66.0858 C29.5877,65.0988 28.7877,64.2988 27.8007,64.2988 L2.3267,64.2988 C1.3397,64.2988 0.5397,65.0988 0.5397,66.0858 L0.5397,66.0858 Z" id="Stroke-179" stroke="#000000" stroke-linecap="round" stroke-linejoin="round"></path>
                <path d="M40.0877,9.4721 C41.0397,9.4721 41.8107,10.2441 41.8107,11.1951 C41.8107,12.1471 41.0397,12.9181 40.0877,12.9181 C39.1357,12.9181 38.3647,12.1471 38.3647,11.1951 C38.3647,10.2441 39.1357,9.4721 40.0877,9.4721" id="Fill-180" fill="#F5F5F5"></path>
                <path d="M40.0877,9.4721 C41.0397,9.4721 41.8107,10.2441 41.8107,11.1951 C41.8107,12.1471 41.0397,12.9181 40.0877,12.9181 C39.1357,12.9181 38.3647,12.1471 38.3647,11.1951 C38.3647,10.2441 39.1357,9.4721 40.0877,9.4721 L40.0877,9.4721 Z" id="Stroke-181" stroke="#000000" stroke-linecap="round" stroke-linejoin="round"></path>
                <polygon id="Fill-182" fill="#F5F5F5" points="13.1486 53.1197 12.8916 55.5877 10.8826 54.1307 8.8736 52.6737 11.1396 51.6627 13.4056 50.6517"></polygon>
                <polygon id="Stroke-183" stroke="#000000" stroke-linecap="round" stroke-linejoin="round" points="13.1486 53.1197 12.8916 55.5877 10.8826 54.1307 8.8736 52.6737 11.1396 51.6627 13.4056 50.6517"></polygon>
                <polygon id="Fill-184" fill="#F5F5F5" points="49.8883 78.8908 50.7513 76.5638 52.3343 78.4748 53.9183 80.3848 51.4723 80.8008 49.0253 81.2178"></polygon>
                <polygon id="Stroke-185" stroke="#000000" stroke-linecap="round" stroke-linejoin="round" points="49.8883 78.8908 50.7513 76.5638 52.3343 78.4748 53.9183 80.3848 51.4723 80.8008 49.0253 81.2178"></polygon>
                <path d="M38.7991,69.2896 C37.8771,69.0536 37.3211,68.1146 37.5581,67.1926 C37.7941,66.2706 38.7331,65.7146 39.6551,65.9516 C40.5771,66.1876 41.1331,67.1266 40.8961,68.0486 C40.6601,68.9706 39.7211,69.5256 38.7991,69.2896" id="Fill-186" fill="#F5F5F5"></path>
                <path d="M38.7991,69.2896 C37.8771,69.0536 37.3211,68.1146 37.5581,67.1926 C37.7941,66.2706 38.7331,65.7146 39.6551,65.9516 C40.5771,66.1876 41.1331,67.1266 40.8961,68.0486 C40.6601,68.9706 39.7211,69.5256 38.7991,69.2896 L38.7991,69.2896 Z" id="Stroke-187" stroke="#000000" stroke-linecap="round" stroke-linejoin="round"></path>
                <polygon id="Fill-188" fill="#F5F5F5" points="75.7369 33.7028 76.5999 31.3758 78.1829 33.2868 79.7669 35.1968 77.3209 35.6128 74.8739 36.0298"></polygon>
                <polygon id="Stroke-189" stroke="#000000" stroke-linecap="round" stroke-linejoin="round" points="75.7369 33.7028 76.5999 31.3758 78.1829 33.2868 79.7669 35.1968 77.3209 35.6128 74.8739 36.0298"></polygon>
                <path d="M45.5185,0.9346 C46.4805,7.5446 47.4945,7.3976 48.4565,14.0076 C49.4175,20.6196 48.9515,20.6866 49.9135,27.2986 C50.8755,33.9096 50.5845,33.9516 51.5455,40.5636" id="Stroke-190" stroke="#000000" stroke-linecap="round" stroke-linejoin="round"></path>
            </g>
        </g>
    </g>
</svg>