<?xml version="1.0" encoding="UTF-8" standalone="no"?>
<svg width="88px" height="103px" viewBox="0 0 88 103" version="1.1" xmlns="http://www.w3.org/2000/svg" xmlns:xlink="http://www.w3.org/1999/xlink">
    <!-- Generator: Sketch 39.1 (31720) - http://www.bohemiancoding.com/sketch -->
    <title>tile g</title>
    <desc>Created with Sketch.</desc>
    <defs></defs>
    <g id="Assets" stroke="none" stroke-width="1" fill="none" fill-rule="evenodd">
        <g id="tile-g">
            <g>
                <polygon id="Fill-191" fill="#E5E5E5" points="74.518 102.154 87.408 102.154 87.408 84.218 74.518 84.218"></polygon>
                <polygon id="Stroke-192" stroke="#000000" stroke-linecap="round" stroke-linejoin="round" points="74.518 102.154 87.408 102.154 87.408 84.218 74.518 84.218"></polygon>
                <path d="M81.1899,93.3189 C81.8679,91.1309 80.8889,90.8279 81.5669,88.6399 C82.2449,86.4529 82.6949,86.5919 83.3729,84.4039" id="Stroke-193" stroke="#000000" stroke-linecap="round" stroke-linejoin="round"></path>
                <polygon id="Fill-194" fill="#E5E5E5" points="0.287 102.287 13.177 102.287 13.177 84.351 0.287 84.351"></polygon>
                <polygon id="Stroke-195" stroke="#000000" stroke-linecap="round" stroke-linejoin="round" points="0.287 102.287 13.177 102.287 13.177 84.351 0.287 84.351"></polygon>
                <g id="Group-198" transform="translate(3.000000, 87.697000)">
                    <path d="M0.4856,0.958 C0.3486,6.096 0.5346,7.809 0.5686,8.043" id="Fill-196" fill="#F5F5F5"></path>
                    <path d="M0.4856,0.958 C0.3486,6.096 0.5346,7.809 0.5686,8.043" id="Stroke-197" stroke="#000000" stroke-linecap="round" stroke-linejoin="round"></path>
                </g>
                <g id="Group-201" transform="translate(9.000000, 92.697000)">
                    <path d="M0.8047,9.5876 C0.9837,6.5166 0.9267,3.4316 0.6327,0.3696" id="Fill-199" fill="#F5F5F5"></path>
                    <path d="M0.8047,9.5876 C0.9837,6.5166 0.9267,3.4316 0.6327,0.3696" id="Stroke-200" stroke="#000000" stroke-linecap="round" stroke-linejoin="round"></path>
                </g>
                <path d="M85.6433,88.0147 L2.0743,88.0147 C1.0873,88.0147 0.2873,87.2147 0.2873,86.2277 L0.2873,2.6587 C0.2873,1.6717 1.0873,0.8717 2.0743,0.8717 L85.6433,0.8717 C86.6303,0.8717 87.4303,1.6717 87.4303,2.6587 L87.4303,86.2277 C87.4303,87.2147 86.6303,88.0147 85.6433,88.0147" id="Fill-202" fill="#F5F5F5"></path>
                <path d="M85.6433,88.0147 L2.0743,88.0147 C1.0873,88.0147 0.2873,87.2147 0.2873,86.2277 L0.2873,2.6587 C0.2873,1.6717 1.0873,0.8717 2.0743,0.8717 L85.6433,0.8717 C86.6303,0.8717 87.4303,1.6717 87.4303,2.6587 L87.4303,86.2277 C87.4303,87.2147 86.6303,88.0147 85.6433,88.0147 L85.6433,88.0147 Z" id="Stroke-203" stroke="#000000" stroke-linecap="round" stroke-linejoin="round"></path>
                <path d="M85.6433,29.9191 L2.0743,29.9191 C1.0873,29.9191 0.2873,29.1191 0.2873,28.1321 L0.2873,2.6581 C0.2873,1.6711 1.0873,0.8711 2.0743,0.8711 L85.6433,0.8711 C86.6303,0.8711 87.4303,1.6711 87.4303,2.6581 L87.4303,28.1321 C87.4303,29.1191 86.6303,29.9191 85.6433,29.9191" id="Fill-204" fill="#F5F5F5"></path>
                <path d="M85.6433,29.9191 L2.0743,29.9191 C1.0873,29.9191 0.2873,29.1191 0.2873,28.1321 L0.2873,2.6581 C0.2873,1.6711 1.0873,0.8711 2.0743,0.8711 L85.6433,0.8711 C86.6303,0.8711 87.4303,1.6711 87.4303,2.6581 L87.4303,28.1321 C87.4303,29.1191 86.6303,29.9191 85.6433,29.9191 L85.6433,29.9191 Z" id="Stroke-205" stroke="#000000" stroke-linecap="round" stroke-linejoin="round"></path>
                <path d="M85.6433,58.9669 L2.0743,58.9669 C1.0873,58.9669 0.2873,58.1669 0.2873,57.1799 L0.2873,31.7059 C0.2873,30.7189 1.0873,29.9189 2.0743,29.9189 L85.6433,29.9189 C86.6303,29.9189 87.4303,30.7189 87.4303,31.7059 L87.4303,57.1799 C87.4303,58.1669 86.6303,58.9669 85.6433,58.9669" id="Fill-206" fill="#F5F5F5"></path>
                <path d="M85.6433,58.9669 L2.0743,58.9669 C1.0873,58.9669 0.2873,58.1669 0.2873,57.1799 L0.2873,31.7059 C0.2873,30.7189 1.0873,29.9189 2.0743,29.9189 L85.6433,29.9189 C86.6303,29.9189 87.4303,30.7189 87.4303,31.7059 L87.4303,57.1799 C87.4303,58.1669 86.6303,58.9669 85.6433,58.9669 L85.6433,58.9669 Z" id="Stroke-207" stroke="#000000" stroke-linecap="round" stroke-linejoin="round"></path>
                <path d="M62.0379,88.0147 L2.0739,88.0147 C1.0869,88.0147 0.2869,87.2147 0.2869,86.2277 L0.2869,60.7537 C0.2869,59.7667 1.0869,58.9667 2.0739,58.9667 L62.0379,58.9667 C63.0249,58.9667 63.8249,59.7667 63.8249,60.7537 L63.8249,86.2277 C63.8249,87.2147 63.0249,88.0147 62.0379,88.0147" id="Fill-208" fill="#F5F5F5"></path>
                <path d="M62.0379,88.0147 L2.0739,88.0147 C1.0869,88.0147 0.2869,87.2147 0.2869,86.2277 L0.2869,60.7537 C0.2869,59.7667 1.0869,58.9667 2.0739,58.9667 L62.0379,58.9667 C63.0249,58.9667 63.8249,59.7667 63.8249,60.7537 L63.8249,86.2277 C63.8249,87.2147 63.0249,88.0147 62.0379,88.0147 L62.0379,88.0147 Z" id="Stroke-209" stroke="#000000" stroke-linecap="round" stroke-linejoin="round"></path>
                <path d="M65.6118,88.0147 L85.6438,88.0147 C86.6298,88.0147 87.4298,87.2147 87.4298,86.2277 L87.4298,60.7537 C87.4298,59.7667 86.6298,58.9667 85.6438,58.9667 L65.6118,58.9667 C64.6248,58.9667 63.8248,59.7667 63.8248,60.7537 L63.8248,86.2277 C63.8248,87.2147 64.6248,88.0147 65.6118,88.0147" id="Fill-210" fill="#F5F5F5"></path>
                <path d="M65.6118,88.0147 L85.6438,88.0147 C86.6298,88.0147 87.4298,87.2147 87.4298,86.2277 L87.4298,60.7537 C87.4298,59.7667 86.6298,58.9667 85.6438,58.9667 L65.6118,58.9667 C64.6248,58.9667 63.8248,59.7667 63.8248,60.7537 L63.8248,86.2277 C63.8248,87.2147 64.6248,88.0147 65.6118,88.0147 L65.6118,88.0147 Z" id="Stroke-211" stroke="#000000" stroke-linecap="round" stroke-linejoin="round"></path>
                <polygon id="Fill-212" fill="#F5F5F5" points="13.2018 14.9324 15.6118 14.3414 14.9188 16.7244 14.2248 19.1064 12.5088 17.3154 10.7918 15.5234"></polygon>
                <polygon id="Stroke-213" stroke="#000000" stroke-linecap="round" stroke-linejoin="round" points="13.2018 14.9324 15.6118 14.3414 14.9188 16.7244 14.2248 19.1064 12.5088 17.3154 10.7918 15.5234"></polygon>
                <path d="M27.8439,10.8282 C27.8439,11.7802 27.0719,12.5512 26.1209,12.5512 C25.1689,12.5512 24.3979,11.7802 24.3979,10.8282 C24.3979,9.8762 25.1689,9.1052 26.1209,9.1052 C27.0719,9.1052 27.8439,9.8762 27.8439,10.8282" id="Fill-214" fill="#F5F5F5"></path>
                <path d="M27.8439,10.8282 C27.8439,11.7802 27.0719,12.5512 26.1209,12.5512 C25.1689,12.5512 24.3979,11.7802 24.3979,10.8282 C24.3979,9.8762 25.1689,9.1052 26.1209,9.1052 C27.0719,9.1052 27.8439,9.8762 27.8439,10.8282 L27.8439,10.8282 Z" id="Stroke-215" stroke="#000000" stroke-linecap="round" stroke-linejoin="round"></path>
                <polygon id="Fill-216" fill="#F5F5F5" points="74.5176 44.728 72.0496 44.471 73.5066 42.462 74.9636 40.453 75.9746 42.719 76.9856 44.985"></polygon>
                <polygon id="Stroke-217" stroke="#000000" stroke-linecap="round" stroke-linejoin="round" points="74.5176 44.728 72.0496 44.471 73.5066 42.462 74.9636 40.453 75.9746 42.719 76.9856 44.985"></polygon>
                <polygon id="Fill-218" fill="#F5F5F5" points="15.6119 80.2181 13.1439 79.9611 14.6009 77.9521 16.0579 75.9431 17.0689 78.2091 18.0799 80.4751"></polygon>
                <polygon id="Stroke-219" stroke="#000000" stroke-linecap="round" stroke-linejoin="round" points="15.6119 80.2181 13.1439 79.9611 14.6009 77.9521 16.0579 75.9431 17.0689 78.2091 18.0799 80.4751"></polygon>
                <path d="M32.1575,43.8614 C32.4785,42.9654 33.4655,42.4994 34.3615,42.8214 C35.2575,43.1424 35.7225,44.1284 35.4015,45.0244 C35.0805,45.9204 34.0935,46.3864 33.1975,46.0654 C32.3025,45.7444 31.8365,44.7574 32.1575,43.8614" id="Fill-220" fill="#F5F5F5"></path>
                <path d="M32.1575,43.8614 C32.4785,42.9654 33.4655,42.4994 34.3615,42.8214 C35.2575,43.1424 35.7225,44.1284 35.4015,45.0244 C35.0805,45.9204 34.0935,46.3864 33.1975,46.0654 C32.3025,45.7444 31.8365,44.7574 32.1575,43.8614 L32.1575,43.8614 Z" id="Stroke-221" stroke="#000000" stroke-linecap="round" stroke-linejoin="round"></path>
                <path d="M37.4499,69.2737 C43.9829,69.2737 43.9829,66.6277 50.5159,66.6277 C57.0479,66.6277 57.0479,67.8437 63.5809,67.8437" id="Stroke-222" stroke="#000000" stroke-linecap="round" stroke-linejoin="round"></path>
                <path d="M63.507,72.6836 C71.951,74.8216 72.371,73.1646 80.815,75.3026" id="Stroke-223" stroke="#000000" stroke-linecap="round" stroke-linejoin="round"></path>
            </g>
        </g>
    </g>
</svg>