<?xml version="1.0" encoding="UTF-8" standalone="no"?>
<svg width="88px" height="102px" viewBox="0 0 88 102" version="1.1" xmlns="http://www.w3.org/2000/svg" xmlns:xlink="http://www.w3.org/1999/xlink">
    <!-- Generator: Sketch 39.1 (31720) - http://www.bohemiancoding.com/sketch -->
    <title>tile b highlight</title>
    <desc>Created with Sketch.</desc>
    <defs></defs>
    <g id="Assets" stroke="none" stroke-width="1" fill="none" fill-rule="evenodd">
        <g id="tile-b-highlight">
            <g>
                <polygon id="Fill-33" fill="#E5E5E5" points="74.386 101.526 87.276 101.526 87.276 83.59 74.386 83.59"></polygon>
                <polygon id="Stroke-34" stroke="#000000" stroke-linecap="round" stroke-linejoin="round" points="74.386 101.526 87.276 101.526 87.276 83.59 74.386 83.59"></polygon>
                <path d="M80.6037,92.4259 C79.9257,94.6139 80.9047,94.9169 80.2267,97.1049 C79.5487,99.2919 79.0987,99.1529 78.4207,101.3409" id="Stroke-35" stroke="#000000" stroke-linecap="round" stroke-linejoin="round"></path>
                <polygon id="Fill-36" fill="#E5E5E5" points="0.235 101.526 13.125 101.526 13.125 83.59 0.235 83.59"></polygon>
                <polygon id="Stroke-37" stroke="#000000" stroke-linecap="round" stroke-linejoin="round" points="0.235 101.526 13.125 101.526 13.125 83.59 0.235 83.59"></polygon>
                <g id="Group-40" transform="translate(3.000000, 87.697000)">
                    <path d="M0.4342,0.1978 C0.2972,5.3358 0.4832,7.0488 0.5172,7.2828" id="Fill-38" fill="#F5F5F5"></path>
                    <path d="M0.4342,0.1978 C0.2972,5.3358 0.4832,7.0488 0.5172,7.2828" id="Stroke-39" stroke="#000000" stroke-linecap="round" stroke-linejoin="round"></path>
                </g>
                <g id="Group-43" transform="translate(9.000000, 91.697000)">
                    <path d="M0.7533,9.8273 C0.9323,6.7563 0.8753,3.6713 0.5813,0.6093" id="Fill-41" fill="#F5F5F5"></path>
                    <path d="M0.7533,9.8273 C0.9323,6.7563 0.8753,3.6713 0.5813,0.6093" id="Stroke-42" stroke="#000000" stroke-linecap="round" stroke-linejoin="round"></path>
                </g>
                <path d="M2.1253,0.2439 L85.6943,0.2439 C86.6813,0.2439 87.4813,1.0439 87.4813,2.0309 L87.4813,85.5999 C87.4813,86.5869 86.6813,87.3869 85.6943,87.3869 L2.1253,87.3869 C1.1383,87.3869 0.3383,86.5869 0.3383,85.5999 L0.3383,2.0309 C0.3383,1.0439 1.1383,0.2439 2.1253,0.2439" id="Fill-44" fill="#F5F5F5"></path>
                <path d="M2.1253,0.2439 L85.6943,0.2439 C86.6813,0.2439 87.4813,1.0439 87.4813,2.0309 L87.4813,85.5999 C87.4813,86.5869 86.6813,87.3869 85.6943,87.3869 L2.1253,87.3869 C1.1383,87.3869 0.3383,86.5869 0.3383,85.5999 L0.3383,2.0309 C0.3383,1.0439 1.1383,0.2439 2.1253,0.2439 L2.1253,0.2439 Z" id="Stroke-45" stroke="#000000" stroke-linecap="round" stroke-linejoin="round"></path>
                <path d="M2.1253,58.3395 L85.6943,58.3395 C86.6813,58.3395 87.4813,59.1395 87.4813,60.1265 L87.4813,85.6005 C87.4813,86.5875 86.6813,87.3875 85.6943,87.3875 L2.1253,87.3875 C1.1383,87.3875 0.3383,86.5875 0.3383,85.6005 L0.3383,60.1265 C0.3383,59.1395 1.1383,58.3395 2.1253,58.3395" id="Fill-46" fill="#F5F5F5"></path>
                <path d="M2.1253,58.3395 L85.6943,58.3395 C86.6813,58.3395 87.4813,59.1395 87.4813,60.1265 L87.4813,85.6005 C87.4813,86.5875 86.6813,87.3875 85.6943,87.3875 L2.1253,87.3875 C1.1383,87.3875 0.3383,86.5875 0.3383,85.6005 L0.3383,60.1265 C0.3383,59.1395 1.1383,58.3395 2.1253,58.3395 L2.1253,58.3395 Z" id="Stroke-47" stroke="#000000" stroke-linecap="round" stroke-linejoin="round"></path>
                <path d="M2.1253,29.2917 L85.6943,29.2917 C86.6813,29.2917 87.4813,30.0917 87.4813,31.0787 L87.4813,56.5527 C87.4813,57.5397 86.6813,58.3397 85.6943,58.3397 L2.1253,58.3397 C1.1383,58.3397 0.3383,57.5397 0.3383,56.5527 L0.3383,31.0787 C0.3383,30.0917 1.1383,29.2917 2.1253,29.2917" id="Fill-48" fill="#F5F5F5"></path>
                <path d="M2.1253,29.2917 L85.6943,29.2917 C86.6813,29.2917 87.4813,30.0917 87.4813,31.0787 L87.4813,56.5527 C87.4813,57.5397 86.6813,58.3397 85.6943,58.3397 L2.1253,58.3397 C1.1383,58.3397 0.3383,57.5397 0.3383,56.5527 L0.3383,31.0787 C0.3383,30.0917 1.1383,29.2917 2.1253,29.2917 L2.1253,29.2917 Z" id="Stroke-49" stroke="#000000" stroke-linecap="round" stroke-linejoin="round"></path>
                <path d="M2.2281,0.2439 L85.6951,0.2439 C86.6821,0.2439 87.4821,1.0439 87.4821,2.0309 L87.4821,27.5049 C87.4821,28.4919 86.6821,29.2919 85.6951,29.2919 L2.2281,29.2919 C1.2411,29.2919 0.4411,28.4919 0.4411,27.5049 L0.4411,2.0309 C0.4411,1.0439 1.2411,0.2439 2.2281,0.2439" id="Fill-50" fill="#F5F5F5"></path>
                <path d="M2.2281,0.2439 L85.6951,0.2439 C86.6821,0.2439 87.4821,1.0439 87.4821,2.0309 L87.4821,27.5049 C87.4821,28.4919 86.6821,29.2919 85.6951,29.2919 L2.2281,29.2919 C1.2411,29.2919 0.4411,28.4919 0.4411,27.5049 L0.4411,2.0309 C0.4411,1.0439 1.2411,0.2439 2.2281,0.2439 L2.2281,0.2439 Z" id="Stroke-51" stroke="#000000" stroke-linecap="round" stroke-linejoin="round"></path>
                <path d="M85.4307,29.2917 L43.7527,29.2917 C42.7657,29.2917 41.9657,30.0917 41.9657,31.0787 L41.9657,56.5527 C41.9657,57.5397 42.7657,58.3397 43.7527,58.3397 L85.4307,58.3397 C86.4177,58.3397 87.2177,57.5397 87.2177,56.5527 L87.2177,31.0787 C87.2177,30.0917 86.4177,29.2917 85.4307,29.2917" id="Fill-52" fill="#F5F5F5"></path>
                <path d="M85.4307,29.2917 L43.7527,29.2917 C42.7657,29.2917 41.9657,30.0917 41.9657,31.0787 L41.9657,56.5527 C41.9657,57.5397 42.7657,58.3397 43.7527,58.3397 L85.4307,58.3397 C86.4177,58.3397 87.2177,57.5397 87.2177,56.5527 L87.2177,31.0787 C87.2177,30.0917 86.4177,29.2917 85.4307,29.2917 L85.4307,29.2917 Z" id="Stroke-53" stroke="#000000" stroke-linecap="round" stroke-linejoin="round"></path>
                <path d="M40.211,29.2917 L1.991,29.2917 C1.021,29.2917 0.235,30.0777 0.235,31.0467 L0.235,56.5847 C0.235,57.5537 1.021,58.3397 1.991,58.3397 L40.211,58.3397 C41.18,58.3397 41.966,57.5537 41.966,56.5847 L41.966,31.0467 C41.966,30.0777 41.18,29.2917 40.211,29.2917" id="Fill-54" fill="#F5F5F5"></path>
                <path d="M40.211,29.2917 L1.991,29.2917 C1.021,29.2917 0.235,30.0777 0.235,31.0467 L0.235,56.5847 C0.235,57.5537 1.021,58.3397 1.991,58.3397 L40.211,58.3397 C41.18,58.3397 41.966,57.5537 41.966,56.5847 L41.966,31.0467 C41.966,30.0777 41.18,29.2917 40.211,29.2917 L40.211,29.2917 Z" id="Stroke-55" stroke="#000000" stroke-width="0.982" stroke-linecap="round" stroke-linejoin="round"></path>
                <path d="M56.644,16.5915 C56.644,15.6395 57.416,14.8685 58.367,14.8685 C59.319,14.8685 60.09,15.6395 60.09,16.5915 C60.09,17.5435 59.319,18.3145 58.367,18.3145 C57.416,18.3145 56.644,17.5435 56.644,16.5915" id="Fill-56" fill="#F5F5F5"></path>
                <path d="M56.644,16.5915 C56.644,15.6395 57.416,14.8685 58.367,14.8685 C59.319,14.8685 60.09,15.6395 60.09,16.5915 C60.09,17.5435 59.319,18.3145 58.367,18.3145 C57.416,18.3145 56.644,17.5435 56.644,16.5915 L56.644,16.5915 Z" id="Stroke-57" stroke="#000000" stroke-linecap="round" stroke-linejoin="round"></path>
                <path d="M27.0144,75.077 C26.7784,75.999 25.8394,76.555 24.9174,76.318 C23.9954,76.082 23.4394,75.143 23.6764,74.221 C23.9124,73.299 24.8514,72.743 25.7734,72.98 C26.6954,73.216 27.2504,74.155 27.0144,75.077" id="Fill-58" fill="#F5F5F5"></path>
                <path d="M27.0144,75.077 C26.7784,75.999 25.8394,76.555 24.9174,76.318 C23.9954,76.082 23.4394,75.143 23.6764,74.221 C23.9124,73.299 24.8514,72.743 25.7734,72.98 C26.6954,73.216 27.2504,74.155 27.0144,75.077 L27.0144,75.077 Z" id="Stroke-59" stroke="#000000" stroke-linecap="round" stroke-linejoin="round"></path>
                <polygon id="Fill-60" fill="#F5F5F5" points="73.3971 52.1077 71.0701 51.2457 72.9811 49.6617 74.8911 48.0777 75.3071 50.5237 75.7241 52.9707"></polygon>
                <polygon id="Stroke-61" stroke="#000000" stroke-linecap="round" stroke-linejoin="round" points="73.3971 52.1077 71.0701 51.2457 72.9811 49.6617 74.8911 48.0777 75.3071 50.5237 75.7241 52.9707"></polygon>
                <path d="M47.3812,65.2956 C49.8702,65.5756 49.9852,64.5566 52.4742,64.8366 C54.9622,65.1166 54.9102,65.5856 57.3982,65.8646 C59.8872,66.1446 59.8542,66.4376 62.3422,66.7176 C64.8312,66.9976 64.8122,67.1676 67.3012,67.4476 C69.7912,67.7276 69.9082,66.6866 72.3982,66.9666 C74.8882,67.2466 74.8702,67.3996 77.3602,67.6796 C79.8512,67.9596 79.7352,68.9826 82.2262,69.2626 C84.7172,69.5426 84.7182,69.5366 87.2092,69.8166" id="Stroke-62" stroke="#000000" stroke-linecap="round" stroke-linejoin="round"></path>
                <rect id="Rectangle-2-Copy-2" fill="#FFD900" style="mix-blend-mode: multiply;" x="0" y="1" width="87" height="87" rx="2"></rect>
            </g>
        </g>
    </g>
</svg>